<svg width="50" height="50" viewBox="0 0 50 50" fill="none" xmlns="http://www.w3.org/2000/svg">
<rect x="0.5" y="0.5" width="49" height="49" rx="12.5" fill="#CD2D45" stroke="#CD2D45"/>
<path d="M20.8706 39.459C21.1996 39.214 21.3676 38.885 21.3676 38.458C21.3676 38.073 21.2276 37.751 20.9476 37.492C20.6746 37.233 20.3316 37.1 19.9326 37.1H17.9866V42H20.0866C20.4996 42 20.8426 41.867 21.1296 41.601C21.4166 41.335 21.5566 40.999 21.5566 40.6C21.5566 40.089 21.2976 39.683 20.8706 39.459ZM19.9326 37.856C20.2896 37.856 20.5626 38.136 20.5626 38.5C20.5626 38.864 20.2896 39.144 19.9326 39.144H18.7916V37.856H19.9326ZM18.7916 41.244V39.872H20.0866C20.4576 39.872 20.7516 40.173 20.7516 40.558C20.7516 40.943 20.4576 41.244 20.0866 41.244H18.7916ZM25.6252 40.572C25.6462 40.439 25.6532 40.334 25.6532 40.257C25.6532 39.746 25.4852 39.305 25.1562 38.948C24.8272 38.591 24.4072 38.409 23.8962 38.409C23.3572 38.409 22.9092 38.584 22.5662 38.941C22.2232 39.291 22.0482 39.725 22.0482 40.25C22.0482 40.782 22.2232 41.223 22.5732 41.573C22.9232 41.916 23.3852 42.091 23.9522 42.091C24.6312 42.091 25.1422 41.839 25.4852 41.328L24.8622 40.964C24.6592 41.251 24.3582 41.398 23.9592 41.398C23.3782 41.398 22.9512 41.104 22.8392 40.572H25.6252ZM22.8322 39.956C22.9372 39.424 23.3292 39.095 23.8892 39.095C24.3862 39.095 24.7852 39.389 24.8902 39.956H22.8322ZM26.8607 39.466C26.8607 39.221 27.0847 39.095 27.3717 39.095C27.6867 39.095 27.9107 39.228 28.0297 39.494L28.6667 39.137C28.4217 38.682 27.9527 38.409 27.3717 38.409C27.0077 38.409 26.6997 38.507 26.4547 38.703C26.2097 38.899 26.0907 39.158 26.0907 39.48C26.0767 40.215 26.7837 40.425 27.3087 40.558C27.6797 40.649 27.9737 40.782 27.9737 41.006C27.9737 41.265 27.7777 41.398 27.3787 41.398C26.9797 41.398 26.7207 41.23 26.6017 40.894L25.9507 41.272C26.1747 41.783 26.6857 42.091 27.3787 42.091C27.7707 42.091 28.0927 41.993 28.3517 41.804C28.6107 41.615 28.7437 41.349 28.7437 41.013C28.7577 40.264 28.0577 40.04 27.5187 39.921C27.1547 39.816 26.8607 39.697 26.8607 39.466ZM31.2246 38.5H30.3566V37.52L29.6006 37.744V38.5H28.9566V39.228H29.6006V40.908C29.6006 41.825 30.0696 42.14 31.2246 42V41.321C30.6506 41.349 30.3566 41.356 30.3566 40.908V39.228H31.2246V38.5Z" fill="white"/>
<path d="M25.1157 9.3823L28.2281 15.7093C28.2687 15.7974 28.3566 15.8585 28.4514 15.872L35.4136 16.8892C35.9752 16.9706 36.1985 17.6623 35.7925 18.0624L30.9007 22.8364C30.7383 22.9924 30.6639 23.223 30.7045 23.4467L31.8614 30.1941C31.9562 30.757 31.3675 31.1842 30.8668 30.9197L24.6353 27.6376C24.5474 27.5901 24.4459 27.5901 24.3579 27.6376L18.1264 30.9197C17.6257 31.1842 17.0371 30.757 17.1318 30.1941L18.3294 23.2433C18.3429 23.1484 18.3158 23.0466 18.2414 22.9788L13.2075 18.0556C12.8015 17.6555 13.0248 16.9638 13.5864 16.8824L20.5486 15.8652C20.6434 15.8517 20.7313 15.7906 20.7719 15.7025L23.8843 9.37552C24.1346 8.8737 24.8654 8.8737 25.1157 9.3823Z" fill="white"/>
</svg>
