<svg width="50" height="50" viewBox="0 0 50 50" fill="none" xmlns="http://www.w3.org/2000/svg">
<path d="M0 13C0 5.8203 5.8203 0 13 0H37C44.1797 0 50 5.8203 50 13V37C50 44.1797 44.1797 50 37 50H13C5.8203 50 0 44.1797 0 37V13Z" fill="white"/>
<path fill-rule="evenodd" clip-rule="evenodd" d="M37 1H13C6.37258 1 1 6.37258 1 13V37C1 43.6274 6.37258 49 13 49H37C43.6274 49 49 43.6274 49 37V13C49 6.37258 43.6274 1 37 1ZM13 0C5.8203 0 0 5.8203 0 13V37C0 44.1797 5.8203 50 13 50H37C44.1797 50 50 44.1797 50 37V13C50 5.8203 44.1797 0 37 0H13Z" fill="#CD2D45"/>
<path d="M20.8703 39.459C21.1993 39.214 21.3673 38.885 21.3673 38.458C21.3673 38.073 21.2273 37.751 20.9473 37.492C20.6743 37.233 20.3313 37.1 19.9323 37.1H17.9863V42H20.0863C20.4993 42 20.8423 41.867 21.1293 41.601C21.4163 41.335 21.5563 40.999 21.5563 40.6C21.5563 40.089 21.2973 39.683 20.8703 39.459ZM19.9323 37.856C20.2893 37.856 20.5623 38.136 20.5623 38.5C20.5623 38.864 20.2893 39.144 19.9323 39.144H18.7913V37.856H19.9323ZM18.7913 41.244V39.872H20.0863C20.4573 39.872 20.7513 40.173 20.7513 40.558C20.7513 40.943 20.4573 41.244 20.0863 41.244H18.7913Z" fill="#CD2D45"/>
<path d="M25.625 40.572C25.646 40.439 25.653 40.334 25.653 40.257C25.653 39.746 25.485 39.305 25.156 38.948C24.827 38.591 24.407 38.409 23.896 38.409C23.357 38.409 22.909 38.584 22.566 38.941C22.223 39.291 22.048 39.725 22.048 40.25C22.048 40.782 22.223 41.223 22.573 41.573C22.923 41.916 23.385 42.091 23.952 42.091C24.631 42.091 25.142 41.839 25.485 41.328L24.862 40.964C24.659 41.251 24.358 41.398 23.959 41.398C23.378 41.398 22.951 41.104 22.839 40.572H25.625ZM22.832 39.956C22.937 39.424 23.329 39.095 23.889 39.095C24.386 39.095 24.785 39.389 24.89 39.956H22.832Z" fill="#CD2D45"/>
<path d="M26.8605 39.466C26.8605 39.221 27.0845 39.095 27.3715 39.095C27.6865 39.095 27.9105 39.228 28.0295 39.494L28.6665 39.137C28.4215 38.682 27.9525 38.409 27.3715 38.409C27.0075 38.409 26.6995 38.507 26.4545 38.703C26.2095 38.899 26.0905 39.158 26.0905 39.48C26.0765 40.215 26.7835 40.425 27.3085 40.558C27.6795 40.649 27.9735 40.782 27.9735 41.006C27.9735 41.265 27.7775 41.398 27.3785 41.398C26.9795 41.398 26.7205 41.23 26.6015 40.894L25.9505 41.272C26.1745 41.783 26.6855 42.091 27.3785 42.091C27.7705 42.091 28.0925 41.993 28.3515 41.804C28.6105 41.615 28.7435 41.349 28.7435 41.013C28.7575 40.264 28.0575 40.04 27.5185 39.921C27.1545 39.816 26.8605 39.697 26.8605 39.466Z" fill="#CD2D45"/>
<path d="M31.2243 38.5H30.3563V37.52L29.6003 37.744V38.5H28.9563V39.228H29.6003V40.908C29.6003 41.825 30.0693 42.14 31.2243 42V41.321C30.6503 41.349 30.3563 41.356 30.3563 40.908V39.228H31.2243V38.5Z" fill="#CD2D45"/>
<path d="M25.1157 9.3823L28.2281 15.7093C28.2687 15.7974 28.3566 15.8585 28.4514 15.872L35.4136 16.8892C35.9752 16.9706 36.1985 17.6623 35.7925 18.0624L30.9007 22.8364C30.7383 22.9924 30.6639 23.223 30.7045 23.4467L31.8614 30.1941C31.9562 30.757 31.3675 31.1842 30.8668 30.9197L24.6353 27.6376C24.5474 27.5901 24.4459 27.5901 24.3579 27.6376L18.1264 30.9197C17.6257 31.1842 17.0371 30.757 17.1318 30.1941L18.3294 23.2433C18.3429 23.1484 18.3158 23.0466 18.2414 22.9788L13.2075 18.0556C12.8015 17.6555 13.0248 16.9638 13.5864 16.8824L20.5486 15.8652C20.6434 15.8517 20.7313 15.7906 20.7719 15.7025L23.8843 9.37552C24.1346 8.8737 24.8654 8.8737 25.1157 9.3823Z" fill="#CD2D45"/>
</svg>
