<svg width="50" height="50" viewBox="0 0 50 50" fill="none" xmlns="http://www.w3.org/2000/svg">
<rect x="0.5" y="0.5" width="49" height="49" rx="12.5" fill="white" stroke="#F19D70"/>
<path d="M16.7937 42.078C17.1777 42.078 17.5317 41.988 17.8497 41.808C18.1737 41.622 18.4257 41.376 18.5997 41.07L17.9997 40.728C17.7837 41.142 17.3217 41.406 16.7937 41.406C16.3437 41.406 15.9837 41.262 15.7017 40.98C15.4257 40.698 15.2877 40.338 15.2877 39.9C15.2877 39.462 15.4257 39.102 15.7017 38.82C15.9837 38.538 16.3437 38.394 16.7937 38.394C17.3217 38.394 17.7777 38.658 17.9997 39.072L18.5997 38.724C18.2397 38.106 17.5557 37.722 16.7937 37.722C16.1637 37.722 15.6357 37.932 15.2217 38.352C14.8077 38.766 14.5977 39.282 14.5977 39.9C14.5977 40.518 14.8077 41.034 15.2217 41.454C15.6357 41.868 16.1637 42.078 16.7937 42.078ZM20.7382 38.922C20.3122 38.922 20.0062 39.078 19.8082 39.384V37.8H19.1602V42H19.8082V40.392C19.8082 39.81 20.1142 39.528 20.5702 39.528C20.9842 39.528 21.2422 39.774 21.2422 40.224V42H21.8902V40.158C21.8902 39.39 21.4282 38.922 20.7382 38.922ZM23.2 38.43C23.368 38.262 23.368 38.01 23.206 37.848C23.044 37.68 22.78 37.68 22.618 37.848C22.456 38.01 22.456 38.262 22.618 38.43C22.786 38.592 23.038 38.592 23.2 38.43ZM23.236 42V39H22.588V42H23.236ZM25.4044 42.078C25.9864 42.078 26.4964 41.778 26.7544 41.298L26.1964 40.98C26.0524 41.262 25.7524 41.442 25.3984 41.442C25.1344 41.442 24.9124 41.352 24.7324 41.172C24.5584 40.992 24.4684 40.77 24.4684 40.5C24.4684 40.23 24.5584 40.008 24.7324 39.828C24.9124 39.648 25.1344 39.558 25.3984 39.558C25.7584 39.558 26.0464 39.732 26.1844 40.02L26.7424 39.696C26.5024 39.222 25.9864 38.922 25.4044 38.922C24.9544 38.922 24.5764 39.072 24.2704 39.378C23.9704 39.678 23.8204 40.05 23.8204 40.5C23.8204 40.944 23.9704 41.316 24.2704 41.622C24.5764 41.928 24.9544 42.078 25.4044 42.078ZM28.5067 40.47L29.8267 39H29.0347L27.8707 40.326V37.8H27.2227V42H27.8707V40.614L29.1007 42H29.8747L28.5067 40.47ZM32.9684 40.776C32.9864 40.662 32.9924 40.572 32.9924 40.506C32.9924 40.068 32.8484 39.69 32.5664 39.384C32.2844 39.078 31.9244 38.922 31.4864 38.922C31.0244 38.922 30.6404 39.072 30.3464 39.378C30.0524 39.678 29.9024 40.05 29.9024 40.5C29.9024 40.956 30.0524 41.334 30.3524 41.634C30.6524 41.928 31.0484 42.078 31.5344 42.078C32.1164 42.078 32.5544 41.862 32.8484 41.424L32.3144 41.112C32.1404 41.358 31.8824 41.484 31.5404 41.484C31.0424 41.484 30.6764 41.232 30.5804 40.776H32.9684ZM30.5744 40.248C30.6644 39.792 31.0004 39.51 31.4804 39.51C31.9064 39.51 32.2484 39.762 32.3384 40.248H30.5744ZM35.1406 38.922C34.7146 38.922 34.4086 39.078 34.2106 39.384V39H33.5626V42H34.2106V40.392C34.2106 39.81 34.5166 39.528 34.9726 39.528C35.3866 39.528 35.6446 39.774 35.6446 40.224V42H36.2926V40.158C36.2926 39.39 35.8306 38.922 35.1406 38.922Z" fill="#F19D70"/>
<path d="M16.1218 26.7731C16.1159 26.7778 16.1089 26.7859 16.1042 26.7859C16.0983 26.7859 16.0936 26.7766 16.0889 26.7719C16.0948 26.7673 16.1006 26.7603 16.1053 26.7603C16.1112 26.7603 16.1159 26.7684 16.1206 26.7743L16.1218 26.7731Z" fill="#E40200"/>
<path d="M35.0381 14.6017C35.0229 14.5879 35.0008 14.5783 34.9953 14.5617C34.8711 14.2526 34.7358 14.1919 34.4198 14.3092C33.5973 14.6169 32.7748 14.9247 31.9536 15.2366C31.8349 15.2807 31.719 15.3014 31.5934 15.3014C28.2936 15.3001 24.9925 15.2987 21.6927 15.3056C21.5064 15.3056 21.4153 15.2476 21.3601 15.0806C21.1683 14.5024 20.9834 13.92 20.7722 13.3486C20.5362 12.7096 20.2285 12.1093 19.7013 11.6511C19.6682 11.6221 19.6392 11.5835 19.6005 11.5683C19.2445 11.4372 19.2252 11.1598 19.2417 10.8355C19.2638 10.3925 19.2376 9.94673 19.2514 9.50235C19.2583 9.28844 19.2058 9.12145 19.0278 9H18.0217C17.6712 9.10627 17.38 9.28568 17.2323 9.64036C17.2061 9.70384 17.1564 9.69832 17.1067 9.70108C16.6858 9.73006 16.3808 9.93845 16.1931 10.3138C16.1614 10.3773 16.1283 10.3966 16.0634 10.4022C15.608 10.4449 15.2809 10.6713 15.1291 11.1074C14.9676 11.5697 15.1319 11.9644 15.4299 12.3163C15.5086 12.4088 15.608 12.4888 15.7087 12.5578C15.7791 12.6061 15.8026 12.6503 15.7901 12.7359C15.7763 12.8325 15.7211 12.8435 15.6425 12.8587C14.7413 13.0326 14.2155 13.5874 14.0154 14.4706C13.9505 14.7549 14.0954 14.944 14.3866 14.9495C14.7054 14.955 15.0242 14.9495 15.3899 14.9495C15.303 15.0682 15.2354 15.1565 15.1705 15.2476C14.7372 15.8535 14.9552 16.6304 15.6494 16.8996C15.786 16.9534 15.775 17.0389 15.7791 17.1356C15.8274 18.1858 15.9696 19.2236 16.2263 20.2435C16.6858 22.0679 17.478 23.7171 18.8346 25.0531C20.2464 26.4442 21.9508 27.2419 23.9119 27.4999C24.0554 27.5193 24.0803 27.5482 24.0265 27.6849C23.8829 28.0423 23.7504 28.4039 23.6207 28.7668C23.5848 28.8676 23.5434 28.8952 23.4316 28.8704C23.0204 28.7793 22.605 28.7034 22.1909 28.6206C21.9398 28.5709 21.8197 28.6206 21.7065 28.84C21.5961 29.0525 21.4871 29.2678 21.3877 29.4845C21.2939 29.6887 21.3601 29.8737 21.5465 29.9634C21.7217 30.0476 21.897 29.9841 22.0074 29.7991C22.0143 29.7867 22.0226 29.7743 22.0295 29.7619C22.1794 29.4849 22.4072 29.3764 22.7126 29.4362C23.611 29.617 24.5095 29.7978 25.4079 29.9786C25.6536 30.0282 25.8399 29.9261 25.8868 29.7205C25.9323 29.5162 25.8012 29.3451 25.5542 29.2954C25.1761 29.2181 24.7979 29.1422 24.4198 29.0718C24.3011 29.0498 24.2693 29.0139 24.3176 28.8897C24.4736 28.4977 24.6199 28.103 24.7607 27.7056C24.8021 27.5869 24.86 27.5386 24.9911 27.5317C25.9213 27.4806 26.8197 27.2888 27.6768 26.9148C29.1245 26.2827 30.2258 25.2518 31.1007 23.9587C31.8487 22.8532 32.3676 21.6401 32.7554 20.3677C32.8051 20.2062 32.8796 20.1248 33.0425 20.0641C33.8623 19.7646 34.1824 19.1988 34.0375 18.3417C34.0251 18.2714 34.0072 18.2065 34.072 18.1403C34.6268 17.5868 34.8573 16.883 34.9787 16.1295C34.9884 16.0729 34.9567 15.9929 35.0381 15.9583C35.0381 15.5057 35.0381 15.0544 35.0381 14.6017ZM32.0337 20.2932C32.0281 20.3346 32.0281 20.3498 32.0226 20.3636C31.9785 20.5016 31.9357 20.641 31.886 20.7776C31.3008 22.4226 30.499 23.9352 29.1783 25.1193C27.7803 26.3724 26.1145 26.9865 24.2624 26.8209C21.4554 26.5698 19.3218 25.1635 17.9279 22.6986C16.9342 20.9418 16.5768 19.0125 16.4747 17.0224C16.4705 16.9327 16.5064 16.9023 16.5823 16.8651C17.2627 16.5338 17.4407 15.8286 17.0019 15.2283C16.8569 15.0309 16.7245 14.8708 16.7769 14.5659C16.8514 14.1339 16.7948 13.6798 16.7962 13.2355C16.7962 13.1195 16.7741 12.9898 16.6748 12.9484C16.407 12.8366 16.5271 12.6834 16.6058 12.5289C16.672 12.3977 16.7645 12.286 16.8777 12.1907C17.547 11.6221 18.7946 11.6898 19.3935 12.3287C19.682 12.6365 19.8669 13.0064 20.0311 13.3886C20.3182 14.0566 20.47 14.7742 20.7584 15.4408C20.8026 15.5429 20.735 15.5485 20.6715 15.5664C20.4258 15.6327 20.1871 15.7196 19.9566 15.83C19.3411 16.1267 18.8567 16.5463 18.698 17.2446C18.5765 17.7787 18.6952 18.2865 18.9202 18.7723C19.3687 19.7411 20.0449 20.5388 20.8316 21.2427C22.3938 22.6393 24.2072 23.1665 26.2732 22.7469C27.841 22.4282 29.1976 21.676 30.43 20.6796C30.5087 20.6161 30.5735 20.5347 30.6826 20.5167C31.1269 20.445 31.57 20.3718 32.0323 20.2959L32.0337 20.2932ZM24.9566 22.1811C24.5688 22.1853 24.1852 22.1425 23.8084 22.0555C22.5925 21.7781 21.6141 21.1074 20.7791 20.2104C20.2575 19.6487 19.7744 19.0539 19.497 18.3266C19.1755 17.4833 19.3963 16.9092 20.1954 16.4938C20.7198 16.2219 21.2898 16.106 21.8721 16.0467C22.6436 15.968 23.4178 16.0343 24.1893 15.9956C24.6102 15.9749 24.9621 16.0839 25.3099 16.3144C26.9646 17.4116 28.4151 18.7502 29.8518 20.1069C29.9387 20.1897 29.8863 20.2159 29.8255 20.2642C29.5385 20.4891 29.2418 20.7003 28.9326 20.8921C27.7126 21.6415 26.4181 22.1701 24.9594 22.1825L24.9566 22.1811ZM26.1035 16.0025C27.9058 16.0025 29.6475 16.0039 31.3905 15.9998C31.5272 15.9998 31.5382 16.0563 31.541 16.1667C31.5631 17.413 31.1325 18.517 30.4825 19.5534C30.4065 19.6735 30.361 19.6294 30.2892 19.5603C30.0105 19.2926 29.7317 19.0249 29.4474 18.764C28.3972 17.798 27.3207 16.8637 26.1048 16.0025H26.1035ZM32.2338 16.36C32.2338 16.2357 32.2393 16.1115 32.231 15.9887C32.2255 15.9087 32.2545 15.8714 32.3262 15.8452C32.9528 15.6119 33.578 15.3787 34.2018 15.1413C34.3163 15.0986 34.3425 15.1372 34.3356 15.2448C34.3191 15.4767 34.3218 15.7113 34.2915 15.9418C34.199 16.6649 33.992 17.3357 33.3917 17.8173C33.244 17.936 33.2178 18.0837 33.284 18.2672C33.5172 18.9145 33.3268 19.2885 32.6588 19.4582C32.2724 19.5562 31.8736 19.6073 31.4789 19.6749C31.4168 19.6859 31.3215 19.6956 31.2912 19.6611C31.2332 19.5949 31.3174 19.5314 31.3505 19.472C31.8846 18.5032 32.2241 17.4778 32.2324 16.36H32.2338ZM18.5448 10.4063C18.5448 10.5816 18.5337 10.7568 18.5475 10.9293C18.56 11.0798 18.5199 11.1157 18.3626 11.1101C17.5221 11.0839 16.7355 11.2164 16.1642 11.923C16.1214 11.9768 16.0924 11.9713 16.0399 11.9368C15.8688 11.8236 15.7294 11.52 15.7874 11.3475C15.8647 11.1143 16.0565 11.0894 16.2649 11.1005C16.3008 11.1019 16.338 11.1005 16.3739 11.1005C16.6458 11.0963 16.7521 11.0053 16.7962 10.7375C16.8335 10.5126 16.9494 10.4091 17.1785 10.4022C17.2724 10.3994 17.3676 10.4035 17.4628 10.4022C17.6919 10.3953 17.8078 10.2904 17.8451 10.0668C17.852 10.024 17.8547 9.97985 17.8685 9.93983C17.9417 9.73558 18.1653 9.6376 18.462 9.70798C18.6345 9.74938 18.5255 9.91085 18.5406 10.0144C18.56 10.1427 18.5448 10.2752 18.5448 10.4063ZM14.8255 14.2512C15.0145 13.851 15.3182 13.6426 15.7156 13.5598C16.0938 13.4797 16.0951 13.4825 16.0951 13.8634C16.0951 13.9586 16.0924 14.0525 16.0951 14.1477C16.0979 14.2181 16.0813 14.2526 15.9999 14.2526C15.6163 14.2498 15.2326 14.2512 14.8241 14.2512H14.8255ZM16.08 16.2689C15.9088 16.2647 15.7653 16.2426 15.6935 16.0853C15.6245 15.9335 15.6494 15.7914 15.7432 15.6534C16.0813 15.1551 16.0786 15.1551 16.4098 15.6023C16.5106 15.7375 16.5865 15.8742 16.5009 16.0425C16.4098 16.2233 16.2428 16.262 16.08 16.2689Z" fill="#F19D70"/>
<path d="M18.1943 13.1861C18.1847 12.9971 18.0232 12.848 17.8341 12.8535C17.6451 12.8604 17.4933 13.0192 17.496 13.2082C17.5002 13.4042 17.6727 13.5643 17.8673 13.5505C18.0549 13.5381 18.2026 13.3725 18.193 13.1848L18.1943 13.1861Z" fill="#F19D70"/>
</svg>
