<svg width="50" height="50" viewBox="0 0 50 50" fill="none" xmlns="http://www.w3.org/2000/svg">
<rect x="0.5" y="0.5" width="49" height="49" rx="12.5" fill="#F19D70" stroke="#F19D70"/>
<path d="M16.7937 42.078C17.1777 42.078 17.5317 41.988 17.8497 41.808C18.1737 41.622 18.4257 41.376 18.5997 41.07L17.9997 40.728C17.7837 41.142 17.3217 41.406 16.7937 41.406C16.3437 41.406 15.9837 41.262 15.7017 40.98C15.4257 40.698 15.2877 40.338 15.2877 39.9C15.2877 39.462 15.4257 39.102 15.7017 38.82C15.9837 38.538 16.3437 38.394 16.7937 38.394C17.3217 38.394 17.7777 38.658 17.9997 39.072L18.5997 38.724C18.2397 38.106 17.5557 37.722 16.7937 37.722C16.1637 37.722 15.6357 37.932 15.2217 38.352C14.8077 38.766 14.5977 39.282 14.5977 39.9C14.5977 40.518 14.8077 41.034 15.2217 41.454C15.6357 41.868 16.1637 42.078 16.7937 42.078ZM20.7382 38.922C20.3122 38.922 20.0062 39.078 19.8082 39.384V37.8H19.1602V42H19.8082V40.392C19.8082 39.81 20.1142 39.528 20.5702 39.528C20.9842 39.528 21.2422 39.774 21.2422 40.224V42H21.8902V40.158C21.8902 39.39 21.4282 38.922 20.7382 38.922ZM23.2 38.43C23.368 38.262 23.368 38.01 23.206 37.848C23.044 37.68 22.78 37.68 22.618 37.848C22.456 38.01 22.456 38.262 22.618 38.43C22.786 38.592 23.038 38.592 23.2 38.43ZM23.236 42V39H22.588V42H23.236ZM25.4044 42.078C25.9864 42.078 26.4964 41.778 26.7544 41.298L26.1964 40.98C26.0524 41.262 25.7524 41.442 25.3984 41.442C25.1344 41.442 24.9124 41.352 24.7324 41.172C24.5584 40.992 24.4684 40.77 24.4684 40.5C24.4684 40.23 24.5584 40.008 24.7324 39.828C24.9124 39.648 25.1344 39.558 25.3984 39.558C25.7584 39.558 26.0464 39.732 26.1844 40.02L26.7424 39.696C26.5024 39.222 25.9864 38.922 25.4044 38.922C24.9544 38.922 24.5764 39.072 24.2704 39.378C23.9704 39.678 23.8204 40.05 23.8204 40.5C23.8204 40.944 23.9704 41.316 24.2704 41.622C24.5764 41.928 24.9544 42.078 25.4044 42.078ZM28.5067 40.47L29.8267 39H29.0347L27.8707 40.326V37.8H27.2227V42H27.8707V40.614L29.1007 42H29.8747L28.5067 40.47ZM32.9684 40.776C32.9864 40.662 32.9924 40.572 32.9924 40.506C32.9924 40.068 32.8484 39.69 32.5664 39.384C32.2844 39.078 31.9244 38.922 31.4864 38.922C31.0244 38.922 30.6404 39.072 30.3464 39.378C30.0524 39.678 29.9024 40.05 29.9024 40.5C29.9024 40.956 30.0524 41.334 30.3524 41.634C30.6524 41.928 31.0484 42.078 31.5344 42.078C32.1164 42.078 32.5544 41.862 32.8484 41.424L32.3144 41.112C32.1404 41.358 31.8824 41.484 31.5404 41.484C31.0424 41.484 30.6764 41.232 30.5804 40.776H32.9684ZM30.5744 40.248C30.6644 39.792 31.0004 39.51 31.4804 39.51C31.9064 39.51 32.2484 39.762 32.3384 40.248H30.5744ZM35.1406 38.922C34.7146 38.922 34.4086 39.078 34.2106 39.384V39H33.5626V42H34.2106V40.392C34.2106 39.81 34.5166 39.528 34.9726 39.528C35.3866 39.528 35.6446 39.774 35.6446 40.224V42H36.2926V40.158C36.2926 39.39 35.8306 38.922 35.1406 38.922Z" fill="white"/>
<path d="M33.4234 19.9829C32.8802 20.0687 32.3798 20.1482 31.8794 20.2251C31.7646 20.243 31.6952 20.3238 31.6138 20.3879C30.2193 21.476 28.6833 22.2951 26.9071 22.6411C24.6878 23.073 22.7061 22.5757 20.9793 21.1774C19.9971 20.3828 19.1697 19.4599 18.6199 18.3307C18.4198 17.9193 18.2983 17.4861 18.3263 17.0273C18.3797 16.1108 18.9482 15.5533 19.7529 15.1675C20.0171 15.0406 20.2947 14.9471 20.5789 14.8689C20.6537 14.8484 20.7524 14.8548 20.6937 14.724C20.3854 14.0447 20.2213 13.3167 19.9291 12.6323C19.7609 12.2375 19.5727 11.8543 19.2978 11.5159C18.6293 10.6918 17.208 10.5303 16.354 11.1814C16.1978 11.3006 16.0737 11.448 15.9883 11.621C15.9149 11.771 15.7988 11.9235 16.0777 12.0196C16.1938 12.0594 16.2299 12.1965 16.2299 12.3234C16.2299 12.813 16.2926 13.3129 16.2085 13.7884C16.1485 14.1204 16.3046 14.2921 16.4661 14.5049C16.9518 15.1432 16.7516 15.925 16.0083 16.2659C15.9189 16.3069 15.8615 16.3351 15.8682 16.4479C15.999 18.7986 16.4634 21.0659 17.8126 23.0807C19.4193 25.4762 21.7386 26.8361 24.6785 27.0553C27.0072 27.2296 29.0276 26.4132 30.657 24.7816C32.0102 23.4255 32.8242 21.7785 33.4287 19.9829H33.4234ZM17.0172 12.3042C17.0185 12.0991 17.1947 11.9312 17.4069 11.9299C17.6297 11.9299 17.8112 12.1094 17.8032 12.3221C17.7952 12.5259 17.6137 12.69 17.4002 12.6848C17.188 12.6797 17.0145 12.508 17.0159 12.3042H17.0172Z" fill="white"/>
<path d="M31.0335 19.862C29.34 18.3419 27.6692 16.8256 25.7249 15.6234C25.4073 15.4273 25.0857 15.3158 24.6947 15.3324C23.7765 15.3709 22.8544 15.2966 21.9376 15.3888C21.1569 15.467 20.3976 15.6208 19.7357 16.0605C19.242 16.3886 19.0338 16.8359 19.1379 17.4088C19.1726 17.6036 19.2233 17.7972 19.3194 17.9702C20.4336 19.9889 22.0083 21.4808 24.4238 21.9473C25.6021 22.1755 26.7591 21.9832 27.8814 21.5923C29.0237 21.1937 30.058 20.6092 31.0361 19.8633L31.0335 19.862Z" fill="white"/>
<path d="M26.7561 15.3633C28.4135 16.5028 29.9148 17.7858 31.3614 19.1303C31.5309 19.2879 31.6016 19.2751 31.7204 19.0854C32.4116 17.9883 32.872 16.827 32.8467 15.521C32.844 15.4095 32.8467 15.3339 32.6839 15.3339C30.7302 15.3403 28.7751 15.3377 26.8215 15.339C26.8081 15.339 26.7934 15.3492 26.7561 15.3633Z" fill="white"/>
<path d="M35.9892 14.3843C35.7703 14.4099 35.5822 14.5074 35.3847 14.5778C34.8549 14.7663 34.3277 14.9611 33.7966 15.1444C33.6698 15.1879 33.6205 15.2392 33.6271 15.3763C33.6979 16.7157 33.2962 17.941 32.6303 19.101C32.5956 19.1599 32.5142 19.2202 32.5582 19.2894C32.5996 19.3535 32.6917 19.3291 32.7611 19.3176C33.2215 19.2407 33.6885 19.1856 34.1396 19.0741C34.8602 18.8959 35.0737 18.4781 34.8188 17.8077C34.7454 17.6155 34.7521 17.4476 34.9229 17.3168C35.5942 16.8029 35.8357 16.0877 35.9465 15.3135C35.9905 15.0098 36.0212 14.7035 35.9878 14.3843H35.9892Z" fill="white"/>
<path d="M24.6509 29.4558C24.8391 28.9739 25.0152 28.5086 25.2034 28.0485C25.2661 27.896 25.2715 27.8114 25.0633 27.8434C25.0473 27.846 25.0299 27.8434 25.0139 27.8434C24.8257 27.8434 24.5815 27.7729 24.4654 27.8601C24.3267 27.9652 24.2946 28.2036 24.2226 28.3856C24.1198 28.6419 24.017 28.8995 23.9236 29.1597C23.8849 29.2661 23.8449 29.3046 23.7128 29.2764C23.2484 29.1764 22.78 29.0956 22.3142 29.0059C22.0193 28.9495 21.8912 29.0046 21.7551 29.2597C21.639 29.4763 21.5229 29.6942 21.4148 29.9147C21.2987 30.1505 21.3654 30.3568 21.5789 30.4581C21.7818 30.5542 21.9793 30.4786 22.1141 30.2671C22.2142 30.112 22.2235 29.8583 22.4143 29.8134C22.5798 29.7737 22.78 29.8698 22.9641 29.9057C23.961 30.0979 24.9579 30.2902 25.9547 30.4812C26.223 30.5324 26.4378 30.4068 26.4792 30.18C26.5179 29.9659 26.3724 29.7903 26.1069 29.7378C25.6264 29.6429 25.1447 29.5506 24.6496 29.4545L24.6509 29.4558Z" fill="white"/>
<path d="M18.1997 9.27912C18.1997 9.13685 18.2157 8.9933 18.1944 8.85487C18.177 8.74209 18.2998 8.56777 18.105 8.52291C17.77 8.44601 17.5191 8.55239 17.4364 8.77413C17.4204 8.81771 17.4177 8.86641 17.4097 8.91255C17.367 9.15608 17.2362 9.26758 16.9787 9.27656C16.8719 9.2804 16.7652 9.27399 16.6584 9.27784C16.4008 9.28553 16.2701 9.39832 16.2274 9.64184C16.1767 9.93279 16.0579 10.0315 15.751 10.0353C15.7096 10.0353 15.6682 10.0379 15.6282 10.0353C15.3933 10.0225 15.1771 10.0507 15.0904 10.3032C15.0263 10.489 15.1825 10.8184 15.376 10.9415C15.4347 10.9787 15.468 10.9838 15.5161 10.9261C16.1593 10.1596 17.0481 10.0161 17.9956 10.0456C18.1744 10.0507 18.2171 10.0123 18.2037 9.84948C18.1877 9.66107 18.1997 9.47137 18.1997 9.28296V9.27912Z" fill="white"/>
<path d="M13.9998 13.4434C14.4536 13.4434 14.8699 13.4396 15.2863 13.446C15.3984 13.4473 15.4518 13.4242 15.4397 13.305C15.4291 13.2037 15.4371 13.1012 15.4371 12.9987C15.4371 12.6295 15.4371 12.627 15.0621 12.6859C14.591 12.7603 14.236 12.9923 13.9998 13.4421V13.4434Z" fill="white"/>
<path d="M15.4231 15.6284C15.6113 15.6182 15.7981 15.5733 15.8968 15.3772C15.9889 15.1952 15.9022 15.0478 15.7887 14.903C15.4151 14.4249 15.4178 14.4249 15.0428 14.9542C14.932 15.1093 14.9013 15.2708 14.9894 15.4413C15.0748 15.6066 15.2389 15.6246 15.4231 15.6284Z" fill="white"/>
</svg>
