<svg width="50" height="50" viewBox="0 0 50 50" fill="none" xmlns="http://www.w3.org/2000/svg">
<rect x="0.5" y="0.5" width="49" height="49" rx="12.5" fill="#FFD707" stroke="#FFD707"/>
<path d="M10.863 39.828V40.446H12.267C12.141 41.028 11.655 41.406 10.911 41.406C10.449 41.406 10.071 41.262 9.78303 40.98C9.50103 40.698 9.35703 40.338 9.35703 39.906C9.35703 39.474 9.50103 39.114 9.78303 38.826C10.065 38.538 10.431 38.394 10.869 38.394C11.415 38.394 11.883 38.658 12.105 39.06L12.699 38.718C12.339 38.112 11.655 37.722 10.869 37.722C10.245 37.722 9.72303 37.932 9.29703 38.358C8.87703 38.778 8.66703 39.294 8.66703 39.9C8.66703 40.512 8.87703 41.028 9.29703 41.448C9.72303 41.868 10.257 42.078 10.905 42.078C11.517 42.078 12.015 41.898 12.393 41.532C12.771 41.166 12.963 40.692 12.963 40.116V39.828H10.863ZM14.1998 42V37.62H13.5518V42H14.1998ZM16.9742 40.608C16.9742 41.19 16.6682 41.472 16.2122 41.472C15.7982 41.472 15.5402 41.226 15.5402 40.776V39H14.8922V40.842C14.8922 41.61 15.3542 42.078 16.0442 42.078C16.4702 42.078 16.7762 41.922 16.9742 41.616V42H17.6222V39H16.9742V40.608ZM20.054 39H19.31V38.16L18.662 38.352V39H18.11V39.624H18.662V41.064C18.662 41.85 19.064 42.12 20.054 42V41.418C19.562 41.442 19.31 41.448 19.31 41.064V39.624H20.054V39ZM23.4166 40.776C23.4346 40.662 23.4406 40.572 23.4406 40.506C23.4406 40.068 23.2966 39.69 23.0146 39.384C22.7326 39.078 22.3726 38.922 21.9346 38.922C21.4726 38.922 21.0886 39.072 20.7946 39.378C20.5006 39.678 20.3506 40.05 20.3506 40.5C20.3506 40.956 20.5006 41.334 20.8006 41.634C21.1006 41.928 21.4966 42.078 21.9826 42.078C22.5646 42.078 23.0026 41.862 23.2966 41.424L22.7626 41.112C22.5886 41.358 22.3306 41.484 21.9886 41.484C21.4906 41.484 21.1246 41.232 21.0286 40.776H23.4166ZM21.0226 40.248C21.1126 39.792 21.4486 39.51 21.9286 39.51C22.3546 39.51 22.6966 39.762 22.7866 40.248H21.0226ZM25.5888 38.922C25.1628 38.922 24.8568 39.078 24.6588 39.384V39H24.0108V42H24.6588V40.392C24.6588 39.81 24.9648 39.528 25.4208 39.528C25.8348 39.528 26.0928 39.774 26.0928 40.224V42H26.7408V40.158C26.7408 39.39 26.2788 38.922 25.5888 38.922ZM31.4405 37.8H28.9805V42H29.6705V40.296H31.3805V39.636H29.6705V38.46H31.4405V37.8ZM32.692 39H32.044V42H32.692V40.488C32.692 40.182 32.782 39.96 32.968 39.828C33.154 39.69 33.37 39.63 33.616 39.648V38.946C33.166 38.946 32.854 39.132 32.692 39.504V39ZM36.8522 40.776C36.8702 40.662 36.8762 40.572 36.8762 40.506C36.8762 40.068 36.7322 39.69 36.4502 39.384C36.1682 39.078 35.8082 38.922 35.3702 38.922C34.9082 38.922 34.5242 39.072 34.2302 39.378C33.9362 39.678 33.7862 40.05 33.7862 40.5C33.7862 40.956 33.9362 41.334 34.2362 41.634C34.5362 41.928 34.9322 42.078 35.4182 42.078C36.0002 42.078 36.4382 41.862 36.7322 41.424L36.1982 41.112C36.0242 41.358 35.7662 41.484 35.4242 41.484C34.9262 41.484 34.5602 41.232 34.4642 40.776H36.8522ZM34.4582 40.248C34.5482 39.792 34.8842 39.51 35.3642 39.51C35.7902 39.51 36.1322 39.762 36.2222 40.248H34.4582ZM40.3268 40.776C40.3448 40.662 40.3508 40.572 40.3508 40.506C40.3508 40.068 40.2068 39.69 39.9248 39.384C39.6428 39.078 39.2828 38.922 38.8448 38.922C38.3828 38.922 37.9988 39.072 37.7048 39.378C37.4108 39.678 37.2608 40.05 37.2608 40.5C37.2608 40.956 37.4108 41.334 37.7108 41.634C38.0108 41.928 38.4068 42.078 38.8928 42.078C39.4748 42.078 39.9128 41.862 40.2068 41.424L39.6728 41.112C39.4988 41.358 39.2408 41.484 38.8988 41.484C38.4008 41.484 38.0348 41.232 37.9388 40.776H40.3268ZM37.9328 40.248C38.0228 39.792 38.3588 39.51 38.8388 39.51C39.2648 39.51 39.6068 39.762 39.6968 40.248H37.9328Z" fill="white"/>
<path d="M25.6325 23.1925C25.6616 23.199 25.6894 23.2028 25.7185 23.2028C25.84 23.2028 25.9589 23.1408 26.0323 23.0386C26.0437 23.0218 26.0652 22.9933 26.0842 22.9636C27.6899 20.5438 29.9131 19.0061 32.6918 18.3944C32.9209 18.344 33.1878 18.1888 33.1587 17.7361C33.0638 16.2269 32.7399 14.6465 32.1427 12.7596C32.0845 12.5772 31.9832 12.4582 31.839 12.4078C31.6289 12.3328 31.4644 12.444 31.3759 12.5035C29.9878 13.4373 28.8363 14.3762 27.8532 15.3746C25.7628 17.4982 24.9188 20.0227 25.3427 22.8795C25.3655 23.0347 25.4819 23.1563 25.6325 23.1938V23.1925Z" fill="white"/>
<path d="M27.6809 14.3697C27.9314 14.1253 27.9871 13.8524 27.8466 13.5355C27.2342 12.1401 26.3927 10.7369 25.2742 9.24831C25.2185 9.17459 25.0882 9.00129 24.8579 9C24.6251 9 24.4909 9.17847 24.4479 9.23667C23.3218 10.733 22.4727 12.1491 21.8514 13.5679C21.7249 13.8576 21.7768 14.1175 22.0083 14.3413C23.1446 15.4457 23.938 16.4946 24.5036 17.6443C24.5542 17.7478 24.6478 17.8228 24.7592 17.8486C24.787 17.8551 24.8149 17.8577 24.8427 17.8577C24.9262 17.8577 25.0072 17.8292 25.0743 17.7762L25.0869 17.7672C25.1173 17.7452 25.1894 17.696 25.2375 17.5977C25.7841 16.4842 26.561 15.4574 27.6809 14.3684V14.3697Z" fill="white"/>
<path d="M24.4306 29.1958C24.4306 28.9772 24.4306 28.7574 24.4306 28.5388C24.428 27.5469 24.2775 26.5873 23.9826 25.6884C22.7477 21.9108 19.5248 19.3643 15.5719 19.0435C15.5061 19.0384 15.3074 19.0216 15.1531 19.1703C15 19.3164 15.0025 19.5143 15.0038 19.5893C15.0076 19.8906 15.0076 20.1933 15.0063 20.5593V21.0455C14.9759 22.0026 15.0556 22.8794 15.2429 23.6515C16.216 27.6736 19.7501 30.6934 23.8384 30.9961C23.8548 30.9961 23.8789 30.9987 23.9092 30.9987C24.0054 30.9987 24.1572 30.9793 24.2787 30.8629C24.4382 30.7102 24.4356 30.5007 24.4344 30.4218C24.4293 30.0132 24.4293 29.6045 24.4306 29.1971V29.1958Z" fill="white"/>
<path d="M24.4397 22.6052C24.441 22.4009 24.4397 22.1953 24.4397 21.9896C24.4397 21.7168 24.4384 21.4426 24.4422 21.1697C24.4625 19.9217 24.1474 18.7099 23.5046 17.5692C23.0288 16.7234 22.4088 15.9229 21.6091 15.1236C20.6892 14.2028 19.6023 13.3389 18.1876 12.4051C18.0889 12.3405 17.9662 12.3249 17.8561 12.365C17.7448 12.4051 17.6587 12.4944 17.622 12.6095C16.9995 14.5274 16.6604 16.1427 16.5554 17.6908C16.5288 18.0826 16.7047 18.3219 17.0792 18.4034C19.2278 18.8702 21.0954 19.9618 22.629 21.6482C22.9959 22.0504 23.3452 22.516 23.7007 23.0682C23.7665 23.1704 23.8741 23.2351 23.993 23.2428C24.0019 23.2428 24.0095 23.2428 24.0183 23.2428C24.1284 23.2428 24.2334 23.1937 24.3056 23.1083C24.4675 22.9156 24.4498 22.7113 24.4422 22.6234V22.6052H24.4397Z" fill="white"/>
<path d="M34.7085 21.0988V20.5866C34.7072 20.2141 34.706 19.9089 34.711 19.6037C34.711 19.5197 34.7148 19.3205 34.5605 19.1731C34.4036 19.023 34.1998 19.0398 34.1315 19.045C32.3626 19.1886 30.7581 19.7654 29.3624 20.7612C27.2569 22.2627 25.9384 24.3113 25.4437 26.8487C25.2703 27.7398 25.2766 28.6321 25.2842 29.496C25.2868 29.8194 25.2893 30.153 25.2817 30.4776C25.2766 30.6846 25.3614 30.8087 25.4323 30.876C25.5411 30.9794 25.6651 31.0001 25.7625 31.0001C25.8043 31.0001 25.8422 30.9962 25.8713 30.9937C29.6636 30.616 32.4106 28.5907 34.0366 24.9747C34.692 23.5185 34.7642 22.0648 34.7098 21.0988H34.7085Z" fill="white"/>
</svg>
