<svg width="50" height="50" viewBox="0 0 50 50" fill="none" xmlns="http://www.w3.org/2000/svg">
<rect x="0.5" y="0.5" width="49" height="49" rx="12.5" fill="white" stroke="#FFD707"/>
<path d="M10.863 39.828V40.446H12.267C12.141 41.028 11.655 41.406 10.911 41.406C10.449 41.406 10.071 41.262 9.78303 40.98C9.50103 40.698 9.35703 40.338 9.35703 39.906C9.35703 39.474 9.50103 39.114 9.78303 38.826C10.065 38.538 10.431 38.394 10.869 38.394C11.415 38.394 11.883 38.658 12.105 39.06L12.699 38.718C12.339 38.112 11.655 37.722 10.869 37.722C10.245 37.722 9.72303 37.932 9.29703 38.358C8.87703 38.778 8.66703 39.294 8.66703 39.9C8.66703 40.512 8.87703 41.028 9.29703 41.448C9.72303 41.868 10.257 42.078 10.905 42.078C11.517 42.078 12.015 41.898 12.393 41.532C12.771 41.166 12.963 40.692 12.963 40.116V39.828H10.863ZM14.1998 42V37.62H13.5518V42H14.1998ZM16.9742 40.608C16.9742 41.19 16.6682 41.472 16.2122 41.472C15.7982 41.472 15.5402 41.226 15.5402 40.776V39H14.8922V40.842C14.8922 41.61 15.3542 42.078 16.0442 42.078C16.4702 42.078 16.7762 41.922 16.9742 41.616V42H17.6222V39H16.9742V40.608ZM20.054 39H19.31V38.16L18.662 38.352V39H18.11V39.624H18.662V41.064C18.662 41.85 19.064 42.12 20.054 42V41.418C19.562 41.442 19.31 41.448 19.31 41.064V39.624H20.054V39ZM23.4166 40.776C23.4346 40.662 23.4406 40.572 23.4406 40.506C23.4406 40.068 23.2966 39.69 23.0146 39.384C22.7326 39.078 22.3726 38.922 21.9346 38.922C21.4726 38.922 21.0886 39.072 20.7946 39.378C20.5006 39.678 20.3506 40.05 20.3506 40.5C20.3506 40.956 20.5006 41.334 20.8006 41.634C21.1006 41.928 21.4966 42.078 21.9826 42.078C22.5646 42.078 23.0026 41.862 23.2966 41.424L22.7626 41.112C22.5886 41.358 22.3306 41.484 21.9886 41.484C21.4906 41.484 21.1246 41.232 21.0286 40.776H23.4166ZM21.0226 40.248C21.1126 39.792 21.4486 39.51 21.9286 39.51C22.3546 39.51 22.6966 39.762 22.7866 40.248H21.0226ZM25.5888 38.922C25.1628 38.922 24.8568 39.078 24.6588 39.384V39H24.0108V42H24.6588V40.392C24.6588 39.81 24.9648 39.528 25.4208 39.528C25.8348 39.528 26.0928 39.774 26.0928 40.224V42H26.7408V40.158C26.7408 39.39 26.2788 38.922 25.5888 38.922ZM31.4405 37.8H28.9805V42H29.6705V40.296H31.3805V39.636H29.6705V38.46H31.4405V37.8ZM32.692 39H32.044V42H32.692V40.488C32.692 40.182 32.782 39.96 32.968 39.828C33.154 39.69 33.37 39.63 33.616 39.648V38.946C33.166 38.946 32.854 39.132 32.692 39.504V39ZM36.8522 40.776C36.8702 40.662 36.8762 40.572 36.8762 40.506C36.8762 40.068 36.7322 39.69 36.4502 39.384C36.1682 39.078 35.8082 38.922 35.3702 38.922C34.9082 38.922 34.5242 39.072 34.2302 39.378C33.9362 39.678 33.7862 40.05 33.7862 40.5C33.7862 40.956 33.9362 41.334 34.2362 41.634C34.5362 41.928 34.9322 42.078 35.4182 42.078C36.0002 42.078 36.4382 41.862 36.7322 41.424L36.1982 41.112C36.0242 41.358 35.7662 41.484 35.4242 41.484C34.9262 41.484 34.5602 41.232 34.4642 40.776H36.8522ZM34.4582 40.248C34.5482 39.792 34.8842 39.51 35.3642 39.51C35.7902 39.51 36.1322 39.762 36.2222 40.248H34.4582ZM40.3268 40.776C40.3448 40.662 40.3508 40.572 40.3508 40.506C40.3508 40.068 40.2068 39.69 39.9248 39.384C39.6428 39.078 39.2828 38.922 38.8448 38.922C38.3828 38.922 37.9988 39.072 37.7048 39.378C37.4108 39.678 37.2608 40.05 37.2608 40.5C37.2608 40.956 37.4108 41.334 37.7108 41.634C38.0108 41.928 38.4068 42.078 38.8928 42.078C39.4748 42.078 39.9128 41.862 40.2068 41.424L39.6728 41.112C39.4988 41.358 39.2408 41.484 38.8988 41.484C38.4008 41.484 38.0348 41.232 37.9388 40.776H40.3268ZM37.9328 40.248C38.0228 39.792 38.3588 39.51 38.8388 39.51C39.2648 39.51 39.6068 39.762 39.6968 40.248H37.9328Z" fill="#FFD707"/>
<path d="M25.6527 31.9988H23.2604C23.2364 31.9261 23.1717 31.9554 23.1249 31.9496C22.722 31.9015 22.3203 31.8452 21.9258 31.7514C19.4268 31.1544 17.405 29.8455 15.8809 27.8188C14.8245 26.4137 14.1865 24.8409 14.0534 23.0946C13.9491 21.7247 14.0343 20.3501 14.0091 18.979C14.0067 18.85 14.0774 18.8559 14.1674 18.8559C14.5511 18.8582 14.9336 18.8559 15.3173 18.8629C15.4241 18.8653 15.478 18.8571 15.4888 18.7269C15.5224 18.3164 15.562 17.9047 15.6231 17.4977C15.8941 15.6962 16.4181 13.9663 17.1616 12.2973C17.2108 12.1871 17.2491 12.1683 17.3607 12.2281C18.0034 12.5753 18.6569 12.9048 19.2577 13.3212C19.7421 13.6578 20.2242 13.9968 20.7123 14.3381C20.7386 14.2865 20.7614 14.2478 20.7806 14.2079C21.7087 12.3243 22.9175 10.6295 24.3672 9.09661C24.4536 9.00512 24.5003 8.94414 24.625 9.07667C25.9933 10.5287 27.1492 12.1237 28.063 13.8853C28.1409 14.0355 28.2153 14.1856 28.2956 14.3451C28.3747 14.29 28.4383 14.2489 28.4995 14.2032C29.4791 13.4678 30.5032 12.8016 31.6052 12.2516C31.7215 12.1941 31.7851 12.1519 31.857 12.3161C32.748 14.3615 33.3464 16.4797 33.5166 18.7034C33.5262 18.8266 33.5562 18.8688 33.6881 18.8653C34.0479 18.8547 34.4088 18.8676 34.7685 18.8547C34.9376 18.8488 35.0012 18.8805 35 19.0682C34.9892 20.1859 35 21.3036 34.9928 22.4213C34.9868 23.5578 34.7781 24.6627 34.3189 25.703C32.8032 29.13 30.1543 31.1814 26.4058 31.8804C26.1563 31.9273 25.8949 31.9027 25.6539 32L25.6527 31.9988ZM33.4783 21.8842C33.4783 21.3083 33.4747 20.9107 33.4807 20.5131C33.4819 20.3935 33.4651 20.3501 33.32 20.3618C31.7371 20.485 30.2814 20.967 28.9779 21.856C27.0713 23.1567 25.8673 24.9172 25.4117 27.1573C25.1934 28.2281 25.2894 29.3095 25.2642 30.3873C25.2606 30.5199 25.3409 30.5058 25.4297 30.4964C28.9551 30.161 31.4098 28.3606 32.8751 25.242C33.3991 24.1255 33.543 22.928 33.4795 21.8842H33.4783ZM15.526 21.8361C15.5044 22.4894 15.5368 23.3022 15.7394 24.1044C16.6208 27.5901 19.8561 30.236 23.5626 30.4988C23.7137 30.5093 23.7437 30.4683 23.7425 30.3322C23.7353 29.7622 23.7401 29.1922 23.7377 28.6222C23.7353 27.7766 23.6058 26.9497 23.3324 26.1475C22.2136 22.8705 19.2517 20.6386 15.6747 20.3606C15.5428 20.3501 15.5224 20.3876 15.5236 20.5002C15.5284 20.8908 15.526 21.2802 15.526 21.8361ZM25.3193 23.4347C25.3265 23.4253 25.3481 23.396 25.3685 23.3667C26.9454 21.0925 29.1038 19.6558 31.8522 19.0764C32.0021 19.0447 32.0201 18.9767 32.0117 18.8465C31.911 17.3265 31.5429 15.8616 31.0656 14.419C31.0176 14.2747 30.9661 14.3158 30.8785 14.3721C29.7046 15.1286 28.5966 15.9601 27.5965 16.9324C25.7402 18.7374 24.9236 20.8873 25.3193 23.4359V23.4347ZM23.7065 23.4652C23.7772 23.3854 23.7461 23.3068 23.7473 23.2365C23.7509 22.8013 23.7425 22.3662 23.7497 21.9311C23.7689 20.8239 23.4715 19.8024 22.9091 18.8465C22.439 18.0478 21.8442 17.3464 21.1727 16.7049C20.211 15.7842 19.1342 15.0089 17.9866 14.2841C17.483 15.7701 17.1028 17.2585 16.9937 18.8054C16.9817 18.9802 17.0201 19.0447 17.206 19.0834C19.3536 19.5291 21.1619 20.56 22.6549 22.1305C23.0458 22.5421 23.3887 22.9902 23.7077 23.4652H23.7065ZM24.4883 18.5826C24.5195 18.5592 24.5363 18.5521 24.5411 18.5416C25.1371 17.3816 25.9765 16.4046 26.931 15.5156C27.0557 15.3995 27.0809 15.3162 27.0089 15.1579C26.3794 13.7833 25.5484 12.5307 24.6142 11.3403C24.5375 11.2417 24.4943 11.2113 24.4008 11.3297C23.4559 12.5319 22.6189 13.7986 21.9833 15.186C21.9222 15.3197 21.9462 15.3925 22.0505 15.4886C23.0218 16.3917 23.8744 17.3875 24.4883 18.5814V18.5826Z" fill="#FFD707"/>
</svg>
