<svg width="50" height="50" viewBox="0 0 50 50" fill="none" xmlns="http://www.w3.org/2000/svg">
<rect x="0.5" y="0.5" width="49" height="49" rx="12.5" fill="#BA413C" stroke="#BA413C"/>
<path d="M22.0008 37.8L20.7288 39.9L19.4628 37.8H18.7188V42H19.4088V39L20.6868 41.118H20.7708L22.0488 39.006V42H22.7388V37.8H22.0008ZM26.4323 40.776C26.4503 40.662 26.4563 40.572 26.4563 40.506C26.4563 40.068 26.3123 39.69 26.0303 39.384C25.7483 39.078 25.3883 38.922 24.9503 38.922C24.4883 38.922 24.1043 39.072 23.8103 39.378C23.5163 39.678 23.3663 40.05 23.3663 40.5C23.3663 40.956 23.5163 41.334 23.8163 41.634C24.1163 41.928 24.5123 42.078 24.9983 42.078C25.5803 42.078 26.0183 41.862 26.3123 41.424L25.7783 41.112C25.6043 41.358 25.3463 41.484 25.0043 41.484C24.5063 41.484 24.1403 41.232 24.0443 40.776H26.4323ZM24.0382 40.248C24.1283 39.792 24.4643 39.51 24.9443 39.51C25.3703 39.51 25.7123 39.762 25.8023 40.248H24.0382ZM29.3849 39.426C29.1389 39.09 28.7909 38.922 28.3349 38.922C27.9209 38.922 27.5729 39.072 27.2789 39.378C26.9849 39.684 26.8409 40.056 26.8409 40.5C26.8409 40.938 26.9849 41.316 27.2789 41.622C27.5729 41.928 27.9209 42.078 28.3349 42.078C28.7909 42.078 29.1389 41.91 29.3849 41.568V42H30.0329V39H29.3849V39.426ZM27.7589 41.19C27.5789 41.004 27.4889 40.776 27.4889 40.5C27.4889 40.224 27.5789 39.996 27.7589 39.816C27.9389 39.63 28.1669 39.54 28.4369 39.54C28.7069 39.54 28.9349 39.63 29.1149 39.816C29.2949 39.996 29.3849 40.224 29.3849 40.5C29.3849 40.776 29.2949 41.004 29.1149 41.19C28.9349 41.37 28.7069 41.46 28.4369 41.46C28.1669 41.46 27.9389 41.37 27.7589 41.19ZM32.4622 39H31.7182V38.16L31.0702 38.352V39H30.5182V39.624H31.0702V41.064C31.0702 41.85 31.4722 42.12 32.4622 42V41.418C31.9702 41.442 31.7182 41.448 31.7182 41.064V39.624H32.4622V39Z" fill="white"/>
<path d="M15.8696 9C16.3743 9.12399 16.7944 9.38364 17.143 9.77166C17.3006 9.94671 17.5077 9.94234 17.7178 9.83877C17.9803 9.7104 18.2298 9.55577 18.523 9.49159C18.8424 9.42011 19.14 9.47554 19.4405 9.58641C19.5995 9.64476 19.6054 9.72353 19.5441 9.86356C19.1838 10.6907 18.5565 11.1604 17.6623 11.2639C17.5106 11.2814 17.445 11.3077 17.4596 11.4725C17.4742 11.6417 17.4785 11.8153 17.4596 11.9831C17.4362 12.1829 17.5325 12.1961 17.6886 12.18C18.3669 12.1129 18.9781 11.8839 19.4916 11.4302C19.6229 11.3135 19.7483 11.2625 19.9204 11.2727C20.2224 11.2902 20.5258 11.2625 20.8292 11.3092C20.9722 11.331 21.032 11.3763 21.0582 11.5294C21.1326 11.967 21.2187 12.4047 21.3281 12.835C21.5776 13.8196 22.1931 14.4921 23.1588 14.7955C24.2893 15.15 25.2988 15.6926 26.1579 16.5153C26.9034 17.2287 27.8048 17.3847 28.6305 16.9632C29.4459 16.546 29.8558 15.6941 29.7377 14.6949C29.6574 14.018 29.4561 13.3849 29.1119 12.7971C29.0404 12.676 28.9762 12.5505 28.9003 12.4105C30.4743 12.145 32.0133 12.0006 33.4691 12.8248C33.6441 12.924 33.6033 12.9882 33.5143 13.1165C32.8477 14.0749 32.5063 15.1412 32.4888 16.3082C32.4786 16.9982 32.7499 17.5642 33.3086 17.9697C33.6762 18.2366 33.8396 18.5736 33.86 19.0273C33.9184 20.2891 34.515 21.2358 35.6149 21.8572C35.7636 21.9403 35.8176 22.0337 35.8526 22.1985C36.191 23.79 36.1239 25.4034 36.1269 27.0123C36.1283 27.7986 36.1283 28.5848 36.1269 29.3725C36.1269 29.762 35.9635 29.9239 35.5755 29.9283C35.3187 29.9312 35.0635 29.9341 34.8067 29.9283C34.477 29.921 34.3078 29.7401 34.3078 29.4075C34.3078 29.11 34.3837 28.8255 34.4858 28.5513C34.922 27.3814 34.8271 26.2552 34.2509 25.1525C33.9767 24.6259 33.6704 24.1095 33.5143 23.5289C33.4326 23.2255 33.4034 22.9162 33.3918 22.6026C33.3655 21.8907 33.0373 21.3496 32.3998 21.0286C31.7624 20.7077 31.1059 20.7325 30.5502 21.176C29.017 22.4013 27.2534 22.7601 25.3484 22.6566C25.2054 22.6493 25.1762 22.6084 25.1821 22.4757C25.1966 22.1446 25.1908 21.812 25.2025 21.4808C25.2069 21.3466 25.1894 21.2854 25.0245 21.281C24.2966 21.262 24.2995 21.2547 24.2864 21.9753C24.2514 23.9198 24.0457 25.8497 23.7496 27.7709C23.6621 28.3412 23.5862 28.9145 23.4987 29.4849C23.4506 29.797 23.2988 29.9239 22.9808 29.9298C22.1844 29.9458 21.9889 29.9721 22.0079 28.9933C22.0225 28.2274 22.0604 27.4587 21.9699 26.6929C21.9116 26.1998 21.7774 25.7286 21.5586 25.2837C21.2523 24.6609 21.1195 24.0088 21.0947 23.3145C21.0437 21.8426 20.4252 20.6392 19.2874 19.6997C19.1517 19.5874 19.0685 19.5597 18.965 19.7347C18.8541 19.92 18.6266 20.0834 18.6149 20.2672C18.6047 20.4379 18.8877 20.5414 19.0321 20.6873C19.5353 21.1964 19.8854 21.7916 20.0707 22.5019C19.8592 22.5078 19.6798 22.4217 19.5076 22.3429C18.1335 21.7201 17.3137 20.6698 17.1182 19.1658C17.019 18.4059 16.8338 17.6794 16.4297 17.0244C16.3305 16.864 16.3699 16.8144 16.5202 16.7371C17.5267 16.2207 18.2458 15.4315 18.7068 14.4002C18.7783 14.2412 18.7899 14.1493 18.5901 14.0939C18.3829 14.0355 18.1685 13.8546 17.9876 13.8867C17.8126 13.9188 17.7965 14.2208 17.6944 14.3973C17.2131 15.2375 16.5216 15.8268 15.6114 16.1477C15.2481 16.2761 14.8572 16.3315 14.5407 16.6364C14.3146 15.98 13.982 15.4301 13.5006 14.9793C13.2716 14.7649 13.0178 14.584 12.7464 14.4265C12.6677 14.3798 12.5043 14.3666 12.5801 14.2222C12.6531 14.0807 12.5947 13.8517 12.8631 13.8269C13.1636 13.7992 13.4656 13.7496 13.7573 13.6708C14.583 13.4462 15.1519 12.7154 15.1854 11.8591C15.1942 11.649 15.1898 11.4332 15.2875 11.2479C15.661 10.5375 15.6712 9.77604 15.6449 9.00583H15.8725L15.8696 9ZM23.4243 20.3722C23.5089 20.3722 23.595 20.3722 23.6796 20.3722C24.3302 20.3766 24.8145 20.1038 25.0829 19.5043C25.3308 18.9514 25.1966 18.3694 24.7299 17.8938C24.4046 17.5627 24.0807 17.2287 23.7408 16.9136C22.6468 15.8954 21.3485 15.379 19.8548 15.3717C19.2771 15.3688 18.8322 15.6328 18.5507 16.1346C18.0825 16.9705 18.5113 17.9901 19.4537 18.2644C20.0255 18.4307 20.52 18.7063 20.8861 19.1804C21.5309 20.0119 22.3755 20.4072 23.4258 20.3722H23.4243Z" fill="white"/>
<path d="M38.4004 22.6465C38.1014 22.6275 37.7002 22.7748 37.5325 22.5867C37.3851 22.4218 37.4902 22.028 37.4902 21.7362C37.4902 20.3723 37.4945 19.0084 37.4872 17.6445C37.4814 16.6613 36.8892 15.8167 35.9818 15.4768C35.8958 15.4448 35.8053 15.4243 35.6755 15.3849C35.7805 15.789 35.8987 16.1522 35.9527 16.53C36.0504 17.204 35.9993 17.8692 35.8578 18.5329C35.7791 18.9034 35.7382 19.2797 35.7003 19.6561C35.6638 20.0222 35.6799 20.3884 35.6682 20.8012C35.1008 20.3315 34.793 19.7597 34.7725 19.0741C34.7477 18.2863 34.4648 17.6678 33.8127 17.2156C33.5501 17.0333 33.4043 16.7591 33.3999 16.4411C33.3853 15.3572 33.7077 14.3784 34.3626 13.4857C34.5873 13.6651 34.7755 13.865 34.9199 14.0896C35.0512 14.2938 35.2204 14.3726 35.4494 14.4061C36.5507 14.5681 37.4201 15.0888 37.9905 16.0676C38.186 16.4017 38.2501 16.7824 38.4019 17.131V22.6465H38.4004Z" fill="white"/>
<path d="M22.0073 11.6491C22.5383 11.8417 23.0313 12.0255 23.5273 12.199C24.7672 12.6323 26.0392 12.73 27.336 12.555C27.902 12.4791 27.8874 12.482 28.1748 12.9838C28.5409 13.6242 28.8298 14.2836 28.84 15.0363C28.8473 15.5599 28.6328 15.9567 28.15 16.1726C27.6759 16.3856 27.2368 16.2879 26.8692 15.9319C25.8919 14.9852 24.7541 14.3273 23.45 13.9349C22.7498 13.7234 22.3282 13.226 22.1794 12.5054C22.1226 12.2311 22.0686 11.9554 22.0059 11.6491H22.0073Z" fill="white"/>
<path d="M19.2826 23.259C19.5626 23.329 19.8281 23.3961 20.0921 23.4603C20.1913 23.4836 20.1928 23.5537 20.1957 23.6324C20.2249 24.3618 20.4306 25.043 20.7486 25.6994C20.9951 26.2085 21.1045 26.7541 21.103 27.3215C21.103 27.9182 21.103 28.5148 21.103 29.1129C21.103 29.3769 21.0826 29.6438 21.1745 29.9035C21.1351 29.9137 21.1089 29.9254 21.0826 29.9254C20.4393 29.9443 20.152 29.9691 20.1884 29.0837C20.2118 28.5162 20.1884 27.9473 20.1943 27.3784C20.2001 26.5878 20.0178 25.8424 19.672 25.1335C19.3847 24.5441 19.2607 23.9227 19.284 23.2605L19.2826 23.259Z" fill="white"/>
<path d="M32.8757 24.448C31.6926 24.5487 30.5607 23.8572 30.1289 22.7924C30.0837 22.6815 30.0414 22.5998 30.1843 22.5108C30.4965 22.3154 30.7911 22.0922 31.0989 21.8909C31.6707 21.5189 32.4205 21.8748 32.476 22.5517C32.5022 22.8726 32.5153 23.1921 32.5781 23.5101C32.6408 23.8266 32.7546 24.1242 32.8742 24.4495L32.8757 24.448Z" fill="white"/>
<path d="M33.4593 29.8975C33.4389 29.9063 33.4301 29.9136 33.4214 29.915C32.4601 30.0171 32.3594 29.6641 32.568 28.8604C32.6978 28.3586 32.9006 27.8757 32.9312 27.3506C32.9721 26.6679 32.8364 26.0188 32.5447 25.3857C32.6468 25.3799 32.7299 25.3755 32.8116 25.3711C33.3397 25.3434 33.3411 25.3419 33.5585 25.8175C33.8867 26.5352 33.9392 27.2704 33.6971 28.026C33.6052 28.3134 33.4972 28.5964 33.4447 28.8954C33.3864 29.2324 33.3616 29.5679 33.4578 29.899L33.4593 29.8975Z" fill="white"/>
<path d="M14.7173 9.26535C14.764 9.82258 14.7202 10.3185 14.4781 10.7926C14.3278 11.0888 14.2826 11.4199 14.2738 11.7554C14.2578 12.4031 13.7662 12.8713 13.12 12.8669C13.0339 12.8669 12.9902 12.8728 13.0062 12.7502C13.1652 11.5468 13.5065 10.425 14.392 9.53521C14.4518 9.47541 14.5131 9.4156 14.5772 9.35871C14.6108 9.32953 14.6516 9.30911 14.7187 9.26535H14.7173Z" fill="white"/>
<path d="M13.401 17.1776C12.851 17.1543 11.9743 16.1974 12.0006 15.6503C12.0006 15.6314 12.0006 15.6124 12.0035 15.5935C12.0531 15.1485 12.1523 15.1004 12.5126 15.3469C13.0611 15.7233 13.4389 16.2309 13.646 16.8625C13.7335 17.1295 13.6839 17.1893 13.401 17.1776Z" fill="white"/>
<path d="M13.2771 9.4128C13.1166 9.67683 12.9547 9.92044 12.8161 10.1772C12.7374 10.3245 12.6907 10.2662 12.6177 10.1845C12.3654 9.89564 12.1932 9.56597 12.0824 9.19837C12.0357 9.04229 12.1028 9.03937 12.2166 9.05979C12.5813 9.12543 12.9314 9.23046 13.2771 9.4128Z" fill="white"/>
<path d="M23.3726 19.4635C22.6578 19.5029 22.0597 19.2097 21.5944 18.6116C21.1261 18.0106 20.512 17.6226 19.7797 17.414C19.4238 17.3134 19.2386 17.0581 19.2896 16.7561C19.3407 16.4498 19.5828 16.2704 19.9592 16.2806C21.1612 16.3141 22.2114 16.7357 23.0925 17.5541C23.4251 17.8633 23.7373 18.1959 24.0626 18.5124C24.2449 18.6904 24.3587 18.8844 24.2478 19.1426C24.1399 19.3964 23.9313 19.4752 23.6731 19.4621C23.5885 19.4577 23.5024 19.4621 23.374 19.4621L23.3726 19.4635Z" fill="white"/>
</svg>
