<svg width="50" height="50" viewBox="0 0 50 50" fill="none" xmlns="http://www.w3.org/2000/svg">
<rect x="0.5" y="0.5" width="49" height="49" rx="12.5" fill="white" stroke="#BA413C"/>
<path d="M22.0008 37.8L20.7288 39.9L19.4628 37.8H18.7188V42H19.4088V39L20.6868 41.118H20.7708L22.0488 39.006V42H22.7388V37.8H22.0008ZM26.4323 40.776C26.4503 40.662 26.4563 40.572 26.4563 40.506C26.4563 40.068 26.3123 39.69 26.0303 39.384C25.7483 39.078 25.3883 38.922 24.9503 38.922C24.4883 38.922 24.1043 39.072 23.8103 39.378C23.5163 39.678 23.3663 40.05 23.3663 40.5C23.3663 40.956 23.5163 41.334 23.8163 41.634C24.1163 41.928 24.5123 42.078 24.9983 42.078C25.5803 42.078 26.0183 41.862 26.3123 41.424L25.7783 41.112C25.6043 41.358 25.3463 41.484 25.0043 41.484C24.5063 41.484 24.1403 41.232 24.0443 40.776H26.4323ZM24.0382 40.248C24.1283 39.792 24.4643 39.51 24.9443 39.51C25.3703 39.51 25.7123 39.762 25.8023 40.248H24.0382ZM29.3849 39.426C29.1389 39.09 28.7909 38.922 28.3349 38.922C27.9209 38.922 27.5729 39.072 27.2789 39.378C26.9849 39.684 26.8409 40.056 26.8409 40.5C26.8409 40.938 26.9849 41.316 27.2789 41.622C27.5729 41.928 27.9209 42.078 28.3349 42.078C28.7909 42.078 29.1389 41.91 29.3849 41.568V42H30.0329V39H29.3849V39.426ZM27.7589 41.19C27.5789 41.004 27.4889 40.776 27.4889 40.5C27.4889 40.224 27.5789 39.996 27.7589 39.816C27.9389 39.63 28.1669 39.54 28.4369 39.54C28.7069 39.54 28.9349 39.63 29.1149 39.816C29.2949 39.996 29.3849 40.224 29.3849 40.5C29.3849 40.776 29.2949 41.004 29.1149 41.19C28.9349 41.37 28.7069 41.46 28.4369 41.46C28.1669 41.46 27.9389 41.37 27.7589 41.19ZM32.4622 39H31.7182V38.16L31.0702 38.352V39H30.5182V39.624H31.0702V41.064C31.0702 41.85 31.4722 42.12 32.4622 42V41.418C31.9702 41.442 31.7182 41.448 31.7182 41.064V39.624H32.4622V39Z" fill="#BA413C"/>
<path d="M20.5024 30.0002C20.4396 29.9037 20.3239 29.9079 20.236 29.8575C19.8063 29.6128 19.5692 29.2463 19.5622 28.7512C19.5525 28.0869 19.5594 27.4212 19.5594 26.7568C19.5594 26.224 19.4548 25.7135 19.2219 25.2351C18.8871 24.5484 18.7099 23.8295 18.7169 23.0631C18.7197 22.733 18.636 22.4799 18.3361 22.2449C17.3889 21.5009 16.8617 20.4953 16.7277 19.2925C16.6594 18.6757 16.4795 18.1023 16.16 17.5666C16.0526 17.3848 15.9773 17.3344 15.7945 17.4743C15.5602 17.6547 15.3077 17.8128 15.058 17.9722C14.3871 18.3974 13.6157 18.3177 13.0438 17.7652C12.8554 17.5834 12.6643 17.403 12.49 17.2072C11.9906 16.6449 11.8469 15.996 12.1803 15.3163C12.6504 14.3582 12.9391 13.354 13.1219 12.3079C13.1749 12.003 13.1428 11.8198 12.9098 11.5974C12.324 11.0379 12.0436 10.3205 12.0185 9.50927C12.0073 9.15822 12.1719 8.99738 12.5276 9.00437C13.2097 9.01696 13.8556 9.1806 14.4624 9.49109C14.567 9.54423 14.6395 9.5778 14.7595 9.48969C15.7025 8.79878 16.8937 8.84213 17.7963 9.60437C17.933 9.71906 18.0208 9.72745 18.1785 9.65053C19.0475 9.22675 19.858 9.44493 20.6307 9.91766C20.8135 10.0295 20.8637 10.2156 20.7828 10.424C20.6977 10.6421 20.6126 10.8589 20.5164 11.1037C21.4398 11.0715 22.2516 11.4267 23.0579 11.7652C24.4696 12.3582 25.9175 12.4659 27.4171 12.2379C28.2526 12.1107 29.0951 12.01 29.9391 11.9596C31.6716 11.8561 33.16 12.424 34.3596 13.6981C34.4572 13.8016 34.5619 13.8533 34.693 13.8785C35.0013 13.9372 35.3109 13.9862 35.6164 14.0603C36.8356 14.3568 37.6084 15.1135 37.932 16.3316C37.9473 16.3918 37.9111 16.4785 38.0031 16.5107V21.603C37.8023 21.603 37.6 21.5876 37.4005 21.6072C37.2024 21.6267 37.1578 21.5624 37.1592 21.3666C37.169 19.9051 37.1773 18.4449 37.1592 16.9834C37.148 16.0561 36.6877 15.3946 35.848 15.01C35.6471 14.9177 35.4309 14.8309 35.191 14.8939C35.788 16.1247 35.9484 17.403 35.6597 18.7428C35.4379 19.7708 35.4295 20.8058 35.6318 21.8421C35.8033 22.7191 35.9066 23.6044 35.9066 24.4995C35.9066 25.8911 35.9066 27.2813 35.9066 28.6729C35.9066 28.7862 35.8982 28.9009 35.8745 29.01C35.7545 29.5624 35.3723 29.8505 34.8604 30.0016H31.8222C31.7915 29.9219 31.7092 29.9316 31.6507 29.9037C31.1541 29.6687 30.8932 29.2785 30.8807 28.7274C30.8737 28.3918 30.9225 28.0589 31.048 27.7512C31.447 26.7722 31.3507 25.8435 30.8276 24.9386C30.7579 24.8184 30.6812 24.7428 30.5515 24.6869C29.8749 24.3946 29.349 23.9261 28.9682 23.2925C28.8664 23.1247 28.8441 22.8421 28.6795 22.8002C28.5177 22.7582 28.3084 22.9079 28.1187 22.9722C27.1674 23.2911 26.1825 23.3037 25.1949 23.2757C24.9885 23.2701 24.9313 23.3372 24.9229 23.5302C24.8769 24.4561 24.7751 25.3764 24.6467 26.2939C24.5226 27.1764 24.4082 28.0589 24.2673 28.9386C24.1739 29.5247 23.7791 29.8463 23.2309 30.0016H22.1833C21.9741 29.7764 21.7648 29.9247 21.5542 30.0016H20.5066L20.5024 30.0002ZM20.2332 22.2897C20.2416 22.2995 20.2569 22.3177 20.2597 22.3163C20.2848 22.2981 20.2834 22.2813 20.2541 22.2673C20.123 21.6198 19.7757 21.0981 19.3279 20.6295C19.1968 20.4925 18.9331 20.3988 18.9415 20.2407C18.9499 20.0715 19.1591 19.9191 19.2637 19.7484C19.3558 19.5974 19.4283 19.6002 19.5608 19.7107C20.6154 20.5848 21.1845 21.7037 21.2292 23.0729C21.2487 23.6869 21.3645 24.2659 21.6337 24.817C21.8457 25.2505 21.9824 25.7093 22.0368 26.1918C22.1149 26.8897 22.0661 27.5904 22.0731 28.2897C22.0829 29.1358 22.1177 29.1778 22.9603 29.1596C23.2644 29.1526 23.3969 29.0393 23.4443 28.7274C23.5238 28.2002 23.5964 27.6729 23.6759 27.1456C23.9437 25.3806 24.1348 23.6086 24.1655 21.8212C24.178 21.133 24.1752 21.1358 24.8671 21.1764C24.9843 21.1834 25.0136 21.2184 25.0094 21.3288C24.9997 21.6435 24.9997 21.9582 24.9941 22.2729C24.9927 22.361 24.9718 22.4449 25.114 22.4421C25.7683 22.4281 26.4225 22.4715 27.0739 22.361C28.1187 22.1834 29.0463 21.7526 29.8847 21.1079C30.4231 20.6939 31.0257 20.6365 31.6325 20.9414C32.2295 21.2407 32.5336 21.7498 32.5504 22.4184C32.5629 22.9428 32.6801 23.4379 32.9172 23.9051C33.0595 24.1848 33.192 24.4701 33.3385 24.747C33.877 25.761 33.9606 26.803 33.5589 27.8841C33.4682 28.1288 33.3985 28.3834 33.3929 28.6491C33.3859 28.9876 33.5408 29.154 33.8742 29.1596C34.1015 29.1638 34.3275 29.1624 34.5549 29.1596C34.9134 29.1568 35.0654 29.0086 35.0654 28.6505C35.0682 27.61 35.0585 26.568 35.0682 25.5274C35.0794 24.354 35.0445 23.1848 34.8143 22.0281C34.7809 21.8589 34.7125 21.7806 34.573 21.6995C33.5924 21.1358 33.0456 20.2827 32.9814 19.1526C32.9563 18.7065 32.814 18.3708 32.4499 18.1065C31.9506 17.7442 31.712 17.2309 31.7148 16.6156C31.7218 15.5191 32.0426 14.5177 32.6703 13.6198C32.7596 13.4911 32.7499 13.4449 32.6159 13.3736C31.9185 13.0016 31.1792 12.7974 30.3882 12.7862C29.801 12.7778 29.2249 12.8995 28.6418 12.9358C28.4158 12.9498 28.3963 13.003 28.5093 13.1862C28.872 13.7722 29.1021 14.4058 29.1816 15.0953C29.289 16.0156 28.9152 16.8044 28.1647 17.1918C27.4045 17.5834 26.5717 17.4407 25.8882 16.782C25.1043 16.0281 24.1864 15.5233 23.1528 15.2002C22.2293 14.9121 21.6546 14.2757 21.4259 13.3344C21.331 12.9442 21.2571 12.5498 21.1873 12.154C21.1664 12.0393 21.1245 11.9974 21.0102 11.9778C20.6712 11.9205 20.3308 11.954 19.9905 11.9414C19.8984 11.9372 19.851 12.0016 19.7938 12.0519C19.3223 12.4729 18.7671 12.6967 18.145 12.7736C17.965 12.796 17.8437 12.7806 17.8786 12.5442C17.8995 12.4072 17.8925 12.2645 17.8786 12.1247C17.8646 11.9778 17.919 11.947 18.0627 11.9302C18.8731 11.8365 19.4478 11.4156 19.7868 10.6645C19.8691 10.4827 19.8119 10.4281 19.6557 10.3652C19.1424 10.1568 18.6862 10.3079 18.2329 10.5526C17.8562 10.7568 17.7572 10.7358 17.4559 10.4295C17.1727 10.14 16.8449 9.94983 16.4432 9.86871C16.2409 9.82815 16.1865 9.8743 16.2005 10.0771C16.2437 10.7051 16.1754 11.3135 15.8824 11.8869C15.7945 12.0589 15.789 12.2561 15.782 12.4505C15.7541 13.2869 15.2003 13.9778 14.3926 14.175C14.1653 14.2309 13.9295 14.2785 13.6966 14.2827C13.4232 14.2869 13.4413 14.5037 13.3827 14.6561C13.3172 14.8254 13.5027 14.8128 13.5794 14.8729C13.7231 14.9862 13.8849 15.0743 14.0286 15.1876C14.5837 15.6226 14.9478 16.1946 15.1877 16.8855C15.4779 16.6086 15.8378 16.5568 16.1726 16.4393C17.0123 16.1428 17.6484 15.6002 18.092 14.8254C18.1854 14.6617 18.205 14.382 18.3612 14.3512C18.5258 14.3177 18.7253 14.4841 18.9164 14.54C19.0935 14.5918 19.0977 14.6687 19.0294 14.8226C18.6109 15.768 17.9525 16.4897 17.0402 16.9708C16.8868 17.0519 16.8366 17.1009 16.9384 17.2673C17.2634 17.8044 17.4615 18.3876 17.5256 19.0142C17.5954 19.7037 17.7907 20.3498 18.205 20.9135C18.7183 21.6086 19.3669 22.1093 20.229 22.2939L20.2332 22.2897ZM22.0675 12.2883C22.1261 12.5722 22.1763 12.8184 22.2251 13.0659C22.3605 13.7428 22.7538 14.203 23.4094 14.4016C24.5993 14.7638 25.6413 15.3652 26.5341 16.2323C26.88 16.568 27.2901 16.6631 27.7351 16.4575C28.1773 16.2533 28.3684 15.8841 28.3586 15.4002C28.3447 14.7051 28.0755 14.0981 27.7407 13.5079C27.484 13.0561 27.4966 13.0519 26.9874 13.1219C25.9203 13.2687 24.8671 13.2072 23.8279 12.9121C23.242 12.7456 22.6841 12.4995 22.0675 12.2869V12.2883ZM34.6567 20.747C34.6246 19.9554 34.7041 19.2379 34.8464 18.5247C35.1826 16.8491 34.7725 15.3806 33.6049 14.1274C33.4961 14.01 33.4348 13.9764 33.326 14.14C32.8196 14.9037 32.5574 15.7386 32.5532 16.6533C32.5518 16.968 32.6773 17.2407 32.934 17.4212C33.5324 17.8407 33.8002 18.4072 33.8198 19.1358C33.8379 19.7708 34.1211 20.2995 34.6553 20.7484L34.6567 20.747ZM21.3017 29.14C21.1957 28.8156 21.2417 28.4841 21.2375 28.154C21.232 27.7428 21.2292 27.3316 21.2375 26.9205C21.2515 26.2785 21.1218 25.6729 20.8358 25.0981C20.6447 24.7135 20.5192 24.3051 20.4536 23.8799C20.4201 23.6645 20.4801 23.3806 20.3629 23.2491C20.236 23.1065 19.9444 23.1191 19.7352 23.0393C19.5608 22.9722 19.5539 23.0407 19.5567 23.1848C19.5664 23.7163 19.6724 24.2254 19.9068 24.7023C20.2555 25.4142 20.4187 26.1624 20.3992 26.9554C20.388 27.4268 20.4159 27.9009 20.3922 28.3722C20.3546 29.1582 20.5959 29.21 21.3003 29.14H21.3017ZM32.0775 24.1023C31.8529 23.561 31.719 23.024 31.7134 22.4575C31.7106 22.1135 31.567 21.8505 31.2573 21.6925C30.9351 21.5274 30.6365 21.589 30.3534 21.7974C30.1218 21.9666 29.8889 22.1372 29.6406 22.2827C29.4885 22.3722 29.4913 22.4505 29.5527 22.5946C29.9726 23.5722 30.9853 24.1904 32.0761 24.1023H32.0775ZM32.6173 29.1316C32.5239 28.8449 32.5476 28.5526 32.5922 28.2575C32.6369 27.961 32.7415 27.6841 32.8308 27.403C33.0512 26.7163 33.0093 26.0463 32.7136 25.3904C32.575 25.0827 32.343 24.9372 32.0175 24.954C31.9422 24.9582 31.8669 24.961 31.772 24.9666C32.0454 25.5554 32.1668 26.1554 32.1291 26.7848C32.1012 27.2701 31.9241 27.7177 31.7915 28.1778C31.5642 28.9722 31.7706 29.2198 32.5797 29.1498C32.588 29.1498 32.595 29.1428 32.6187 29.133L32.6173 29.1316ZM15.3579 10.1302C14.6702 10.5093 13.9337 11.7051 13.7803 13.3932C14.4763 13.4351 14.9297 13.0267 14.9492 12.3358C14.9576 12.0533 14.9966 11.7708 15.1222 11.5233C15.3482 11.0771 15.4026 10.6128 15.3579 10.1288V10.1302ZM14.1527 17.3904C14.4066 17.3974 14.4456 17.3498 14.3731 17.1163C14.1862 16.5205 13.8319 16.0477 13.3186 15.6967C12.9949 15.4743 12.914 15.5135 12.8596 15.9121C12.8568 15.9288 12.8568 15.947 12.8554 15.9638C12.8192 16.4785 13.6352 17.3764 14.1513 17.3904H14.1527ZM12.9001 9.88409C13.0075 10.3484 13.2 10.7219 13.525 11.0337C13.6812 10.7862 13.8179 10.5554 13.9714 10.3358C14.0369 10.2421 14.016 10.2058 13.9267 10.168C13.6073 10.0337 13.2837 9.91766 12.9001 9.88549V9.88409Z" fill="#BA413C"/>
<path d="M20.2543 22.2686C20.2836 22.2826 20.285 22.2994 20.2599 22.3176C20.2585 22.3176 20.2432 22.2994 20.2334 22.291C20.2404 22.284 20.2473 22.277 20.2543 22.2686Z" fill="#FDFDFD"/>
<path d="M23.3723 20.3414C22.4056 20.3735 21.6286 20.0085 21.0344 19.2407C20.6968 18.8043 20.2421 18.5483 19.7162 18.3959C18.9085 18.1609 18.5012 17.3274 18.8192 16.5707C19.048 16.0267 19.4734 15.7288 20.0593 15.726C21.4459 15.719 22.6497 16.2001 23.6638 17.1469C23.9832 17.4448 24.2887 17.7581 24.5928 18.0714C25.0015 18.4938 25.1327 18.9903 24.8983 19.5386C24.6654 20.084 24.2232 20.3372 23.6345 20.3414C23.5466 20.3414 23.4601 20.3414 23.3723 20.3414ZM23.3304 19.5008C23.4448 19.5008 23.5145 19.498 23.5843 19.5008C23.8312 19.5148 24.0349 19.4462 24.1353 19.1973C24.2329 18.9567 24.1213 18.7805 23.9539 18.6169C23.661 18.3302 23.3792 18.0309 23.0807 17.7497C22.2786 16.9973 21.3231 16.6057 20.2267 16.5637C19.8403 16.5497 19.6102 16.7134 19.5655 17.0127C19.5237 17.3008 19.6883 17.5078 20.0523 17.6183C20.7038 17.8169 21.259 18.1623 21.6774 18.7036C22.1113 19.263 22.6664 19.5414 23.3318 19.5008H23.3304Z" fill="#BA413C"/>
</svg>
