<svg width="50" height="50" viewBox="0 0 50 50" fill="none" xmlns="http://www.w3.org/2000/svg">
<rect x="0.5" y="0.5" width="49" height="49" rx="12.5" fill="#FF6D04" stroke="#FF6D04"/>
<path d="M18.2679 41.448C18.6939 41.022 18.9039 40.506 18.9039 39.9C18.9039 39.294 18.6939 38.778 18.2679 38.358C17.8479 37.932 17.3319 37.722 16.7259 37.722C16.1199 37.722 15.6039 37.932 15.1779 38.358C14.7579 38.778 14.5479 39.294 14.5479 39.9C14.5479 40.506 14.7579 41.022 15.1779 41.448C15.6039 41.868 16.1199 42.078 16.7259 42.078C17.3319 42.078 17.8479 41.868 18.2679 41.448ZM15.6639 40.98C15.3819 40.692 15.2379 40.332 15.2379 39.9C15.2379 39.468 15.3819 39.108 15.6639 38.826C15.9519 38.538 16.3059 38.394 16.7259 38.394C17.1459 38.394 17.4999 38.538 17.7819 38.826C18.0699 39.108 18.2139 39.468 18.2139 39.9C18.2139 40.332 18.0699 40.692 17.7819 40.98C17.4999 41.262 17.1459 41.406 16.7259 41.406C16.3059 41.406 15.9519 41.262 15.6639 40.98ZM20.1393 39H19.4913V42H20.1393V40.488C20.1393 40.182 20.2293 39.96 20.4153 39.828C20.6013 39.69 20.8173 39.63 21.0633 39.648V38.946C20.6133 38.946 20.3013 39.132 20.1393 39.504V39ZM23.7894 39.444C23.5434 39.096 23.1954 38.922 22.7454 38.922C22.3194 38.922 21.9654 39.072 21.6714 39.378C21.3774 39.678 21.2334 40.044 21.2334 40.47C21.2334 40.896 21.3774 41.262 21.6714 41.568C21.9654 41.868 22.3194 42.018 22.7454 42.018C23.1954 42.018 23.5434 41.844 23.7894 41.496V41.862C23.7894 42.384 23.4534 42.69 22.8954 42.69C22.4694 42.69 22.1754 42.534 22.0194 42.228L21.4614 42.552C21.7194 43.038 22.1934 43.278 22.8834 43.278C23.3094 43.278 23.6754 43.158 23.9754 42.912C24.2754 42.666 24.4254 42.318 24.4254 41.862V39H23.7894V39.444ZM22.1514 41.142C21.9714 40.962 21.8814 40.74 21.8814 40.47C21.8814 40.2 21.9714 39.978 22.1514 39.798C22.3374 39.618 22.5654 39.528 22.8354 39.528C23.1054 39.528 23.3334 39.618 23.5134 39.798C23.6994 39.978 23.7894 40.2 23.7894 40.47C23.7894 40.74 23.6994 40.962 23.5134 41.142C23.3334 41.322 23.1054 41.412 22.8354 41.412C22.5654 41.412 22.3374 41.322 22.1514 41.142ZM27.5567 39.426C27.3107 39.09 26.9627 38.922 26.5067 38.922C26.0927 38.922 25.7447 39.072 25.4507 39.378C25.1567 39.684 25.0127 40.056 25.0127 40.5C25.0127 40.938 25.1567 41.316 25.4507 41.622C25.7447 41.928 26.0927 42.078 26.5067 42.078C26.9627 42.078 27.3107 41.91 27.5567 41.568V42H28.2047V39H27.5567V39.426ZM25.9307 41.19C25.7507 41.004 25.6607 40.776 25.6607 40.5C25.6607 40.224 25.7507 39.996 25.9307 39.816C26.1107 39.63 26.3387 39.54 26.6087 39.54C26.8787 39.54 27.1067 39.63 27.2867 39.816C27.4667 39.996 27.5567 40.224 27.5567 40.5C27.5567 40.776 27.4667 41.004 27.2867 41.19C27.1067 41.37 26.8787 41.46 26.6087 41.46C26.3387 41.46 26.1107 41.37 25.9307 41.19ZM30.538 38.922C30.112 38.922 29.806 39.078 29.608 39.384V39H28.96V42H29.608V40.392C29.608 39.81 29.914 39.528 30.37 39.528C30.784 39.528 31.042 39.774 31.042 40.224V42H31.69V40.158C31.69 39.39 31.228 38.922 30.538 38.922ZM32.9998 38.43C33.1678 38.262 33.1678 38.01 33.0058 37.848C32.8438 37.68 32.5798 37.68 32.4178 37.848C32.2558 38.01 32.2558 38.262 32.4178 38.43C32.5858 38.592 32.8378 38.592 32.9998 38.43ZM33.0358 42V39H32.3878V42H33.0358ZM35.2042 42.078C35.7862 42.078 36.2962 41.778 36.5542 41.298L35.9962 40.98C35.8522 41.262 35.5522 41.442 35.1982 41.442C34.9342 41.442 34.7122 41.352 34.5322 41.172C34.3582 40.992 34.2682 40.77 34.2682 40.5C34.2682 40.23 34.3582 40.008 34.5322 39.828C34.7122 39.648 34.9342 39.558 35.1982 39.558C35.5582 39.558 35.8462 39.732 35.9842 40.02L36.5422 39.696C36.3022 39.222 35.7862 38.922 35.2042 38.922C34.7542 38.922 34.3762 39.072 34.0702 39.378C33.7702 39.678 33.6202 40.05 33.6202 40.5C33.6202 40.944 33.7702 41.316 34.0702 41.622C34.3762 41.928 34.7542 42.078 35.2042 42.078Z" fill="white"/>
<path d="M27.8 9C27.9297 9.08998 28.0838 9.04575 28.2258 9.07168C29.4558 9.2974 30.315 9.98371 30.7209 11.1642C31.1268 12.3461 30.8949 13.4458 30.0311 14.3425C28.4135 16.0248 26.7561 17.6673 25.1187 19.3297C25.0362 19.4121 24.992 19.4273 24.9019 19.3358C23.2477 17.649 21.5613 15.9927 19.9422 14.2739C18.3428 12.578 19.1883 9.73206 21.4286 9.10676C21.5476 9.07321 21.6804 9.08541 21.7826 9H22.6418C22.6479 9.03508 22.6739 9.03813 22.7044 9.0427C23.2431 9.10981 23.7208 9.32333 24.142 9.65733C24.3266 9.80375 24.4899 9.97456 24.6593 10.1393C24.9126 10.3848 25.1019 10.3848 25.3567 10.1332C25.4132 10.0783 25.4681 10.0218 25.5231 9.96693C25.9702 9.5216 26.5043 9.23792 27.1193 9.09913C27.2735 9.06406 27.4429 9.09456 27.5833 9H27.7985H27.8ZM19.8964 12.1723C19.9101 12.6847 20.0536 13.1545 20.3542 13.5739C20.5022 13.7813 20.7235 13.8377 20.9112 13.7172C21.1112 13.5891 21.1463 13.3619 21.0028 13.1377C20.5343 12.4041 20.577 11.7102 21.131 11.0528C21.3065 10.8439 21.3034 10.6227 21.1234 10.4657C20.9494 10.3131 20.7189 10.3406 20.5373 10.5373C20.1146 11.001 19.9116 11.55 19.8949 12.1738L19.8964 12.1723ZM22.3641 9.78697C22.0695 9.77782 21.891 9.91966 21.8681 10.1316C21.8437 10.3543 21.9749 10.519 22.2145 10.5648C22.3335 10.5877 22.4526 10.6075 22.5716 10.6243C22.7822 10.6548 22.9837 10.5236 23.0294 10.3284C23.0813 10.1072 22.973 9.90898 22.7486 9.84797C22.6052 9.80985 22.4541 9.79917 22.3625 9.78544L22.3641 9.78697Z" fill="white"/>
<path d="M14.0015 19.9976C14.1099 19.7337 14.1007 19.4455 14.1679 19.1725C14.2457 18.8614 14.319 18.5502 14.4365 18.2361C15.2407 18.7653 16.0938 19.1557 17.0033 19.4226C17.7328 19.6377 18.4897 19.7139 19.2314 19.8664C20.3271 20.0906 21.3725 20.4322 22.2607 21.146C23.0772 21.8018 23.654 22.633 24.06 23.5893C24.0844 23.6488 24.0996 23.7006 24.0767 23.7723C23.6739 25.0549 23.4678 26.3696 23.4556 27.762C23.2939 27.5577 23.1611 27.3884 23.0268 27.2206C21.6732 25.5231 20.0952 24.0697 18.3036 22.8435C18.1784 22.7581 18.0563 22.6711 17.8885 22.7276C17.7404 22.7779 17.6412 22.8725 17.6138 23.0265C17.5817 23.2065 17.6519 23.3391 17.8076 23.4429C18.6652 24.0178 19.4725 24.6569 20.231 25.3569C21.313 26.3559 22.2821 27.454 23.1245 28.6619C23.1397 28.6847 23.155 28.7076 23.1794 28.7473C22.9245 28.8357 22.6682 28.8479 22.4179 28.8723C20.3806 29.066 18.5187 28.6176 16.9194 27.3014C15.436 26.0813 14.5753 24.486 14.1694 22.6254C14.1068 22.3371 14.1099 22.0367 14 21.7576V19.9961L14.0015 19.9976Z" fill="white"/>
<path d="M35.4865 18.2562C35.7429 19.0096 35.897 19.7722 35.9611 20.55C36.1443 22.7599 35.6849 24.831 34.5541 26.7405C33.26 28.923 31.3417 30.2392 28.874 30.7836C27.8668 31.0063 26.8504 31.0185 25.805 30.988C26.0584 30.4542 26.3437 29.9631 26.649 29.4827C27.9324 27.4649 29.5516 25.7675 31.5202 24.4025C31.5736 24.3659 31.627 24.3308 31.6774 24.2911C31.8682 24.1432 31.9124 23.9038 31.7858 23.7238C31.656 23.5408 31.4241 23.5011 31.2165 23.6384C30.6916 23.9861 30.1895 24.3674 29.7072 24.7731C27.792 26.3821 26.2659 28.3007 25.1397 30.5335C25.0634 30.6845 25.0191 30.6693 24.9306 30.5549C24.4972 30.0012 24.2118 29.4003 24.224 28.6713C24.2454 27.3673 24.3095 26.0695 24.5933 24.7899C25.0817 22.5952 26.5147 21.2851 28.5642 20.5591C29.4646 20.2404 30.4047 20.0864 31.3401 19.9247C32.8113 19.6685 34.1649 19.1225 35.4087 18.2974C35.427 18.2852 35.4468 18.2775 35.488 18.2562H35.4865Z" fill="white"/>
</svg>
