<svg width="50" height="50" viewBox="0 0 50 50" fill="none" xmlns="http://www.w3.org/2000/svg">
<rect x="0.5" y="0.5" width="49" height="49" rx="12.5" fill="white" stroke="#FF6D04"/>
<path d="M18.2679 41.448C18.6939 41.022 18.9039 40.506 18.9039 39.9C18.9039 39.294 18.6939 38.778 18.2679 38.358C17.8479 37.932 17.3319 37.722 16.7259 37.722C16.1199 37.722 15.6039 37.932 15.1779 38.358C14.7579 38.778 14.5479 39.294 14.5479 39.9C14.5479 40.506 14.7579 41.022 15.1779 41.448C15.6039 41.868 16.1199 42.078 16.7259 42.078C17.3319 42.078 17.8479 41.868 18.2679 41.448ZM15.6639 40.98C15.3819 40.692 15.2379 40.332 15.2379 39.9C15.2379 39.468 15.3819 39.108 15.6639 38.826C15.9519 38.538 16.3059 38.394 16.7259 38.394C17.1459 38.394 17.4999 38.538 17.7819 38.826C18.0699 39.108 18.2139 39.468 18.2139 39.9C18.2139 40.332 18.0699 40.692 17.7819 40.98C17.4999 41.262 17.1459 41.406 16.7259 41.406C16.3059 41.406 15.9519 41.262 15.6639 40.98ZM20.1393 39H19.4913V42H20.1393V40.488C20.1393 40.182 20.2293 39.96 20.4153 39.828C20.6013 39.69 20.8173 39.63 21.0633 39.648V38.946C20.6133 38.946 20.3013 39.132 20.1393 39.504V39ZM23.7894 39.444C23.5434 39.096 23.1954 38.922 22.7454 38.922C22.3194 38.922 21.9654 39.072 21.6714 39.378C21.3774 39.678 21.2334 40.044 21.2334 40.47C21.2334 40.896 21.3774 41.262 21.6714 41.568C21.9654 41.868 22.3194 42.018 22.7454 42.018C23.1954 42.018 23.5434 41.844 23.7894 41.496V41.862C23.7894 42.384 23.4534 42.69 22.8954 42.69C22.4694 42.69 22.1754 42.534 22.0194 42.228L21.4614 42.552C21.7194 43.038 22.1934 43.278 22.8834 43.278C23.3094 43.278 23.6754 43.158 23.9754 42.912C24.2754 42.666 24.4254 42.318 24.4254 41.862V39H23.7894V39.444ZM22.1514 41.142C21.9714 40.962 21.8814 40.74 21.8814 40.47C21.8814 40.2 21.9714 39.978 22.1514 39.798C22.3374 39.618 22.5654 39.528 22.8354 39.528C23.1054 39.528 23.3334 39.618 23.5134 39.798C23.6994 39.978 23.7894 40.2 23.7894 40.47C23.7894 40.74 23.6994 40.962 23.5134 41.142C23.3334 41.322 23.1054 41.412 22.8354 41.412C22.5654 41.412 22.3374 41.322 22.1514 41.142ZM27.5567 39.426C27.3107 39.09 26.9627 38.922 26.5067 38.922C26.0927 38.922 25.7447 39.072 25.4507 39.378C25.1567 39.684 25.0127 40.056 25.0127 40.5C25.0127 40.938 25.1567 41.316 25.4507 41.622C25.7447 41.928 26.0927 42.078 26.5067 42.078C26.9627 42.078 27.3107 41.91 27.5567 41.568V42H28.2047V39H27.5567V39.426ZM25.9307 41.19C25.7507 41.004 25.6607 40.776 25.6607 40.5C25.6607 40.224 25.7507 39.996 25.9307 39.816C26.1107 39.63 26.3387 39.54 26.6087 39.54C26.8787 39.54 27.1067 39.63 27.2867 39.816C27.4667 39.996 27.5567 40.224 27.5567 40.5C27.5567 40.776 27.4667 41.004 27.2867 41.19C27.1067 41.37 26.8787 41.46 26.6087 41.46C26.3387 41.46 26.1107 41.37 25.9307 41.19ZM30.538 38.922C30.112 38.922 29.806 39.078 29.608 39.384V39H28.96V42H29.608V40.392C29.608 39.81 29.914 39.528 30.37 39.528C30.784 39.528 31.042 39.774 31.042 40.224V42H31.69V40.158C31.69 39.39 31.228 38.922 30.538 38.922ZM32.9998 38.43C33.1678 38.262 33.1678 38.01 33.0058 37.848C32.8438 37.68 32.5798 37.68 32.4178 37.848C32.2558 38.01 32.2558 38.262 32.4178 38.43C32.5858 38.592 32.8378 38.592 32.9998 38.43ZM33.0358 42V39H32.3878V42H33.0358ZM35.2042 42.078C35.7862 42.078 36.2962 41.778 36.5542 41.298L35.9962 40.98C35.8522 41.262 35.5522 41.442 35.1982 41.442C34.9342 41.442 34.7122 41.352 34.5322 41.172C34.3582 40.992 34.2682 40.77 34.2682 40.5C34.2682 40.23 34.3582 40.008 34.5322 39.828C34.7122 39.648 34.9342 39.558 35.1982 39.558C35.5582 39.558 35.8462 39.732 35.9842 40.02L36.5422 39.696C36.3022 39.222 35.7862 38.922 35.2042 38.922C34.7542 38.922 34.3762 39.072 34.0702 39.378C33.7702 39.678 33.6202 40.05 33.6202 40.5C33.6202 40.944 33.7702 41.316 34.0702 41.622C34.3762 41.928 34.7542 42.078 35.2042 42.078Z" fill="#FF6D04"/>
<path d="M35.9997 22.8355C35.9069 22.9467 35.9349 23.0869 35.9185 23.2126C35.6526 25.278 34.8938 27.1356 33.5569 28.7388C32.3215 30.2202 30.7564 31.1842 28.8781 31.6397C27.8042 31.8998 26.7157 32.0284 25.6108 31.9965C25.3266 31.9888 25.0423 31.9704 24.7601 31.9452C24.3782 31.9104 24.2381 31.6764 24.386 31.3196C24.7784 30.3691 25.3024 29.492 25.8959 28.6556C27.17 26.8619 28.7351 25.3631 30.5428 24.1148C30.623 24.0587 30.7052 24.0055 30.8076 24.0074C30.972 24.0113 31.0928 24.0877 31.1624 24.2376C31.2272 24.3758 31.204 24.5412 31.0918 24.6524C31.029 24.7152 30.9517 24.7636 30.8782 24.8148C28.5417 26.4345 26.7089 28.4999 25.3855 31.017C25.3517 31.0808 25.2956 31.1378 25.3072 31.2297C25.7838 31.2616 26.2613 31.2616 26.7379 31.2297C27.7191 31.1649 28.678 30.9821 29.5973 30.6215C32.015 29.6729 33.6323 27.9343 34.5603 25.5352C35.1335 24.0538 35.3278 22.5144 35.1848 20.9325C35.1229 20.2411 34.916 19.3099 34.714 18.8206C34.6473 18.8138 34.6048 18.8632 34.5564 18.8941C33.3075 19.7112 31.9445 20.2266 30.4712 20.4645C29.5055 20.6201 28.5446 20.8048 27.6302 21.1694C26.5446 21.6016 25.6127 22.2388 24.9292 23.2029C24.4633 23.8604 24.2187 24.6108 24.0534 25.3911C23.8321 26.4355 23.7799 27.4962 23.7451 28.558C23.7373 28.79 23.7422 29.0221 23.7393 29.2542C23.7354 29.5317 23.6445 29.6468 23.3806 29.7164C23.0046 29.816 22.6208 29.8808 22.2351 29.9243C21.1089 30.05 19.9953 29.9755 18.8981 29.6854C17.7497 29.3818 16.7415 28.8152 15.8656 28.0184C14.4939 26.772 13.65 25.2171 13.2392 23.4224C12.8921 21.9072 12.9144 20.3968 13.361 18.8999C13.4354 18.6495 13.5417 18.4097 13.6191 18.1611C13.7186 17.843 14.0406 17.7579 14.3141 17.9581C15.1551 18.5711 16.088 18.9966 17.0933 19.2674C17.5921 19.4018 18.1045 19.4675 18.611 19.5584C19.4433 19.7073 20.2611 19.9046 21.0355 20.2566C22.3066 20.8348 23.2492 21.7612 23.9278 22.9699C23.9606 23.0288 23.9935 23.0869 24.0254 23.1449C24.0612 23.1468 24.0795 23.1255 24.094 23.1004C24.7939 21.9265 25.8205 21.1355 27.0492 20.5824C27.8854 20.2063 28.7699 19.9906 29.6679 19.8311C30.506 19.6812 31.3451 19.5458 32.1504 19.2509C33.0039 18.9376 33.8121 18.5383 34.5381 17.9919C34.9373 17.6912 35.1983 17.8478 35.3394 18.2317C35.6488 19.0711 35.8585 19.9297 35.9542 20.8184C35.9591 20.8638 35.9281 20.9276 36.0006 20.9518V22.8384L35.9997 22.8355ZM22.9766 28.1866C22.9766 28.0532 22.9766 27.9671 22.9766 27.8811C22.9766 27.5291 23.0085 27.1781 23.0442 26.829C23.1351 25.9423 23.3139 25.073 23.5846 24.2231C23.6107 24.1409 23.6107 24.0683 23.5749 23.9861C22.9359 22.5086 21.9238 21.4063 20.4032 20.8097C19.5767 20.4857 18.7096 20.331 17.8406 20.1898C16.6168 19.9916 15.4751 19.5787 14.4214 18.9231C14.3489 18.8786 14.2851 18.8148 14.1933 18.7993C13.9487 19.483 13.8172 20.1802 13.7815 20.8919C13.7061 22.3926 13.9922 23.8237 14.6728 25.1658C15.5621 26.919 16.8971 28.1847 18.7754 28.8326C19.8764 29.2126 21.0103 29.2909 22.1616 29.1526C22.3028 29.1352 22.4584 29.1526 22.5908 29.0666C22.5348 28.9225 22.4536 28.8055 22.3772 28.6866C21.9577 28.029 21.4724 27.4218 20.9446 26.8484C19.9373 25.7538 18.8092 24.7984 17.5883 23.9504C17.5148 23.8991 17.4384 23.8508 17.3708 23.7928C17.2528 23.6922 17.2035 23.5616 17.2432 23.4108C17.2847 23.2522 17.394 23.1555 17.5554 23.1226C17.683 23.0965 17.7874 23.1546 17.8879 23.2242C18.2823 23.4949 18.6719 23.7724 19.0499 24.0664C20.3375 25.0672 21.514 26.1792 22.4893 27.4924C22.6479 27.7061 22.7958 27.9275 22.9775 28.1866H22.9766Z" fill="#FF6D04"/>
<path d="M27.6472 9C27.7342 9.08799 27.855 9.05028 27.9575 9.07446C29.5641 9.44094 30.5462 10.4533 30.9165 12.0314C31.2413 13.419 30.8421 14.6306 29.8425 15.6431C28.6023 16.9001 27.3601 18.1543 26.1188 19.4103C25.6983 19.8358 25.2778 20.2622 24.8573 20.6887C24.6021 20.9469 24.4107 20.9478 24.1517 20.6867C22.4754 18.9975 20.7973 17.3111 19.1268 15.6169C18.311 14.7902 17.9291 13.7855 18.0007 12.6271C18.1138 10.7705 19.4961 9.37131 21.1182 9.08123C21.2284 9.06189 21.3541 9.08413 21.4498 9H22.1236C22.1303 9.03578 22.1574 9.04158 22.1883 9.04448C23.0168 9.12184 23.7331 9.45351 24.3527 10.0037C24.4011 10.0472 24.4368 10.1091 24.5093 10.1275C24.5267 10.1149 24.5461 10.1052 24.5615 10.0907C25.1029 9.56277 25.7428 9.22047 26.4852 9.06962C26.5423 9.05802 26.6254 9.08219 26.6583 9H27.6462H27.6472ZM24.5161 19.9286C24.5335 19.9141 24.5577 19.8977 24.577 19.8774C26.1865 18.2481 27.8047 16.6274 29.4007 14.9855C30.0861 14.2796 30.349 13.4103 30.2137 12.4298C29.8995 10.1468 27.2209 9.02224 25.3706 10.3953C25.1647 10.5481 24.9907 10.7328 24.8071 10.9088C24.6002 11.1061 24.4059 11.1041 24.1971 10.9069C24.0879 10.8044 23.9864 10.6941 23.8771 10.5916C22.8331 9.60435 21.2323 9.49315 20.0597 10.3257C18.4995 11.4329 18.3023 13.6598 19.6537 15.0397C21.2245 16.6439 22.808 18.2365 24.3856 19.8329C24.4214 19.8687 24.4465 19.9199 24.5151 19.9296L24.5161 19.9286Z" fill="#FF6D04"/>
<path d="M20.4702 11.1052C20.7573 11.1052 20.938 11.4059 20.8027 11.6621C20.7785 11.7076 20.7428 11.7472 20.7089 11.7878C20.1995 12.3961 20.1473 13.0865 20.5659 13.7508C20.6268 13.8475 20.678 13.9451 20.6645 14.0631C20.6471 14.2149 20.534 14.3542 20.3928 14.387C20.2256 14.4257 20.0796 14.3841 19.9762 14.241C19.7896 13.9848 19.6572 13.7034 19.5895 13.393C19.4126 12.5827 19.6088 11.871 20.1599 11.255C20.2681 11.1342 20.3397 11.1052 20.4702 11.1061V11.1052Z" fill="#FF6D04"/>
<path d="M21.9557 10.5278C22.0611 10.5413 22.181 10.549 22.297 10.5742C22.4893 10.6148 22.6169 10.7995 22.5957 10.989C22.5734 11.1863 22.4207 11.34 22.2225 11.3362C22.0514 11.3333 21.8794 11.3139 21.7121 11.281C21.5478 11.2482 21.4415 11.0867 21.4434 10.9136C21.4453 10.7328 21.5613 10.5839 21.7411 10.5442C21.8059 10.5297 21.8745 10.5345 21.9557 10.5287V10.5278Z" fill="#FF6D04"/>
</svg>
