<svg width="50" height="50" viewBox="0 0 50 50" fill="none" xmlns="http://www.w3.org/2000/svg">
<rect x="0.5" y="0.5" width="49" height="49" rx="12.5" fill="#F096AF" stroke="#F096AF"/>
<path d="M19.8936 37.8V42H20.5836V40.56H21.4416C21.8376 40.56 22.1676 40.428 22.4316 40.164C22.7016 39.894 22.8336 39.57 22.8336 39.18C22.8336 38.79 22.7016 38.46 22.4316 38.196C22.1676 37.932 21.8376 37.8 21.4416 37.8H19.8936ZM20.5836 39.912V38.448H21.4416C21.8496 38.448 22.1436 38.754 22.1436 39.18C22.1436 39.606 21.8496 39.912 21.4416 39.912H20.5836ZM24.5958 42.078C25.0398 42.078 25.4118 41.928 25.7178 41.622C26.0238 41.316 26.1798 40.944 26.1798 40.5C26.1798 40.056 26.0238 39.684 25.7178 39.378C25.4118 39.072 25.0398 38.922 24.5958 38.922C24.1578 38.922 23.7798 39.072 23.4738 39.378C23.1678 39.684 23.0118 40.056 23.0118 40.5C23.0118 40.944 23.1678 41.316 23.4738 41.622C23.7798 41.928 24.1578 42.078 24.5958 42.078ZM23.9298 41.178C23.7498 40.998 23.6598 40.77 23.6598 40.5C23.6598 40.23 23.7498 40.002 23.9298 39.822C24.1098 39.642 24.3318 39.552 24.5958 39.552C24.8598 39.552 25.0818 39.642 25.2618 39.822C25.4418 40.002 25.5318 40.23 25.5318 40.5C25.5318 40.77 25.4418 40.998 25.2618 41.178C25.0818 41.358 24.8598 41.448 24.5958 41.448C24.3318 41.448 24.1098 41.358 23.9298 41.178ZM27.4137 39H26.7657V42H27.4137V40.488C27.4137 40.182 27.5037 39.96 27.6897 39.828C27.8757 39.69 28.0917 39.63 28.3377 39.648V38.946C27.8877 38.946 27.5757 39.132 27.4137 39.504V39ZM30.1005 40.47L31.4205 39H30.6285L29.4645 40.326V37.8H28.8165V42H29.4645V40.614L30.6945 42H31.4685L30.1005 40.47Z" fill="white"/>
<path d="M11 21.1057V18.7144C11.0731 18.7834 11.1249 18.7052 11.1782 18.6806C12.6514 17.995 13.8488 16.9842 14.7385 15.6144C15.0341 15.1588 15.3982 14.7692 15.843 14.4579C16.1355 14.2539 16.1416 14.2493 16.265 14.579C16.6017 15.4748 17.2309 15.9994 18.1861 16.0746C18.6294 16.1098 19.0773 16.0868 19.5237 16.0807C19.8299 16.0761 20.031 15.8874 20.0401 15.6175C20.0493 15.3352 19.8405 15.1328 19.5221 15.1266C19.1459 15.1205 18.768 15.1251 18.3918 15.1251C17.8007 15.1251 17.3985 14.8505 17.1806 14.2968C16.8455 13.447 16.5057 12.6003 16.1706 11.7521C16.1142 11.611 16.0335 11.4775 16.0197 11.2981C16.2315 11.3288 16.4296 11.3487 16.6215 11.3886C17.7336 11.6187 18.6599 12.1724 19.3226 13.0942C19.6577 13.5605 20.034 13.7047 20.5931 13.7032C25.1528 13.6817 29.7125 13.6909 34.2721 13.6894C34.5616 13.6894 34.8541 13.6863 35.1268 13.7738C35.4284 13.8689 35.7285 13.8735 36.0348 13.8704C36.6182 13.8643 37.0433 13.47 37.0509 12.9286C37.0585 12.3733 36.6289 11.9622 36.0332 11.9576C35.5975 11.9546 35.1603 11.9607 34.7246 11.9561C34.4016 11.9515 34.1944 11.7552 34.199 11.4729C34.2021 11.1907 34.4077 11.0051 34.7353 11.002C35.2106 10.9974 35.6874 11.002 36.1627 11.002C36.3425 11.002 36.5177 11.0373 36.6868 11.0971C37.45 11.3702 37.9055 11.9178 37.9878 12.72C38.0716 13.5375 37.7258 14.1787 37.0113 14.5821C36.7965 14.7033 36.8117 14.7616 36.9534 14.9303C37.2444 15.2754 37.4257 15.6819 37.5445 16.1206C37.6892 16.6605 37.6466 17.2081 37.6466 17.7542C37.6466 19.0579 37.2246 20.2114 36.3867 21.2084C35.9327 21.7484 35.4772 22.2883 35.0125 22.819C34.8602 22.9939 34.7855 23.1749 34.7901 23.4111C34.8008 24.198 34.7901 24.9864 34.7962 25.7732C34.7962 25.9282 34.7642 26.0601 34.6865 26.1951C34.2005 27.0387 33.7222 27.8854 33.2438 28.7321C33.1966 28.8149 33.1143 28.8855 33.128 28.9974H32.057C32.0677 28.4989 32.2109 28.0188 32.2658 27.528C32.3069 27.1645 32.4669 26.8101 32.3846 26.4405C32.249 25.8407 32.0875 25.2456 31.9413 24.6474C31.9062 24.5063 31.8453 24.3897 31.7326 24.2977C30.6372 23.4203 30.0705 22.2775 30.0324 20.8695C30.0248 20.5826 29.8252 20.3924 29.5662 20.3893C29.295 20.3847 29.097 20.5872 29.0863 20.8863C29.0741 21.1962 29.1168 21.5029 29.1732 21.8066C29.3605 22.8297 29.8176 23.7179 30.5184 24.4863C30.4833 24.5109 30.462 24.5339 30.4361 24.5431C28.8136 25.0401 27.1592 25.1827 25.4773 24.9649C24.1732 24.7962 22.9331 24.4066 21.7525 23.8237C21.4219 23.6611 21.233 23.7194 21.0227 24.0308C20.7668 24.4096 20.5276 24.7992 20.261 25.1689C20.095 25.399 20.031 25.6367 20.0386 25.919C20.0538 26.5003 20.0843 27.074 19.7415 27.6139C19.481 28.025 19.3454 28.5097 19.2693 29.0005H17.9012C17.854 28.8272 17.9637 28.6876 18.0078 28.5357C18.081 28.2796 18.1571 28.0388 18.1023 27.7519C17.953 26.9911 17.8342 26.2242 17.7245 25.4557C17.6742 25.106 17.5508 24.8222 17.2827 24.5799C16.9079 24.2409 16.5606 23.8697 16.2071 23.5062C16.07 23.3651 15.9177 23.2792 15.7242 23.2393C14.8497 23.0568 14.0118 22.7669 13.1983 22.3972C12.4214 22.0429 11.7221 21.5582 11.0015 21.1072L11 21.1057ZM15.7562 17.745C15.7516 17.3523 15.4165 17.0302 15.0249 17.0394C14.6456 17.0486 14.3333 17.3707 14.3318 17.7526C14.3302 18.1468 14.6563 18.4766 15.0478 18.472C15.4393 18.4689 15.7623 18.1376 15.7562 17.7434V17.745Z" fill="white"/>
<path d="M35.625 28.9989C35.6372 28.7167 35.7956 28.485 35.9358 28.2688C36.2268 27.8163 36.2679 27.373 36.0287 26.8959C35.6737 26.1888 35.8032 25.4204 35.7286 24.6749C35.6387 23.7822 35.8779 23.0705 36.5467 22.4845C36.7219 22.3311 36.8575 22.1317 37.0723 21.8817C36.9672 22.5213 36.8971 23.0766 36.7813 23.6227C36.6914 24.0475 36.7082 24.4341 36.8971 24.8344C37.1286 25.3268 37.3038 25.8468 37.5156 26.3499C37.5872 26.5217 37.575 26.6551 37.4882 26.8223C37.1576 27.4558 36.8453 28.0985 36.533 28.7397C36.4949 28.8179 36.4035 28.89 36.4583 28.9974H35.625V28.9989Z" fill="white"/>
</svg>
