<svg width="50" height="50" viewBox="0 0 50 50" fill="none" xmlns="http://www.w3.org/2000/svg">
<rect x="0.5" y="0.5" width="49" height="49" rx="12.5" fill="white" stroke="#F096AF"/>
<path d="M19.8936 37.8V42H20.5836V40.56H21.4416C21.8376 40.56 22.1676 40.428 22.4316 40.164C22.7016 39.894 22.8336 39.57 22.8336 39.18C22.8336 38.79 22.7016 38.46 22.4316 38.196C22.1676 37.932 21.8376 37.8 21.4416 37.8H19.8936ZM20.5836 39.912V38.448H21.4416C21.8496 38.448 22.1436 38.754 22.1436 39.18C22.1436 39.606 21.8496 39.912 21.4416 39.912H20.5836ZM24.5958 42.078C25.0398 42.078 25.4118 41.928 25.7178 41.622C26.0238 41.316 26.1798 40.944 26.1798 40.5C26.1798 40.056 26.0238 39.684 25.7178 39.378C25.4118 39.072 25.0398 38.922 24.5958 38.922C24.1578 38.922 23.7798 39.072 23.4738 39.378C23.1678 39.684 23.0118 40.056 23.0118 40.5C23.0118 40.944 23.1678 41.316 23.4738 41.622C23.7798 41.928 24.1578 42.078 24.5958 42.078ZM23.9298 41.178C23.7498 40.998 23.6598 40.77 23.6598 40.5C23.6598 40.23 23.7498 40.002 23.9298 39.822C24.1098 39.642 24.3318 39.552 24.5958 39.552C24.8598 39.552 25.0818 39.642 25.2618 39.822C25.4418 40.002 25.5318 40.23 25.5318 40.5C25.5318 40.77 25.4418 40.998 25.2618 41.178C25.0818 41.358 24.8598 41.448 24.5958 41.448C24.3318 41.448 24.1098 41.358 23.9298 41.178ZM27.4137 39H26.7657V42H27.4137V40.488C27.4137 40.182 27.5037 39.96 27.6897 39.828C27.8757 39.69 28.0917 39.63 28.3377 39.648V38.946C27.8877 38.946 27.5757 39.132 27.4137 39.504V39ZM30.1005 40.47L31.4205 39H30.6285L29.4645 40.326V37.8H28.8165V42H29.4645V40.614L30.6945 42H31.4685L30.1005 40.47Z" fill="#F096AF"/>
<path d="M17.5773 29.9995C17.2647 29.7313 17.2098 29.6314 17.3867 29.2469C17.7161 28.5331 17.7572 27.8162 17.5392 27.0696C17.4858 26.8863 17.4568 26.6925 17.4492 26.5018C17.4263 25.9951 17.164 25.6404 16.8041 25.2886C16.3954 24.8877 15.9608 24.6299 15.3905 24.4928C13.8548 24.1232 12.5052 23.3587 11.2211 22.4764C11.0732 22.3751 11 22.238 11 22.0576C11.0015 21.2067 11.003 20.3572 11 19.5062C11 19.2618 11.1327 19.1247 11.3446 19.0249C11.9836 18.7223 12.6195 18.4138 13.1777 17.9742C13.7511 17.5226 14.2467 17.0025 14.6493 16.4019C15.0717 15.773 15.5979 15.2484 16.2658 14.8699C16.4137 14.7864 16.3969 14.7134 16.3451 14.5882C16.0874 13.9727 15.8358 13.3542 15.5841 12.7357C15.3889 12.2588 15.5719 12.0114 16.1057 11.9995C17.9235 11.9623 19.3997 12.6299 20.519 14.0308C20.6349 14.1769 20.76 14.1977 20.9262 14.1977C25.2434 14.1948 29.5607 14.1977 33.8795 14.1933C34.5352 14.1933 35.1605 14.3035 35.7552 14.5778C36.0724 14.7253 36.5391 14.6329 36.7998 14.39C37.0652 14.1426 37.1613 13.7551 37.0149 13.4332C36.8517 13.0755 36.5665 12.8803 36.1578 12.8788C35.7552 12.8773 35.3526 12.8788 34.95 12.8788C34.5916 12.8788 34.3888 12.7208 34.3842 12.4466C34.3797 12.1694 34.5825 12.0025 34.9348 12.001C35.3282 11.9995 35.7217 11.9995 36.1151 12.001C36.9905 12.0055 37.7072 12.5211 37.9176 13.2961C38.1357 14.1024 37.7835 14.8833 37.0088 15.314C36.9767 15.3319 36.9447 15.3512 36.8944 15.381C37.2436 15.7685 37.5349 16.1873 37.7194 16.6702C37.8841 17.1024 37.9527 17.548 37.9832 18.007C38.0732 19.3542 37.7789 20.6597 37.5562 21.9742C37.4129 22.8207 37.2726 23.6672 37.1247 24.5137C37.1033 24.6374 37.1186 24.7432 37.1658 24.8565C37.4114 25.4466 37.6447 26.0427 37.8978 26.6314C37.9939 26.855 37.9802 27.0442 37.8688 27.2559C37.4678 28.0189 37.0774 28.7864 36.69 29.5554C36.6031 29.7268 36.5009 29.8788 36.35 29.9995H34.2699C33.8978 29.779 33.8505 29.621 34.0457 29.2365C34.2653 28.8043 34.4879 28.3751 34.7091 27.9429C34.7609 27.8401 34.8372 27.7357 34.7213 27.621C34.6252 27.6657 34.6054 27.7626 34.5627 27.8356C34.2073 28.4347 33.8551 29.0353 33.5089 29.6374C33.4189 29.7924 33.3183 29.928 33.1459 29.9995H31.0659C30.8829 29.8505 30.741 29.688 30.7944 29.4243C30.8676 29.0666 30.9225 28.7059 30.9881 28.3468C31.1269 27.5778 31.3114 26.8177 31.0094 26.0353C30.9164 25.7953 30.8508 25.7596 30.6129 25.8341C28.6777 26.4436 26.7105 26.5405 24.7158 26.1679C23.8313 26.0025 22.9819 25.7342 22.1584 25.3855C22.0623 25.3453 21.9708 25.2588 21.8717 25.4019C21.5697 25.8371 21.2358 26.2469 21.3334 26.8386C21.3761 27.0979 21.405 27.3855 21.2556 27.6418C20.9109 28.2305 20.6852 28.8669 20.49 29.5152C20.4306 29.7119 20.3299 29.8728 20.1637 29.998H17.5788L17.5773 29.9995ZM30.3537 25.0025C30.25 24.8803 30.1646 24.7834 30.0838 24.6851C29.3929 23.8341 29.0285 22.8669 28.9903 21.7819C28.9781 21.4332 29.1398 21.232 29.4204 21.2216C29.701 21.2111 29.8748 21.4094 29.8886 21.7506C29.9389 22.9474 30.433 23.9339 31.3663 24.7119C31.4441 24.7775 31.5615 24.8326 31.5889 24.9146C31.8253 25.6225 32.0952 26.3319 32.1044 27.083C32.109 27.5137 31.9702 27.9474 31.8985 28.3796C31.8589 28.621 31.6881 28.9444 31.8238 29.0785C31.9504 29.2037 32.3011 29.1098 32.5527 29.1247C32.7098 29.1337 32.7998 29.0875 32.8806 28.9459C33.3396 28.1411 33.8108 27.3423 34.2836 26.545C34.3583 26.4198 34.3858 26.2976 34.3842 26.1575C34.3797 25.4436 34.3888 24.7313 34.3781 24.0174C34.3751 23.7924 34.4391 23.6165 34.5916 23.4481C35.0385 22.9548 35.4746 22.4526 35.9092 21.9503C37.0743 20.6001 37.2955 19.0129 36.9783 17.3572C36.7144 15.9801 35.4578 15.0785 34.0076 15.077C29.55 15.074 25.0909 15.074 20.6334 15.0815C20.3421 15.0815 20.1347 14.9965 19.967 14.7655C19.816 14.5569 19.6452 14.3602 19.4637 14.1769C18.6936 13.3945 17.7496 12.9727 16.6135 12.8892C16.9947 13.8192 17.3638 14.7238 17.7389 15.6269C17.9616 16.1635 18.3123 16.3915 18.9056 16.3945C19.2716 16.3959 19.636 16.3885 20.0005 16.3989C20.2537 16.4064 20.429 16.5837 20.4412 16.8117C20.4534 17.0263 20.2964 17.2573 20.0737 17.2588C19.4591 17.2648 18.8339 17.3572 18.23 17.1858C17.5056 16.9816 17.0695 16.4824 16.8392 15.7983C16.7858 15.6374 16.7279 15.6031 16.5723 15.7104C16.185 15.9757 15.822 16.2693 15.5674 16.6568C14.692 17.9936 13.5284 19.004 12.0507 19.6657C11.944 19.7134 11.8936 19.7655 11.8952 19.8877C11.9013 20.5003 11.8997 21.1128 11.8952 21.7253C11.8952 21.8281 11.9287 21.8863 12.0156 21.9459C13.3073 22.8281 14.6996 23.4943 16.2521 23.8088C16.5098 23.8609 16.7157 23.9712 16.8971 24.159C17.2372 24.5122 17.5925 24.8505 17.9479 25.1888C18.0958 25.3289 18.1827 25.4824 18.2102 25.6851C18.2635 26.074 18.3444 26.4585 18.4115 26.846C18.5396 27.6016 18.7729 28.3587 18.3932 29.1247C18.7637 29.1247 19.1282 29.1187 19.4927 29.1277C19.6299 29.1307 19.6848 29.086 19.7245 28.9563C19.8206 28.6418 19.8892 28.305 20.06 28.0308C20.4062 27.4809 20.4885 26.8982 20.4397 26.2782C20.4351 26.2231 20.4428 26.1679 20.4397 26.1143C20.4306 25.9801 20.4763 25.8654 20.5526 25.7551C20.8301 25.3542 21.1 24.9489 21.3791 24.5494C21.5667 24.2797 21.7497 24.2275 22.0501 24.3736C23.3296 24.9891 24.6792 25.3661 26.102 25.4779C27.534 25.5897 28.9385 25.4421 30.3506 25.007L30.3537 25.0025ZM36.5391 22.5927C36.3347 22.8222 36.202 23.0114 36.0297 23.1575C35.4014 23.688 35.226 24.3393 35.2626 25.1441C35.2992 25.9712 35.3191 26.7804 35.6729 27.5465C35.7659 27.7477 35.7308 27.931 35.6271 28.1202C35.4533 28.4392 35.2947 28.767 35.1162 29.1187C35.3069 29.1187 35.467 29.1024 35.621 29.1232C35.8437 29.1515 35.9474 29.0621 36.0404 28.8684C36.3256 28.2737 36.6306 27.6895 36.9401 27.1068C37.0164 26.9638 37.024 26.846 36.9615 26.6985C36.7205 26.1351 36.4918 25.5673 36.2554 25.0025C36.1898 24.846 36.1776 24.6925 36.2097 24.5226C36.3225 23.9071 36.4216 23.2886 36.5406 22.5927H36.5391Z" fill="#F096AF"/>
<path d="M16.3954 18.7956C16.4015 19.1563 16.0965 19.4618 15.7275 19.4647C15.3584 19.4677 15.0488 19.1652 15.0488 18.8045C15.0488 18.4543 15.3447 18.1592 15.7031 18.1503C16.0736 18.1399 16.3878 18.4349 16.3939 18.7956H16.3954Z" fill="#F096AF"/>
</svg>
