<svg width="50" height="50" viewBox="0 0 50 50" fill="none" xmlns="http://www.w3.org/2000/svg">
<rect x="0.5" y="0.5" width="49" height="49" rx="12.5" fill="#E40200" stroke="#E40200"/>
<path d="M19.3004 42.078C19.7444 42.078 20.1044 41.97 20.3744 41.748C20.6504 41.526 20.7884 41.22 20.7884 40.842C20.8184 40.44 20.5784 40.152 20.3564 39.978C20.2904 39.924 20.1884 39.864 20.0504 39.81C19.9184 39.756 19.8164 39.714 19.7384 39.69C19.6664 39.66 19.5524 39.624 19.3904 39.57C18.7484 39.372 18.5444 39.228 18.5444 38.916C18.5444 38.598 18.8024 38.394 19.2044 38.394C19.6184 38.394 19.9124 38.592 20.0864 38.982L20.6684 38.646C20.3984 38.07 19.8764 37.722 19.2044 37.722C18.8324 37.722 18.5144 37.83 18.2504 38.052C17.9864 38.268 17.8544 38.562 17.8544 38.934C17.8544 39.312 17.9924 39.588 18.2624 39.78C18.5444 39.966 18.7424 40.044 19.1444 40.164C19.4984 40.272 19.7504 40.374 19.8884 40.464C20.0264 40.554 20.0984 40.68 20.0984 40.854C20.0984 41.184 19.8404 41.406 19.3184 41.406C18.7904 41.406 18.4424 41.172 18.2744 40.698L17.6804 41.046C17.9024 41.688 18.4904 42.078 19.3004 42.078ZM23.0448 38.922C22.5888 38.922 22.2408 39.09 21.9948 39.432V39H21.3468V43.2H21.9948V41.574C22.2408 41.91 22.5888 42.078 23.0448 42.078C23.4588 42.078 23.8068 41.928 24.1008 41.622C24.3948 41.316 24.5388 40.944 24.5388 40.5C24.5388 40.062 24.3948 39.69 24.1008 39.384C23.8068 39.078 23.4588 38.922 23.0448 38.922ZM22.2648 41.19C22.0848 41.004 21.9948 40.776 21.9948 40.5C21.9948 40.224 22.0848 39.996 22.2648 39.816C22.4448 39.63 22.6728 39.54 22.9428 39.54C23.2128 39.54 23.4408 39.63 23.6208 39.816C23.8008 39.996 23.8908 40.224 23.8908 40.5C23.8908 40.776 23.8008 41.004 23.6208 41.19C23.4408 41.37 23.2128 41.46 22.9428 41.46C22.6728 41.46 22.4448 41.37 22.2648 41.19ZM25.738 38.43C25.906 38.262 25.906 38.01 25.744 37.848C25.582 37.68 25.318 37.68 25.156 37.848C24.994 38.01 24.994 38.262 25.156 38.43C25.324 38.592 25.576 38.592 25.738 38.43ZM25.774 42V39H25.126V42H25.774ZM27.9424 42.078C28.5244 42.078 29.0344 41.778 29.2924 41.298L28.7344 40.98C28.5904 41.262 28.2904 41.442 27.9364 41.442C27.6724 41.442 27.4504 41.352 27.2704 41.172C27.0964 40.992 27.0064 40.77 27.0064 40.5C27.0064 40.23 27.0964 40.008 27.2704 39.828C27.4504 39.648 27.6724 39.558 27.9364 39.558C28.2964 39.558 28.5844 39.732 28.7224 40.02L29.2804 39.696C29.0404 39.222 28.5244 38.922 27.9424 38.922C27.4924 38.922 27.1144 39.072 26.8084 39.378C26.5084 39.678 26.3584 40.05 26.3584 40.5C26.3584 40.944 26.5084 41.316 26.8084 41.622C27.1144 41.928 27.4924 42.078 27.9424 42.078ZM31.0324 41.178L30.1384 39H29.4304L30.7024 41.946L30.6724 42.006C30.5104 42.42 30.2824 42.618 29.8744 42.594V43.2C30.5644 43.242 31.0504 42.87 31.3384 42.096L32.4904 39H31.8004L31.0324 41.178Z" fill="white"/>
<path d="M35.0354 12.5322C34.88 13.0169 34.5023 13.3218 34.0896 13.6048C33.7922 13.8086 33.5114 14.0348 33.2167 14.2426C33.1088 14.3187 33.0885 14.3616 33.1863 14.4731C33.5506 14.8895 33.7074 15.3751 33.6765 15.9831C33.0867 15.1577 32.3715 14.5549 31.4797 14.149C30.5865 13.7422 29.6403 13.6017 28.5898 13.6787C29.2225 13.1389 29.8911 12.9574 30.6483 13.1166C30.8706 13.1634 31.0075 13.1271 31.1601 12.9657C31.6406 12.4574 32.1419 11.9675 32.6316 11.4671C33.012 11.0786 33.4694 10.9115 34.0177 11.0458C34.5535 11.1775 34.8846 11.5099 35.0013 12.0283C35.0036 12.0379 35.0234 12.044 35.0349 12.0519V12.5318L35.0354 12.5322Z" fill="white"/>
<path d="M20.6626 29.1511C18.731 29.1397 16.8243 28.4227 15.1098 27.1935C14.9512 27.0798 14.7953 26.9617 14.6422 26.8414C14.4324 26.6765 14.3812 26.5208 14.4836 26.3528C14.6007 26.1612 14.7829 26.1498 14.9844 26.2028C15.6899 26.3869 16.4116 26.4744 17.1406 26.4797C20.3528 26.5046 22.687 25.0379 23.9514 22.2138C24.5554 20.8652 24.8722 19.4492 25.0064 17.9978C25.1766 16.154 26.352 14.8107 28.243 14.4406C30.7741 13.9454 33.2453 15.5123 33.6414 17.8661C33.8161 18.9055 33.5653 19.8858 33.1272 20.8315C32.6772 21.8022 32.038 22.6591 31.3431 23.4837C30.3393 24.6744 29.2492 25.7793 27.9474 26.6857C26.3446 27.802 24.6108 28.6445 22.6385 28.9962C22.0654 29.0986 21.4867 29.1519 20.6626 29.1506V29.1511Z" fill="white"/>
</svg>
