<svg width="50" height="50" viewBox="0 0 50 50" fill="none" xmlns="http://www.w3.org/2000/svg">
<rect x="0.5" y="0.5" width="49" height="49" rx="12.5" fill="white" stroke="#CE4020"/>
<path d="M19.3004 42.078C19.7444 42.078 20.1044 41.97 20.3744 41.748C20.6504 41.526 20.7884 41.22 20.7884 40.842C20.8184 40.44 20.5784 40.152 20.3564 39.978C20.2904 39.924 20.1884 39.864 20.0504 39.81C19.9184 39.756 19.8164 39.714 19.7384 39.69C19.6664 39.66 19.5524 39.624 19.3904 39.57C18.7484 39.372 18.5444 39.228 18.5444 38.916C18.5444 38.598 18.8024 38.394 19.2044 38.394C19.6184 38.394 19.9124 38.592 20.0864 38.982L20.6684 38.646C20.3984 38.07 19.8764 37.722 19.2044 37.722C18.8324 37.722 18.5144 37.83 18.2504 38.052C17.9864 38.268 17.8544 38.562 17.8544 38.934C17.8544 39.312 17.9924 39.588 18.2624 39.78C18.5444 39.966 18.7424 40.044 19.1444 40.164C19.4984 40.272 19.7504 40.374 19.8884 40.464C20.0264 40.554 20.0984 40.68 20.0984 40.854C20.0984 41.184 19.8404 41.406 19.3184 41.406C18.7904 41.406 18.4424 41.172 18.2744 40.698L17.6804 41.046C17.9024 41.688 18.4904 42.078 19.3004 42.078ZM23.0448 38.922C22.5888 38.922 22.2408 39.09 21.9948 39.432V39H21.3468V43.2H21.9948V41.574C22.2408 41.91 22.5888 42.078 23.0448 42.078C23.4588 42.078 23.8068 41.928 24.1008 41.622C24.3948 41.316 24.5388 40.944 24.5388 40.5C24.5388 40.062 24.3948 39.69 24.1008 39.384C23.8068 39.078 23.4588 38.922 23.0448 38.922ZM22.2648 41.19C22.0848 41.004 21.9948 40.776 21.9948 40.5C21.9948 40.224 22.0848 39.996 22.2648 39.816C22.4448 39.63 22.6728 39.54 22.9428 39.54C23.2128 39.54 23.4408 39.63 23.6208 39.816C23.8008 39.996 23.8908 40.224 23.8908 40.5C23.8908 40.776 23.8008 41.004 23.6208 41.19C23.4408 41.37 23.2128 41.46 22.9428 41.46C22.6728 41.46 22.4448 41.37 22.2648 41.19ZM25.738 38.43C25.906 38.262 25.906 38.01 25.744 37.848C25.582 37.68 25.318 37.68 25.156 37.848C24.994 38.01 24.994 38.262 25.156 38.43C25.324 38.592 25.576 38.592 25.738 38.43ZM25.774 42V39H25.126V42H25.774ZM27.9424 42.078C28.5244 42.078 29.0344 41.778 29.2924 41.298L28.7344 40.98C28.5904 41.262 28.2904 41.442 27.9364 41.442C27.6724 41.442 27.4504 41.352 27.2704 41.172C27.0964 40.992 27.0064 40.77 27.0064 40.5C27.0064 40.23 27.0964 40.008 27.2704 39.828C27.4504 39.648 27.6724 39.558 27.9364 39.558C28.2964 39.558 28.5844 39.732 28.7224 40.02L29.2804 39.696C29.0404 39.222 28.5244 38.922 27.9424 38.922C27.4924 38.922 27.1144 39.072 26.8084 39.378C26.5084 39.678 26.3584 40.05 26.3584 40.5C26.3584 40.944 26.5084 41.316 26.8084 41.622C27.1144 41.928 27.4924 42.078 27.9424 42.078ZM31.0324 41.178L30.1384 39H29.4304L30.7024 41.946L30.6724 42.006C30.5104 42.42 30.2824 42.618 29.8744 42.594V43.2C30.5644 43.242 31.0504 42.87 31.3384 42.096L32.4904 39H31.8004L31.0324 41.178Z" fill="#E40200"/>
<path d="M35.6672 10.6858C35.5047 11.2192 35.1069 11.5553 34.6725 11.867C34.3535 12.0969 34.0498 12.3479 33.7343 12.5825C33.6366 12.656 33.626 12.698 33.7073 12.8019C34.3323 13.5979 34.4065 14.4546 33.958 15.3557C33.9215 15.4304 33.8909 15.4922 33.925 15.5774C34.5254 17.0714 34.2511 18.5059 33.6119 19.91C33.1281 20.9721 32.4442 21.9059 31.7085 22.8093C30.4608 24.3418 29.06 25.7074 27.4026 26.8045C25.9018 27.7978 24.2914 28.5308 22.4987 28.8284C22.0938 28.8961 21.6853 28.937 21.2745 28.9545C21.2027 28.958 21.1132 28.9066 21.0591 29H20.6235C20.467 28.8973 20.2869 28.944 20.1197 28.93C18.2328 28.7712 16.5577 28.0663 15.0204 27.003C14.7438 26.8115 14.4766 26.6038 14.207 26.403C14.0269 26.2688 13.9375 26.1019 14.0493 25.8848C14.1623 25.6665 14.3565 25.6502 14.5696 25.7051C15.5748 25.9653 16.5954 26.0634 17.6336 25.9898C20.3575 25.7938 22.3398 24.476 23.6276 22.1066C24.3068 20.8578 24.6799 19.5108 24.9318 18.1231C25.066 17.3842 25.0707 16.6244 25.2426 15.8949C25.6075 14.3484 26.6116 13.3715 28.1195 12.8871C28.2748 12.8369 28.3667 12.768 28.4361 12.6105C28.8787 11.6102 29.9581 11.085 31.0705 11.3289C31.2859 11.3768 31.4213 11.3441 31.5696 11.1795C32.0828 10.6158 32.6149 10.0707 33.1352 9.51395C33.5354 9.08676 34.0169 8.90235 34.5936 9.05058C35.1575 9.19415 35.5071 9.55947 35.6295 10.1302C35.6319 10.1407 35.6531 10.1477 35.6648 10.1571V10.6846L35.6672 10.6858ZM16.1716 26.7765C16.1552 26.8431 16.1975 26.8501 16.2199 26.8641C18.0256 27.9449 19.9773 28.3779 22.0714 28.1153C23.7617 27.9029 25.2814 27.2329 26.7057 26.3283C28.6303 25.1063 30.203 23.5201 31.5814 21.7308C32.3524 20.7305 33.0045 19.6626 33.3247 18.4277C33.8756 16.3058 32.8845 14.3998 30.8739 13.6983C28.5056 12.8719 25.9724 14.2212 25.8723 16.9209C25.8088 18.6495 25.3473 20.3197 24.5928 21.8942C23.8818 23.3777 22.9001 24.6418 21.4993 25.5522C19.9585 26.5524 18.2504 26.8862 16.4353 26.7859C16.3459 26.7812 16.2529 26.7427 16.1716 26.7777V26.7765ZM33.4236 14.653C33.546 13.9866 33.3777 13.4695 32.8856 13.0692C32.5054 12.7599 32.5054 12.5626 32.8986 12.258C33.4565 11.8261 34.0157 11.3954 34.576 10.9659C34.7949 10.7978 34.9256 10.5866 34.875 10.3053C34.8279 10.0509 34.6737 9.87228 34.4183 9.79874C34.151 9.72171 33.9262 9.80691 33.7414 10.0018C33.2011 10.5726 32.6408 11.1258 32.1323 11.7234C31.8015 12.1121 31.4637 12.2965 30.9669 12.0876C30.8881 12.0537 30.7939 12.0549 30.7068 12.0421C30.2453 11.9709 29.5061 12.2428 29.3343 12.684C31.0046 12.6723 32.3559 13.3201 33.4236 14.6542V14.653ZM16.1222 26.773C16.1222 26.773 16.1116 26.7602 16.1069 26.759C16.101 26.759 16.0951 26.766 16.0904 26.7707C16.0951 26.7754 16.0998 26.7847 16.1057 26.7847C16.1116 26.7847 16.1175 26.7777 16.1234 26.7719L16.1222 26.773Z" fill="#E40200"/>
<path d="M16.1218 26.773C16.1159 26.7776 16.1089 26.7858 16.1042 26.7858C16.0983 26.7858 16.0936 26.7765 16.0889 26.7718C16.0948 26.7671 16.1006 26.7601 16.1053 26.7601C16.1112 26.7601 16.1159 26.7683 16.1206 26.7741L16.1218 26.773Z" fill="#E40200"/>
</svg>
