<svg width="50" height="50" viewBox="0 0 50 50" fill="none" xmlns="http://www.w3.org/2000/svg">
<rect x="0.5" y="0.5" width="49" height="49" rx="12.5" fill="white" stroke="#4B795A"/>
<path d="M17.3629 42L18.8209 37.8H18.0709L16.9489 41.166L15.8329 37.8H15.0769L16.5349 42H17.3629ZM21.7682 40.776C21.7862 40.662 21.7922 40.572 21.7922 40.506C21.7922 40.068 21.6482 39.69 21.3662 39.384C21.0842 39.078 20.7242 38.922 20.2862 38.922C19.8242 38.922 19.4402 39.072 19.1462 39.378C18.8522 39.678 18.7022 40.05 18.7022 40.5C18.7022 40.956 18.8522 41.334 19.1522 41.634C19.4522 41.928 19.8482 42.078 20.3342 42.078C20.9162 42.078 21.3542 41.862 21.6482 41.424L21.1142 41.112C20.9402 41.358 20.6822 41.484 20.3402 41.484C19.8422 41.484 19.4762 41.232 19.3802 40.776H21.7682ZM19.3742 40.248C19.4642 39.792 19.8002 39.51 20.2802 39.51C20.7062 39.51 21.0482 39.762 21.1382 40.248H19.3742ZM24.7328 39.444C24.4868 39.096 24.1388 38.922 23.6888 38.922C23.2628 38.922 22.9088 39.072 22.6148 39.378C22.3208 39.678 22.1768 40.044 22.1768 40.47C22.1768 40.896 22.3208 41.262 22.6148 41.568C22.9088 41.868 23.2628 42.018 23.6888 42.018C24.1388 42.018 24.4868 41.844 24.7328 41.496V41.862C24.7328 42.384 24.3968 42.69 23.8388 42.69C23.4128 42.69 23.1188 42.534 22.9628 42.228L22.4048 42.552C22.6628 43.038 23.1368 43.278 23.8268 43.278C24.2528 43.278 24.6188 43.158 24.9188 42.912C25.2188 42.666 25.3688 42.318 25.3688 41.862V39H24.7328V39.444ZM23.0948 41.142C22.9148 40.962 22.8248 40.74 22.8248 40.47C22.8248 40.2 22.9148 39.978 23.0948 39.798C23.2808 39.618 23.5088 39.528 23.7788 39.528C24.0488 39.528 24.2768 39.618 24.4568 39.798C24.6428 39.978 24.7328 40.2 24.7328 40.47C24.7328 40.74 24.6428 40.962 24.4568 41.142C24.2768 41.322 24.0488 41.412 23.7788 41.412C23.5088 41.412 23.2808 41.322 23.0948 41.142ZM28.5001 39.426C28.2541 39.09 27.9061 38.922 27.4501 38.922C27.0361 38.922 26.6881 39.072 26.3941 39.378C26.1001 39.684 25.9561 40.056 25.9561 40.5C25.9561 40.938 26.1001 41.316 26.3941 41.622C26.6881 41.928 27.0361 42.078 27.4501 42.078C27.9061 42.078 28.2541 41.91 28.5001 41.568V42H29.1481V39H28.5001V39.426ZM26.8741 41.19C26.6941 41.004 26.6041 40.776 26.6041 40.5C26.6041 40.224 26.6941 39.996 26.8741 39.816C27.0541 39.63 27.2821 39.54 27.5521 39.54C27.8221 39.54 28.0501 39.63 28.2301 39.816C28.4101 39.996 28.5001 40.224 28.5001 40.5C28.5001 40.776 28.4101 41.004 28.2301 41.19C28.0501 41.37 27.8221 41.46 27.5521 41.46C27.2821 41.46 27.0541 41.37 26.8741 41.19ZM31.4814 38.922C31.0554 38.922 30.7494 39.078 30.5514 39.384V39H29.9034V42H30.5514V40.392C30.5514 39.81 30.8574 39.528 31.3134 39.528C31.7274 39.528 31.9854 39.774 31.9854 40.224V42H32.6334V40.158C32.6334 39.39 32.1714 38.922 31.4814 38.922Z" fill="#4B795A"/>
<path d="M37.954 12.7571C37.7705 10.6553 36.8262 8.79019 35.1493 7.21163C34.9931 7.06492 34.8712 6.97849 34.7446 7.00464C34.618 7.0308 34.5434 7.15931 34.4642 7.3572C33.9103 8.73446 33.0607 9.98207 31.94 11.067C31.8098 11.1933 31.7696 11.1956 31.6169 11.0852C29.1851 9.34291 26.4314 8.66054 23.435 9.05745C21.2197 9.35087 19.2399 10.2573 17.5501 11.7517C17.4412 11.8472 17.3655 11.8745 17.2471 11.8563C16.3276 11.7164 15.407 11.6835 14.5111 11.7574C13.7774 11.8177 12.9124 11.9177 12.0604 12.1986L12 12.218V12.5649L12.0367 12.5899C13.4366 13.5657 14.2354 14.6245 14.5514 15.921C14.5845 16.0552 14.5821 16.161 14.5443 16.2747C13.594 19.1304 13.949 22.2455 15.5182 24.8237C17.0945 27.4122 19.763 29.2455 22.841 29.8517C23.1782 29.9176 23.5415 29.9688 23.9214 30.0018C24.0457 30.0132 24.0551 30.0302 24.0575 30.1326C24.0622 30.3748 24.0717 30.6182 24.0812 30.8604C24.0906 31.1095 24.1001 31.3586 24.1048 31.6088C24.1072 31.7521 24.1474 31.8658 24.2291 31.967L24.2563 32H25.7533L25.7805 31.9693C25.8882 31.8453 25.9047 31.7054 25.9071 31.5838C25.9118 31.3483 25.9189 31.1141 25.9272 30.8786C25.9355 30.6216 25.945 30.3634 25.9485 30.1064C25.9497 30.0211 25.9521 30.0143 26.0527 30.0052C26.9248 29.9267 27.7579 29.755 28.5283 29.4945C32.9388 28.0058 35.7978 24.2914 35.9872 19.8037C35.9907 19.7207 36.0014 19.6615 36.0452 19.6024C37.535 17.5928 38.1788 15.2898 37.9575 12.7559L37.954 12.7571ZM37.154 15.8789C36.9173 16.8547 36.5871 17.6952 36.1446 18.4469C35.257 19.9606 33.9091 20.9615 32.024 21.5051C31.2832 21.7189 30.5093 21.8554 29.7602 21.9873C29.4076 22.0499 29.0419 22.1135 28.6845 22.1852C28.5177 22.2182 28.352 22.2557 28.1828 22.2944C28.1484 22.3023 28.1141 22.3103 28.0786 22.3183C28.094 22.2864 28.1153 22.2557 28.1378 22.2239C28.1532 22.2022 28.1674 22.1806 28.1816 22.1579C28.9188 20.9399 29.8691 19.7992 31.0856 18.6698C32.5128 17.3437 33.5423 15.979 34.2346 14.496C34.6452 13.6168 34.9576 12.6752 35.1624 11.6982C35.1813 11.6107 35.2298 11.3775 34.9896 11.2945C34.9482 11.2809 34.9115 11.274 34.8783 11.274C34.7091 11.274 34.6298 11.4332 34.5837 11.5265C34.2393 12.2225 33.8701 12.9151 33.4867 13.5873C32.6725 15.0134 31.5732 16.2838 30.1282 17.4711C28.4916 18.8154 27.3248 20.1039 26.4692 21.513C26.442 20.3428 26.4574 19.0087 26.8195 17.7134C27.1875 16.3964 27.9354 15.2636 29.1058 14.248C29.5626 13.8511 30.03 13.4531 30.4833 13.0664C31.0016 12.6251 31.5365 12.1679 32.0583 11.713C33.2843 10.6428 34.2346 9.34405 34.8831 7.85306C34.8949 7.8269 34.9067 7.79961 34.9198 7.77345C35.6049 8.44104 36.1635 9.19961 36.5789 10.031C37.4818 11.8381 37.6699 13.7499 37.1528 15.8766L37.154 15.8789ZM25.3213 31.3324C25.3213 31.4154 25.3083 31.4348 25.3036 31.4393C25.3024 31.4405 25.2858 31.453 25.2125 31.4461C25.1355 31.4393 25.0551 31.4461 24.977 31.4518C24.8646 31.4598 24.7474 31.4689 24.6965 31.4314C24.6444 31.3927 24.6575 31.2676 24.6693 31.1561C24.6764 31.0936 24.6823 31.0276 24.6799 30.9673C24.5723 28.1218 23.9735 25.3105 22.9013 22.6128C22.3357 21.1901 21.641 19.7935 20.834 18.4549C22.5818 20.7283 23.8504 23.2815 24.6089 26.0531L24.6255 26.1111C24.6338 26.1384 24.6409 26.1646 24.648 26.1919C24.6989 26.3897 24.8338 26.4318 24.9391 26.4318C25.1012 26.4318 25.203 26.3431 25.2421 26.1703C25.3474 25.7006 25.4835 25.207 25.6562 24.6588C26.4385 22.1897 27.9023 20.0767 30.133 18.2001C31.1696 17.3278 32.1648 16.4578 32.9482 15.4081C33.1577 15.1272 33.3589 14.836 33.5541 14.5471C32.9388 15.7822 32.1317 16.8786 31.1531 17.8066C30.0762 18.8279 28.9543 19.9572 28.049 21.2913C26.8597 23.0416 26.0823 25.0193 25.6728 27.3394C25.4491 28.6052 25.3344 29.9108 25.3225 31.3313L25.3213 31.3324ZM23.6043 27.8478C20.144 27.3405 17.2743 24.7919 16.4625 21.5062C16.3809 21.1753 16.3229 20.8693 16.285 20.5611C17.2696 21.5631 18.5477 22.1647 20.3831 22.4991C21.0304 22.6174 21.615 22.6822 22.17 22.7004C22.2824 22.7038 22.3238 22.7356 22.3724 22.8573C22.9818 24.4097 23.4445 26.0406 23.7463 27.7045C23.7557 27.759 23.7687 27.8307 23.7699 27.8671C23.7344 27.8671 23.6634 27.8569 23.6043 27.8478ZM26.8171 16.1848C26.3024 17.1606 26.0184 18.2513 25.9213 19.6172C25.8562 20.5361 25.8716 21.4676 25.8988 22.3376V22.3501C25.9024 22.4434 25.9047 22.5309 25.8669 22.6071C25.4977 23.3475 25.1876 24.1481 24.9214 25.0489C24.9131 25.0227 24.9036 24.9966 24.8953 24.9693C24.8172 24.7339 24.7427 24.5109 24.6646 24.2903C24.3379 23.3782 23.9605 22.5048 23.5427 21.695C23.4966 21.6052 23.4847 21.5267 23.5037 21.4255C23.8847 19.3306 23.6717 17.5598 22.854 16.0143C22.0682 14.5278 21.073 13.4383 19.8174 12.6865C22.8469 10.5484 27.1355 10.5291 30.1069 12.6433L29.843 12.8696C29.591 13.0857 29.3401 13.3007 29.0869 13.5134C28.0348 14.3948 27.3142 15.2432 26.8183 16.1848H26.8171ZM31.2525 11.6846C31.0631 11.8211 30.869 11.986 30.6584 12.1895C30.585 12.2601 30.5578 12.2612 30.4631 12.1964C29.2987 11.3798 28.0041 10.8555 26.6171 10.6349C23.9983 10.2198 21.5747 10.7748 19.4115 12.2851C19.266 12.3874 19.176 12.3977 19.0293 12.3294C18.7441 12.1986 18.4447 12.1168 18.1264 12.0315L18.1039 12.0258C18.711 11.4947 19.305 11.0875 19.9156 10.785C23.8125 8.8516 27.6218 9.09384 31.2371 11.5049C31.3341 11.5697 31.3424 11.5936 31.3436 11.597C31.3436 11.597 31.3388 11.6232 31.2513 11.6857L31.2525 11.6846ZM23.0611 20.4099C23.0563 20.4508 23.054 20.4906 23.0504 20.5316C23.0457 20.5953 23.041 20.6612 23.0303 20.7283C23.009 20.6931 22.9877 20.6578 22.9676 20.6237C21.7179 18.4765 20.2718 16.6875 18.5465 15.1579C18.4648 15.0862 18.382 15.0157 18.298 14.9475C18.1607 14.8349 18.0069 14.8428 17.8861 14.9691C17.7773 15.0828 17.7761 15.2182 17.8826 15.3433L17.9938 15.4718C18.1098 15.606 18.2305 15.7447 18.3429 15.8846C19.8174 17.7236 21.0706 19.8264 22.0682 22.134C21.5807 22.109 21.0777 22.0487 20.4955 21.9464C19.802 21.8247 19.1855 21.6518 18.6104 21.4198C16.8566 20.7101 15.8105 19.4329 15.5016 17.6247C15.3786 16.9036 15.2413 16.2656 15.0827 15.6753C14.7727 14.5187 14.1135 13.5361 13.0674 12.6695L13.0248 12.6342C12.994 12.6092 12.9645 12.5842 12.9349 12.5603C13.2449 12.4807 13.5621 12.4386 13.8697 12.3977L13.9123 12.392C15.3016 12.2089 16.5761 12.2532 17.8116 12.5273C19.3062 12.8594 20.544 13.701 21.5972 15.0999C22.77 16.6568 23.2611 18.4435 23.0575 20.411L23.0611 20.4099ZM14.6058 19.1156C14.6247 18.4833 14.7088 17.9101 14.8638 17.371C14.9005 17.545 14.9383 17.7236 14.9691 17.901C15.0721 18.4788 15.2685 19.0394 15.5561 19.5683C15.6081 19.6638 15.6318 19.7502 15.6354 19.8515C15.7856 24.0788 19.0399 27.6624 23.377 28.372C23.695 28.4244 23.8752 28.6006 23.9178 28.9009C23.9261 28.96 23.9309 29.0192 23.9356 29.0794C23.9439 29.1818 23.9522 29.2876 23.9782 29.3899C23.9865 29.424 23.9877 29.4445 23.9877 29.4547C23.964 29.457 23.9167 29.4513 23.893 29.4479C21.0174 29.1079 18.6601 27.8591 16.8838 25.7369C15.2993 23.8434 14.5324 21.6154 14.6058 19.1156ZM32.8595 23.269C31.4927 25.787 29.3153 27.3269 26.3852 27.8466C26.3651 27.85 26.345 27.8512 26.3248 27.8523C26.2941 27.8546 26.2621 27.8569 26.2325 27.8625C26.203 27.8694 26.184 27.8705 26.1734 27.8716C26.1734 27.8603 26.1734 27.8387 26.1781 27.8045C26.4148 26.2066 26.9012 24.6406 27.6266 23.1473C27.6704 23.0575 27.7248 23.0143 27.8467 22.9767C28.5011 22.7675 29.1922 22.6515 29.8596 22.5389C30.0939 22.4991 30.3282 22.4604 30.5614 22.4161C31.4595 22.2489 32.5116 22.0169 33.5175 21.5563C33.3636 22.1761 33.1482 22.7379 32.8595 23.2702V23.269ZM25.9888 29.3911C26.0042 29.283 26.0065 29.1716 26.0101 29.0624C26.016 28.8577 26.0207 28.6643 26.1012 28.5142C26.1781 28.3698 26.339 28.3561 26.5958 28.3504C26.6964 28.3482 26.8006 28.3459 26.8964 28.3277C30.5081 27.6169 33.4263 24.8203 34.1588 21.3686C34.1872 21.2378 34.2369 21.1662 34.3435 21.1036C34.7198 20.883 35.0523 20.6112 35.3552 20.3371C35.2653 21.4118 35.0274 22.3672 34.6298 23.2497C33.1388 26.5649 30.5081 28.6166 26.81 29.3467C26.668 29.3751 26.5201 29.3922 26.3757 29.4093C26.2716 29.4218 26.1686 29.4343 26.0657 29.4502C26.0101 29.4593 25.99 29.4559 25.9888 29.4593C25.9876 29.4547 25.9829 29.4365 25.9888 29.3922V29.3911Z" fill="#4B795A"/>
</svg>
