<svg width="50" height="50" viewBox="0 0 50 50" fill="none" xmlns="http://www.w3.org/2000/svg">
<rect x="0.5" y="0.5" width="49" height="49" rx="12.5" fill="#4B795A" stroke="#4B795A"/>
<path d="M17.3629 42L18.8209 37.8H18.0709L16.9489 41.166L15.8329 37.8H15.0769L16.5349 42H17.3629ZM21.7682 40.776C21.7862 40.662 21.7922 40.572 21.7922 40.506C21.7922 40.068 21.6482 39.69 21.3662 39.384C21.0842 39.078 20.7242 38.922 20.2862 38.922C19.8242 38.922 19.4402 39.072 19.1462 39.378C18.8522 39.678 18.7022 40.05 18.7022 40.5C18.7022 40.956 18.8522 41.334 19.1522 41.634C19.4522 41.928 19.8482 42.078 20.3342 42.078C20.9162 42.078 21.3542 41.862 21.6482 41.424L21.1142 41.112C20.9402 41.358 20.6822 41.484 20.3402 41.484C19.8422 41.484 19.4762 41.232 19.3802 40.776H21.7682ZM19.3742 40.248C19.4642 39.792 19.8002 39.51 20.2802 39.51C20.7062 39.51 21.0482 39.762 21.1382 40.248H19.3742ZM24.7328 39.444C24.4868 39.096 24.1388 38.922 23.6888 38.922C23.2628 38.922 22.9088 39.072 22.6148 39.378C22.3208 39.678 22.1768 40.044 22.1768 40.47C22.1768 40.896 22.3208 41.262 22.6148 41.568C22.9088 41.868 23.2628 42.018 23.6888 42.018C24.1388 42.018 24.4868 41.844 24.7328 41.496V41.862C24.7328 42.384 24.3968 42.69 23.8388 42.69C23.4128 42.69 23.1188 42.534 22.9628 42.228L22.4048 42.552C22.6628 43.038 23.1368 43.278 23.8268 43.278C24.2528 43.278 24.6188 43.158 24.9188 42.912C25.2188 42.666 25.3688 42.318 25.3688 41.862V39H24.7328V39.444ZM23.0948 41.142C22.9148 40.962 22.8248 40.74 22.8248 40.47C22.8248 40.2 22.9148 39.978 23.0948 39.798C23.2808 39.618 23.5088 39.528 23.7788 39.528C24.0488 39.528 24.2768 39.618 24.4568 39.798C24.6428 39.978 24.7328 40.2 24.7328 40.47C24.7328 40.74 24.6428 40.962 24.4568 41.142C24.2768 41.322 24.0488 41.412 23.7788 41.412C23.5088 41.412 23.2808 41.322 23.0948 41.142ZM28.5001 39.426C28.2541 39.09 27.9061 38.922 27.4501 38.922C27.0361 38.922 26.6881 39.072 26.3941 39.378C26.1001 39.684 25.9561 40.056 25.9561 40.5C25.9561 40.938 26.1001 41.316 26.3941 41.622C26.6881 41.928 27.0361 42.078 27.4501 42.078C27.9061 42.078 28.2541 41.91 28.5001 41.568V42H29.1481V39H28.5001V39.426ZM26.8741 41.19C26.6941 41.004 26.6041 40.776 26.6041 40.5C26.6041 40.224 26.6941 39.996 26.8741 39.816C27.0541 39.63 27.2821 39.54 27.5521 39.54C27.8221 39.54 28.0501 39.63 28.2301 39.816C28.4101 39.996 28.5001 40.224 28.5001 40.5C28.5001 40.776 28.4101 41.004 28.2301 41.19C28.0501 41.37 27.8221 41.46 27.5521 41.46C27.2821 41.46 27.0541 41.37 26.8741 41.19ZM31.4814 38.922C31.0554 38.922 30.7494 39.078 30.5514 39.384V39H29.9034V42H30.5514V40.392C30.5514 39.81 30.8574 39.528 31.3134 39.528C31.7274 39.528 31.9854 39.774 31.9854 40.224V42H32.6334V40.158C32.6334 39.39 32.1714 38.922 31.4814 38.922Z" fill="white"/>
<path d="M36.5016 14.8413C36.3888 15.0603 36.412 15.3066 36.3677 15.5381C36.1063 16.9169 35.6708 18.2252 34.82 19.3661C33.9122 20.5828 32.668 21.2838 31.231 21.689C30.2262 21.9721 29.1908 22.1047 28.1723 22.3237C28.0394 22.3521 27.9087 22.3847 27.7411 22.4226C28.0089 21.8984 28.3146 21.4343 28.6383 20.9807C29.3901 19.9302 30.3074 19.024 31.2035 18.1031C32.7408 16.5243 33.7224 14.6572 34.1989 12.5163C34.2569 12.2553 34.2738 11.9901 34.2559 11.7227C34.2453 11.5628 34.1789 11.4417 34.0071 11.4165C33.8352 11.3912 33.7424 11.4891 33.6802 11.6375C32.7092 13.9625 31.3775 16.0233 29.4059 17.6495C28.0837 18.7399 26.9566 20.0176 26.1121 21.5238C26.1016 21.5427 26.09 21.5616 26.0383 21.5659C26.0383 21.1385 26.0278 20.7102 26.0404 20.2828C26.0752 19.1619 26.1986 18.0557 26.6266 17.0032C27.0557 15.9475 27.7358 15.0729 28.5698 14.3077C29.4902 13.4636 30.4655 12.6826 31.3659 11.8164C32.4234 10.7986 33.21 9.60193 33.7593 8.24524C33.7909 8.1684 33.8247 8.09262 33.8647 8C34.5543 8.61467 35.1057 9.32406 35.539 10.125C36.0409 11.0512 36.3393 12.0395 36.4531 13.0857C36.4574 13.1268 36.4363 13.1805 36.4995 13.1984V14.8413H36.5016Z" fill="white"/>
<path d="M19.1363 15.7885C19.7604 16.3274 20.2992 16.9483 20.8169 17.5862C22.7221 19.9385 24.0791 22.5709 24.8477 25.5C24.8645 25.5632 24.8856 25.6242 24.9151 25.7189C25.0259 25.3085 25.125 24.9274 25.2315 24.5496C25.9843 21.8983 27.5078 19.7533 29.5785 17.9714C30.6561 17.0441 31.6609 16.0537 32.4221 14.8401C32.9155 14.055 33.3468 13.2361 33.7527 12.4036C33.7854 12.3362 33.8191 12.271 33.8687 12.2089C33.855 12.4899 33.7717 12.7572 33.6968 13.0235C33.1391 15.0117 32.1279 16.7347 30.6476 18.1798C29.6218 19.1807 28.6475 20.2259 27.8747 21.4426C26.8077 23.1224 26.1804 24.9632 25.8472 26.9125C25.6163 28.266 25.5267 29.6301 25.5256 31.0015H24.428C24.389 25.8821 22.8033 21.2542 19.9566 17.0304C19.6771 16.6157 19.3703 16.2179 19.0762 15.8127C19.0952 15.8053 19.1152 15.7969 19.1342 15.7895L19.1363 15.7885Z" fill="white"/>
<path d="M13.5011 12.8039C14.7262 12.5103 15.9492 12.3692 17.2029 12.4555C19.4318 12.6081 21.1219 13.6238 22.327 15.4973C23.2959 17.0034 23.666 18.638 23.4815 20.4073C23.4678 20.5409 23.4857 20.682 23.4098 20.8272C23.2685 20.5788 23.1388 20.342 23.0007 20.1094C22.0465 18.5001 20.9332 17.0119 19.5962 15.6952C19.3896 15.492 19.1766 15.2963 18.9383 15.131C18.7317 14.9868 18.5567 14.99 18.4227 15.13C18.2857 15.2731 18.2931 15.4657 18.4597 15.6625C19.4381 16.815 20.251 18.0781 20.9795 19.3979C21.4825 20.3083 21.9263 21.2461 22.3207 22.2344C21.6585 22.1881 21.0207 22.1092 20.3923 21.9639C19.4876 21.7555 18.6326 21.4345 17.8829 20.8725C16.9161 20.1473 16.3847 19.16 16.1485 17.9928C16.0188 17.3529 15.9377 16.7035 15.7711 16.0709C15.4347 14.7911 14.6661 13.8049 13.6582 12.9818C13.6107 12.9428 13.5633 12.906 13.5179 12.866C13.5084 12.8576 13.5095 12.8386 13.5 12.8029L13.5011 12.8039Z" fill="white"/>
<path d="M15.6122 17.1201C15.6691 17.4075 15.7292 17.6948 15.7819 17.9842C15.9316 18.802 16.2132 19.5641 16.7277 20.2261C16.8162 20.3398 16.8036 20.4703 16.8247 20.5934C17.4225 24.0762 19.4142 26.3444 22.7849 27.4074C23.0527 27.4916 23.3268 27.5568 23.6083 27.5863C23.7465 27.6 23.8203 27.6526 23.835 27.8063C23.8698 28.1841 23.9215 28.5609 23.971 28.9377C23.9879 29.0683 23.9732 29.1209 23.8108 29.0967C20.3135 28.5873 17.7567 26.7611 16.2089 23.5941C15.202 21.5333 15.0376 19.3588 15.6132 17.1201H15.6122Z" fill="white"/>
<path d="M18.5264 12.2858C22.0141 9.13356 27.3196 9.04831 30.8443 11.8154C30.5006 12.1195 30.1548 12.4174 29.8195 12.7268C29.713 12.8247 29.6561 12.7416 29.5875 12.6953C28.7282 12.1143 27.7941 11.6996 26.7809 11.4838C24.4539 10.9902 22.2946 11.4028 20.3198 12.7321C20.1606 12.8395 20.0457 12.8574 19.8749 12.7658C19.6693 12.6553 19.4436 12.5795 19.2222 12.5016C19.0019 12.4237 18.7752 12.3616 18.5274 12.2858H18.5264Z" fill="white"/>
<path d="M34.6454 20.1462C34.5484 21.4934 34.2268 22.7207 33.6226 23.8605C32.0738 26.7907 29.6478 28.5211 26.3772 29.0736C25.9618 29.1442 25.9554 29.1368 25.9871 28.7189C26.0092 28.4232 26.0514 28.1295 26.0746 27.8348C26.0851 27.6948 26.1294 27.637 26.2844 27.6075C29.4126 27.0128 31.5646 25.2393 32.7191 22.2712C32.8287 21.9892 32.8372 21.646 33.008 21.4176C33.1735 21.1966 33.4919 21.0924 33.7365 20.9272C34.0507 20.7146 34.3291 20.4578 34.6443 20.1462H34.6454Z" fill="white"/>
<path d="M19.0608 15.7949C19.0397 15.7707 18.9796 15.7591 19.007 15.7191C19.0344 15.6802 19.0703 15.7065 19.0893 15.7455C19.0798 15.7623 19.0703 15.7781 19.0619 15.7949H19.0608Z" fill="white"/>
<path d="M19.0785 15.8128C19.0721 15.8075 19.0658 15.8012 19.0605 15.7949C19.07 15.7781 19.0795 15.7623 19.088 15.7454C19.1038 15.7602 19.1196 15.7738 19.1365 15.7886C19.1175 15.7959 19.0974 15.8044 19.0785 15.8117V15.8128Z" fill="white"/>
</svg>
