<svg width="50" height="50" viewBox="0 0 50 50" fill="none" xmlns="http://www.w3.org/2000/svg">
<rect x="0.5" y="0.5" width="49" height="49" rx="12.5" fill="white" stroke="#88B36B"/>
<path d="M12.4791 42L13.9371 37.8H13.1871L12.0651 41.166L10.9491 37.8H10.1931L11.6511 42H12.4791ZM16.8844 40.776C16.9024 40.662 16.9084 40.572 16.9084 40.506C16.9084 40.068 16.7644 39.69 16.4824 39.384C16.2004 39.078 15.8404 38.922 15.4024 38.922C14.9404 38.922 14.5564 39.072 14.2624 39.378C13.9684 39.678 13.8184 40.05 13.8184 40.5C13.8184 40.956 13.9684 41.334 14.2684 41.634C14.5684 41.928 14.9644 42.078 15.4504 42.078C16.0324 42.078 16.4704 41.862 16.7644 41.424L16.2304 41.112C16.0564 41.358 15.7984 41.484 15.4564 41.484C14.9584 41.484 14.5924 41.232 14.4964 40.776H16.8844ZM14.4904 40.248C14.5804 39.792 14.9164 39.51 15.3964 39.51C15.8224 39.51 16.1644 39.762 16.2544 40.248H14.4904ZM19.849 39.444C19.603 39.096 19.255 38.922 18.805 38.922C18.379 38.922 18.025 39.072 17.731 39.378C17.437 39.678 17.293 40.044 17.293 40.47C17.293 40.896 17.437 41.262 17.731 41.568C18.025 41.868 18.379 42.018 18.805 42.018C19.255 42.018 19.603 41.844 19.849 41.496V41.862C19.849 42.384 19.513 42.69 18.955 42.69C18.529 42.69 18.235 42.534 18.079 42.228L17.521 42.552C17.779 43.038 18.253 43.278 18.943 43.278C19.369 43.278 19.735 43.158 20.035 42.912C20.335 42.666 20.485 42.318 20.485 41.862V39H19.849V39.444ZM18.211 41.142C18.031 40.962 17.941 40.74 17.941 40.47C17.941 40.2 18.031 39.978 18.211 39.798C18.397 39.618 18.625 39.528 18.895 39.528C19.165 39.528 19.393 39.618 19.573 39.798C19.759 39.978 19.849 40.2 19.849 40.47C19.849 40.74 19.759 40.962 19.573 41.142C19.393 41.322 19.165 41.412 18.895 41.412C18.625 41.412 18.397 41.322 18.211 41.142ZM24.1383 40.776C24.1563 40.662 24.1623 40.572 24.1623 40.506C24.1623 40.068 24.0183 39.69 23.7363 39.384C23.4543 39.078 23.0943 38.922 22.6563 38.922C22.1943 38.922 21.8103 39.072 21.5163 39.378C21.2223 39.678 21.0723 40.05 21.0723 40.5C21.0723 40.956 21.2223 41.334 21.5223 41.634C21.8223 41.928 22.2183 42.078 22.7043 42.078C23.2863 42.078 23.7243 41.862 24.0183 41.424L23.4843 41.112C23.3103 41.358 23.0523 41.484 22.7103 41.484C22.2123 41.484 21.8463 41.232 21.7503 40.776H24.1383ZM21.7443 40.248C21.8343 39.792 22.1703 39.51 22.6503 39.51C23.0763 39.51 23.4183 39.762 23.5083 40.248H21.7443ZM26.3127 39H25.5687V38.16L24.9207 38.352V39H24.3687V39.624H24.9207V41.064C24.9207 41.85 25.3227 42.12 26.3127 42V41.418C25.8207 41.442 25.5687 41.448 25.5687 41.064V39.624H26.3127V39ZM29.1534 39.426C28.9074 39.09 28.5594 38.922 28.1034 38.922C27.6894 38.922 27.3414 39.072 27.0474 39.378C26.7534 39.684 26.6094 40.056 26.6094 40.5C26.6094 40.938 26.7534 41.316 27.0474 41.622C27.3414 41.928 27.6894 42.078 28.1034 42.078C28.5594 42.078 28.9074 41.91 29.1534 41.568V42H29.8014V39H29.1534V39.426ZM27.5274 41.19C27.3474 41.004 27.2574 40.776 27.2574 40.5C27.2574 40.224 27.3474 39.996 27.5274 39.816C27.7074 39.63 27.9354 39.54 28.2054 39.54C28.4754 39.54 28.7034 39.63 28.8834 39.816C29.0634 39.996 29.1534 40.224 29.1534 40.5C29.1534 40.776 29.0634 41.004 28.8834 41.19C28.7034 41.37 28.4754 41.46 28.2054 41.46C27.9354 41.46 27.7074 41.37 27.5274 41.19ZM31.2047 39H30.5567V42H31.2047V40.488C31.2047 40.182 31.2947 39.96 31.4807 39.828C31.6667 39.69 31.8827 39.63 32.1287 39.648V38.946C31.6787 38.946 31.3667 39.132 31.2047 39.504V39ZM33.2195 38.43C33.3875 38.262 33.3875 38.01 33.2255 37.848C33.0635 37.68 32.7995 37.68 32.6375 37.848C32.4755 38.01 32.4755 38.262 32.6375 38.43C32.8055 38.592 33.0575 38.592 33.2195 38.43ZM33.2555 42V39H32.6075V42H33.2555ZM36.3839 39.426C36.1379 39.09 35.7899 38.922 35.3339 38.922C34.9199 38.922 34.5719 39.072 34.2779 39.378C33.9839 39.684 33.8399 40.056 33.8399 40.5C33.8399 40.938 33.9839 41.316 34.2779 41.622C34.5719 41.928 34.9199 42.078 35.3339 42.078C35.7899 42.078 36.1379 41.91 36.3839 41.568V42H37.0319V39H36.3839V39.426ZM34.7579 41.19C34.5779 41.004 34.4879 40.776 34.4879 40.5C34.4879 40.224 34.5779 39.996 34.7579 39.816C34.9379 39.63 35.1659 39.54 35.4359 39.54C35.7059 39.54 35.9339 39.63 36.1139 39.816C36.2939 39.996 36.3839 40.224 36.3839 40.5C36.3839 40.776 36.2939 41.004 36.1139 41.19C35.9339 41.37 35.7059 41.46 35.4359 41.46C35.1659 41.46 34.9379 41.37 34.7579 41.19ZM39.3652 38.922C38.9392 38.922 38.6332 39.078 38.4352 39.384V39H37.7872V42H38.4352V40.392C38.4352 39.81 38.7412 39.528 39.1972 39.528C39.6112 39.528 39.8692 39.774 39.8692 40.224V42H40.5172V40.158C40.5172 39.39 40.0552 38.922 39.3652 38.922Z" fill="#88B36B"/>
<path d="M37 11.4618C36.887 11.6967 36.6939 11.8672 36.5289 12.0614C35.7834 12.9353 35.3756 13.9729 35.066 15.0602C34.7531 16.1588 34.4628 17.263 34.1205 18.3537C33.5478 20.1772 32.3165 21.3435 30.5452 21.9825C29.446 22.3788 28.3084 22.5787 27.1449 22.6306C27.024 22.6363 26.954 22.6713 26.8896 22.7763C26.292 23.7495 25.8808 24.8086 25.4922 25.8745C24.8879 27.5319 24.3784 29.2199 23.974 30.9384C23.8395 31.5085 23.5018 31.8552 22.9437 32.0019H22.4704C22.4535 31.9387 22.3902 31.9489 22.3484 31.9331C21.8751 31.7535 21.596 31.4092 21.5373 30.9158C21.1724 27.8774 20.1919 25.0209 18.9719 22.2377C18.0083 20.0405 16.8854 17.9269 15.4123 16.0222C14.8938 15.3515 14.7989 14.8502 15.5253 14.1897C15.7106 14.0214 15.8732 13.8284 16.0517 13.6522C16.5431 13.169 17.1655 13.1995 17.5993 13.729C20.045 16.712 21.7666 20.0846 22.9866 23.7281C23.016 23.815 23.0454 23.9031 23.0861 24.0262C23.2758 23.5463 23.4555 23.1015 23.6803 22.6781C23.8407 22.3755 24.009 22.0763 24.1863 21.7838C24.2598 21.6641 24.2722 21.5614 24.2315 21.4259C23.7876 19.9773 23.5718 18.4994 23.6746 16.9819C23.9152 13.4027 26.2208 11.1626 29.0269 10.3926C30.5497 9.97259 32.103 9.93307 33.6687 10.0719C34.5249 10.1476 35.371 10.2865 36.2138 10.4524C36.5978 10.5281 36.8633 10.7087 36.9989 11.0746V11.4618H37ZM24.8043 20.8083C24.8619 20.7304 24.8969 20.6864 24.9297 20.6401C26.6829 18.173 28.7818 16.0493 31.2331 14.2732C31.598 14.009 31.973 13.7584 32.347 13.5077C32.5672 13.3598 32.7887 13.3914 32.9107 13.5766C33.0315 13.7606 32.9694 13.9684 32.7457 14.1231C32.6983 14.1558 32.6497 14.1863 32.6023 14.2179C30.3023 15.7489 28.2791 17.5848 26.5473 19.7379C25.1578 21.4643 23.9288 23.2798 23.4148 25.4849C23.373 25.6667 23.242 25.7683 23.0567 25.7661C22.8477 25.7638 22.7325 25.6317 22.6907 25.4364C22.423 24.2034 21.9993 23.0213 21.5215 21.8583C20.3907 19.1068 18.9628 16.5269 17.0582 14.2269C16.8662 13.9955 16.7521 13.9876 16.5363 14.2055C16.3048 14.4392 16.0822 14.6831 15.8472 14.9134C15.7004 15.0568 15.7004 15.1799 15.8235 15.3413C16.1138 15.7218 16.4042 16.1046 16.6708 16.502C18.5708 19.3236 19.9773 22.3845 21.0527 25.6024C21.6107 27.2723 22.0468 28.9726 22.2546 30.7261C22.2942 31.058 22.458 31.2511 22.7291 31.2658C22.9878 31.2805 23.1674 31.1156 23.2476 30.7938C23.7548 28.74 24.358 26.7167 25.1375 24.7488C25.4922 23.8523 25.8763 22.9682 26.4163 22.1621C26.5338 21.9859 26.6795 21.9046 26.8964 21.9001C27.9684 21.8764 29.0167 21.7037 30.0391 21.3785C31.7482 20.8354 32.9389 19.7729 33.4608 18.0139C33.7635 16.9943 34.0663 15.9736 34.3306 14.9439C34.665 13.6409 35.214 12.4577 36.1042 11.4404C36.1584 11.3783 36.2748 11.3196 36.2465 11.2451C36.216 11.166 36.0884 11.1784 36.0003 11.1604C35.2163 10.9921 34.4244 10.8736 33.6246 10.8013C32.2182 10.6737 30.8163 10.6828 29.4426 11.0396C26.893 11.7012 25.2358 13.2977 24.5682 15.8584C24.1366 17.5125 24.3535 19.152 24.8065 20.8083H24.8043Z" fill="#88B36B"/>
</svg>
