<svg width="50" height="50" viewBox="0 0 50 50" fill="none" xmlns="http://www.w3.org/2000/svg">
<rect x="0.5" y="0.5" width="49" height="49" rx="12.5" fill="#88B36B" stroke="#88B36B"/>
<path d="M12.4791 42L13.9371 37.8H13.1871L12.0651 41.166L10.9491 37.8H10.1931L11.6511 42H12.4791ZM16.8844 40.776C16.9024 40.662 16.9084 40.572 16.9084 40.506C16.9084 40.068 16.7644 39.69 16.4824 39.384C16.2004 39.078 15.8404 38.922 15.4024 38.922C14.9404 38.922 14.5564 39.072 14.2624 39.378C13.9684 39.678 13.8184 40.05 13.8184 40.5C13.8184 40.956 13.9684 41.334 14.2684 41.634C14.5684 41.928 14.9644 42.078 15.4504 42.078C16.0324 42.078 16.4704 41.862 16.7644 41.424L16.2304 41.112C16.0564 41.358 15.7984 41.484 15.4564 41.484C14.9584 41.484 14.5924 41.232 14.4964 40.776H16.8844ZM14.4904 40.248C14.5804 39.792 14.9164 39.51 15.3964 39.51C15.8224 39.51 16.1644 39.762 16.2544 40.248H14.4904ZM19.849 39.444C19.603 39.096 19.255 38.922 18.805 38.922C18.379 38.922 18.025 39.072 17.731 39.378C17.437 39.678 17.293 40.044 17.293 40.47C17.293 40.896 17.437 41.262 17.731 41.568C18.025 41.868 18.379 42.018 18.805 42.018C19.255 42.018 19.603 41.844 19.849 41.496V41.862C19.849 42.384 19.513 42.69 18.955 42.69C18.529 42.69 18.235 42.534 18.079 42.228L17.521 42.552C17.779 43.038 18.253 43.278 18.943 43.278C19.369 43.278 19.735 43.158 20.035 42.912C20.335 42.666 20.485 42.318 20.485 41.862V39H19.849V39.444ZM18.211 41.142C18.031 40.962 17.941 40.74 17.941 40.47C17.941 40.2 18.031 39.978 18.211 39.798C18.397 39.618 18.625 39.528 18.895 39.528C19.165 39.528 19.393 39.618 19.573 39.798C19.759 39.978 19.849 40.2 19.849 40.47C19.849 40.74 19.759 40.962 19.573 41.142C19.393 41.322 19.165 41.412 18.895 41.412C18.625 41.412 18.397 41.322 18.211 41.142ZM24.1383 40.776C24.1563 40.662 24.1623 40.572 24.1623 40.506C24.1623 40.068 24.0183 39.69 23.7363 39.384C23.4543 39.078 23.0943 38.922 22.6563 38.922C22.1943 38.922 21.8103 39.072 21.5163 39.378C21.2223 39.678 21.0723 40.05 21.0723 40.5C21.0723 40.956 21.2223 41.334 21.5223 41.634C21.8223 41.928 22.2183 42.078 22.7043 42.078C23.2863 42.078 23.7243 41.862 24.0183 41.424L23.4843 41.112C23.3103 41.358 23.0523 41.484 22.7103 41.484C22.2123 41.484 21.8463 41.232 21.7503 40.776H24.1383ZM21.7443 40.248C21.8343 39.792 22.1703 39.51 22.6503 39.51C23.0763 39.51 23.4183 39.762 23.5083 40.248H21.7443ZM26.3127 39H25.5687V38.16L24.9207 38.352V39H24.3687V39.624H24.9207V41.064C24.9207 41.85 25.3227 42.12 26.3127 42V41.418C25.8207 41.442 25.5687 41.448 25.5687 41.064V39.624H26.3127V39ZM29.1534 39.426C28.9074 39.09 28.5594 38.922 28.1034 38.922C27.6894 38.922 27.3414 39.072 27.0474 39.378C26.7534 39.684 26.6094 40.056 26.6094 40.5C26.6094 40.938 26.7534 41.316 27.0474 41.622C27.3414 41.928 27.6894 42.078 28.1034 42.078C28.5594 42.078 28.9074 41.91 29.1534 41.568V42H29.8014V39H29.1534V39.426ZM27.5274 41.19C27.3474 41.004 27.2574 40.776 27.2574 40.5C27.2574 40.224 27.3474 39.996 27.5274 39.816C27.7074 39.63 27.9354 39.54 28.2054 39.54C28.4754 39.54 28.7034 39.63 28.8834 39.816C29.0634 39.996 29.1534 40.224 29.1534 40.5C29.1534 40.776 29.0634 41.004 28.8834 41.19C28.7034 41.37 28.4754 41.46 28.2054 41.46C27.9354 41.46 27.7074 41.37 27.5274 41.19ZM31.2047 39H30.5567V42H31.2047V40.488C31.2047 40.182 31.2947 39.96 31.4807 39.828C31.6667 39.69 31.8827 39.63 32.1287 39.648V38.946C31.6787 38.946 31.3667 39.132 31.2047 39.504V39ZM33.2195 38.43C33.3875 38.262 33.3875 38.01 33.2255 37.848C33.0635 37.68 32.7995 37.68 32.6375 37.848C32.4755 38.01 32.4755 38.262 32.6375 38.43C32.8055 38.592 33.0575 38.592 33.2195 38.43ZM33.2555 42V39H32.6075V42H33.2555ZM36.3839 39.426C36.1379 39.09 35.7899 38.922 35.3339 38.922C34.9199 38.922 34.5719 39.072 34.2779 39.378C33.9839 39.684 33.8399 40.056 33.8399 40.5C33.8399 40.938 33.9839 41.316 34.2779 41.622C34.5719 41.928 34.9199 42.078 35.3339 42.078C35.7899 42.078 36.1379 41.91 36.3839 41.568V42H37.0319V39H36.3839V39.426ZM34.7579 41.19C34.5779 41.004 34.4879 40.776 34.4879 40.5C34.4879 40.224 34.5779 39.996 34.7579 39.816C34.9379 39.63 35.1659 39.54 35.4359 39.54C35.7059 39.54 35.9339 39.63 36.1139 39.816C36.2939 39.996 36.3839 40.224 36.3839 40.5C36.3839 40.776 36.2939 41.004 36.1139 41.19C35.9339 41.37 35.7059 41.46 35.4359 41.46C35.1659 41.46 34.9379 41.37 34.7579 41.19ZM39.3652 38.922C38.9392 38.922 38.6332 39.078 38.4352 39.384V39H37.7872V42H38.4352V40.392C38.4352 39.81 38.7412 39.528 39.1972 39.528C39.6112 39.528 39.8692 39.774 39.8692 40.224V42H40.5172V40.158C40.5172 39.39 40.0552 38.922 39.3652 38.922Z" fill="white"/>
<path d="M31.9048 9C32.1329 9.09219 32.3767 9.06429 32.6132 9.08734C33.6891 9.19167 34.7566 9.35301 35.8106 9.59441C36.0241 9.64294 36.0545 9.71815 35.915 9.86129C34.8027 11.0064 34.1586 12.41 33.7037 13.9118C33.2488 15.4112 32.8728 16.9348 32.3646 18.4184C31.9631 19.5891 31.3796 20.6432 30.4141 21.4499C29.525 22.1923 28.4794 22.6145 27.3731 22.8971C26.2693 23.1786 25.1461 23.3169 24.0059 23.3144C23.8337 23.3144 23.6881 23.3545 23.5826 23.4964C22.3417 25.1644 21.1845 26.8821 20.3997 28.8219C20.2105 29.2901 20.0552 29.7705 19.9388 30.2618C19.8308 30.7179 19.5652 30.9727 19.1746 30.9981C18.8022 31.0224 18.5038 30.8077 18.3316 30.3807C17.4073 28.0734 16.0596 26.0475 14.2875 24.3068C14.1783 24.1988 14.1055 24.0666 14 23.9586V23.5898C14.0764 23.4988 14.114 23.38 14.2147 23.3047C14.5107 23.0852 14.7981 22.8571 15.099 22.646C15.3355 22.4798 15.5878 22.4956 15.8255 22.6679C16.0257 22.8122 16.1943 22.9918 16.352 23.1798C17.3515 24.3759 18.1181 25.7127 18.7221 27.1454C18.7998 27.331 18.9089 27.4632 19.1249 27.4584C19.3298 27.4547 19.4451 27.331 19.5057 27.149C20.0018 25.6375 20.7988 24.2898 21.6867 22.976C23.8579 19.7649 26.461 16.97 29.5504 14.6299C30.18 14.1532 30.8301 13.7068 31.4839 13.2664C31.6962 13.1233 31.7435 12.8964 31.621 12.7084C31.4985 12.5204 31.2729 12.4828 31.0545 12.6138C31.0279 12.6296 31.0036 12.6465 30.9769 12.6635C27.4811 14.9708 24.4838 17.8046 21.9923 21.1733C21.7898 21.4475 21.5908 21.7241 21.3762 22.0201C20.8861 20.3363 20.6253 18.6562 20.783 16.9312C20.9055 15.5943 21.2803 14.3327 21.9887 13.1839C23.5049 10.7335 25.7793 9.5095 28.5764 9.13587C28.9039 9.09219 29.2399 9.10918 29.5577 9H31.9048Z" fill="white"/>
</svg>
