<?xml version="1.0" standalone="no"?>
<!DOCTYPE svg PUBLIC "-//W3C//DTD SVG 1.1//EN" "http://www.w3.org/Graphics/SVG/1.1/DTD/svg11.dtd" >
<svg xmlns="http://www.w3.org/2000/svg" xmlns:xlink="http://www.w3.org/1999/xlink" version="1.1">
<metadata>
Created by FontForge 20170924 at Wed Feb 12 20:36:50 2020
 By www-data
Copyright \(c\) 2017 by Artegra. All rights reserved.
</metadata>
<defs>
<font id="FONTSPRINGDEMO-ArtegraSansBold" horiz-adv-x="598" >
  <font-face 
    font-family="FONTSPRING DEMO - Artegra Sans"
    font-weight="700"
    font-stretch="normal"
    units-per-em="2048"
    panose-1="0 0 0 0 0 0 0 0 0 0"
    ascent="1516"
    descent="-532"
    x-height="1030"
    cap-height="1434"
    bbox="-190 -532 2048 1546"
    underline-thickness="102"
    underline-position="-205"
    stemh="289"
    stemv="333"
    unicode-range="U+0020-007E"
  />
<missing-glyph 
d="M101 197c-3 0 -6 0 -9 -1v-98c2 -1 6 -1 9 -1c26 0 31 19 31 50c0 32 -5 50 -31 50v0zM253 161v-24h-40v-38h47v-24h-76v145h76v-25h-47v-34h40zM99 73c-8 0 -23 0 -36 2v143c13 2 27 4 37 4c45 0 61 -25 61 -75c0 -51 -17 -74 -62 -74v0zM286 220h39l19 -80l19 80h40
c2 -35 4 -98 6 -145h-29c0 34 -1 70 -3 104l-20 -82h-27l-20 82h-1c-1 -34 -2 -70 -2 -104h-28c1 47 4 110 7 145v0zM482 73c-40 0 -53 23 -53 74s13 75 53 75s54 -24 54 -75s-14 -74 -54 -74v0zM482 197c-20 0 -24 -17 -24 -50c0 -32 4 -50 24 -50c21 0 25 18 25 50
c0 33 -4 50 -25 50zM472 496c52 0 62 -42 62 -63c0 -31 -31 -49 -52 -52c-72 -8 -124 -31 -166 -72c0 0 73 187 156 187v0zM139 444c94 0 156 -187 156 -187c-41 52 -93 72 -156 72c-31 0 -62 21 -62 52c0 32 21 63 62 63v0zM314 593c67 -65 -19 -243 -19 -243
c7 66 -16 118 -61 161c-22 22 -30 58 -9 81c22 22 59 30 89 1v0z" />
    <glyph glyph-name=".notdef" 
d="M101 197c-3 0 -6 0 -9 -1v-98c2 -1 6 -1 9 -1c26 0 31 19 31 50c0 32 -5 50 -31 50v0zM253 161v-24h-40v-38h47v-24h-76v145h76v-25h-47v-34h40zM99 73c-8 0 -23 0 -36 2v143c13 2 27 4 37 4c45 0 61 -25 61 -75c0 -51 -17 -74 -62 -74v0zM286 220h39l19 -80l19 80h40
c2 -35 4 -98 6 -145h-29c0 34 -1 70 -3 104l-20 -82h-27l-20 82h-1c-1 -34 -2 -70 -2 -104h-28c1 47 4 110 7 145v0zM482 73c-40 0 -53 23 -53 74s13 75 53 75s54 -24 54 -75s-14 -74 -54 -74v0zM482 197c-20 0 -24 -17 -24 -50c0 -32 4 -50 24 -50c21 0 25 18 25 50
c0 33 -4 50 -25 50zM472 496c52 0 62 -42 62 -63c0 -31 -31 -49 -52 -52c-72 -8 -124 -31 -166 -72c0 0 73 187 156 187v0zM139 444c94 0 156 -187 156 -187c-41 52 -93 72 -156 72c-31 0 -62 21 -62 52c0 32 21 63 62 63v0zM314 593c67 -65 -19 -243 -19 -243
c7 66 -16 118 -61 161c-22 22 -30 58 -9 81c22 22 59 30 89 1v0z" />
    <glyph glyph-name="uni0000" horiz-adv-x="0" 
 />
    <glyph glyph-name="uni0000" horiz-adv-x="0" 
 />
    <glyph glyph-name="space" unicode=" " horiz-adv-x="493" 
 />
    <glyph glyph-name="exclam" unicode="!" 
d="M101 197c-3 0 -6 0 -9 -1v-98c2 -1 6 -1 9 -1c26 0 31 19 31 50c0 32 -5 50 -31 50v0zM253 161v-24h-40v-38h47v-24h-76v145h76v-25h-47v-34h40zM99 73c-8 0 -23 0 -36 2v143c13 2 27 4 37 4c45 0 61 -25 61 -75c0 -51 -17 -74 -62 -74v0zM286 220h39l19 -80l19 80h40
c2 -35 4 -98 6 -145h-29c0 34 -1 70 -3 104l-20 -82h-27l-20 82h-1c-1 -34 -2 -70 -2 -104h-28c1 47 4 110 7 145v0zM482 73c-40 0 -53 23 -53 74s13 75 53 75s54 -24 54 -75s-14 -74 -54 -74v0zM482 197c-20 0 -24 -17 -24 -50c0 -32 4 -50 24 -50c21 0 25 18 25 50
c0 33 -4 50 -25 50zM472 496c52 0 62 -42 62 -63c0 -31 -31 -49 -52 -52c-72 -8 -124 -31 -166 -72c0 0 73 187 156 187v0zM139 444c94 0 156 -187 156 -187c-41 52 -93 72 -156 72c-31 0 -62 21 -62 52c0 32 21 63 62 63v0zM314 593c67 -65 -19 -243 -19 -243
c7 66 -16 118 -61 161c-22 22 -30 58 -9 81c22 22 59 30 89 1v0z" />
    <glyph glyph-name="quotedbl" unicode="&#x22;" 
d="M101 197c-3 0 -6 0 -9 -1v-98c2 -1 6 -1 9 -1c26 0 31 19 31 50c0 32 -5 50 -31 50v0zM253 161v-24h-40v-38h47v-24h-76v145h76v-25h-47v-34h40zM99 73c-8 0 -23 0 -36 2v143c13 2 27 4 37 4c45 0 61 -25 61 -75c0 -51 -17 -74 -62 -74v0zM286 220h39l19 -80l19 80h40
c2 -35 4 -98 6 -145h-29c0 34 -1 70 -3 104l-20 -82h-27l-20 82h-1c-1 -34 -2 -70 -2 -104h-28c1 47 4 110 7 145v0zM482 73c-40 0 -53 23 -53 74s13 75 53 75s54 -24 54 -75s-14 -74 -54 -74v0zM482 197c-20 0 -24 -17 -24 -50c0 -32 4 -50 24 -50c21 0 25 18 25 50
c0 33 -4 50 -25 50zM472 496c52 0 62 -42 62 -63c0 -31 -31 -49 -52 -52c-72 -8 -124 -31 -166 -72c0 0 73 187 156 187v0zM139 444c94 0 156 -187 156 -187c-41 52 -93 72 -156 72c-31 0 -62 21 -62 52c0 32 21 63 62 63v0zM314 593c67 -65 -19 -243 -19 -243
c7 66 -16 118 -61 161c-22 22 -30 58 -9 81c22 22 59 30 89 1v0z" />
    <glyph glyph-name="numbersign" unicode="#" 
d="M101 197c-3 0 -6 0 -9 -1v-98c2 -1 6 -1 9 -1c26 0 31 19 31 50c0 32 -5 50 -31 50v0zM253 161v-24h-40v-38h47v-24h-76v145h76v-25h-47v-34h40zM99 73c-8 0 -23 0 -36 2v143c13 2 27 4 37 4c45 0 61 -25 61 -75c0 -51 -17 -74 -62 -74v0zM286 220h39l19 -80l19 80h40
c2 -35 4 -98 6 -145h-29c0 34 -1 70 -3 104l-20 -82h-27l-20 82h-1c-1 -34 -2 -70 -2 -104h-28c1 47 4 110 7 145v0zM482 73c-40 0 -53 23 -53 74s13 75 53 75s54 -24 54 -75s-14 -74 -54 -74v0zM482 197c-20 0 -24 -17 -24 -50c0 -32 4 -50 24 -50c21 0 25 18 25 50
c0 33 -4 50 -25 50zM472 496c52 0 62 -42 62 -63c0 -31 -31 -49 -52 -52c-72 -8 -124 -31 -166 -72c0 0 73 187 156 187v0zM139 444c94 0 156 -187 156 -187c-41 52 -93 72 -156 72c-31 0 -62 21 -62 52c0 32 21 63 62 63v0zM314 593c67 -65 -19 -243 -19 -243
c7 66 -16 118 -61 161c-22 22 -30 58 -9 81c22 22 59 30 89 1v0z" />
    <glyph glyph-name="dollar" unicode="$" 
d="M101 197c-3 0 -6 0 -9 -1v-98c2 -1 6 -1 9 -1c26 0 31 19 31 50c0 32 -5 50 -31 50v0zM253 161v-24h-40v-38h47v-24h-76v145h76v-25h-47v-34h40zM99 73c-8 0 -23 0 -36 2v143c13 2 27 4 37 4c45 0 61 -25 61 -75c0 -51 -17 -74 -62 -74v0zM286 220h39l19 -80l19 80h40
c2 -35 4 -98 6 -145h-29c0 34 -1 70 -3 104l-20 -82h-27l-20 82h-1c-1 -34 -2 -70 -2 -104h-28c1 47 4 110 7 145v0zM482 73c-40 0 -53 23 -53 74s13 75 53 75s54 -24 54 -75s-14 -74 -54 -74v0zM482 197c-20 0 -24 -17 -24 -50c0 -32 4 -50 24 -50c21 0 25 18 25 50
c0 33 -4 50 -25 50zM472 496c52 0 62 -42 62 -63c0 -31 -31 -49 -52 -52c-72 -8 -124 -31 -166 -72c0 0 73 187 156 187v0zM139 444c94 0 156 -187 156 -187c-41 52 -93 72 -156 72c-31 0 -62 21 -62 52c0 32 21 63 62 63v0zM314 593c67 -65 -19 -243 -19 -243
c7 66 -16 118 -61 161c-22 22 -30 58 -9 81c22 22 59 30 89 1v0z" />
    <glyph glyph-name="percent" unicode="%" 
d="M101 197c-3 0 -6 0 -9 -1v-98c2 -1 6 -1 9 -1c26 0 31 19 31 50c0 32 -5 50 -31 50v0zM253 161v-24h-40v-38h47v-24h-76v145h76v-25h-47v-34h40zM99 73c-8 0 -23 0 -36 2v143c13 2 27 4 37 4c45 0 61 -25 61 -75c0 -51 -17 -74 -62 -74v0zM286 220h39l19 -80l19 80h40
c2 -35 4 -98 6 -145h-29c0 34 -1 70 -3 104l-20 -82h-27l-20 82h-1c-1 -34 -2 -70 -2 -104h-28c1 47 4 110 7 145v0zM482 73c-40 0 -53 23 -53 74s13 75 53 75s54 -24 54 -75s-14 -74 -54 -74v0zM482 197c-20 0 -24 -17 -24 -50c0 -32 4 -50 24 -50c21 0 25 18 25 50
c0 33 -4 50 -25 50zM472 496c52 0 62 -42 62 -63c0 -31 -31 -49 -52 -52c-72 -8 -124 -31 -166 -72c0 0 73 187 156 187v0zM139 444c94 0 156 -187 156 -187c-41 52 -93 72 -156 72c-31 0 -62 21 -62 52c0 32 21 63 62 63v0zM314 593c67 -65 -19 -243 -19 -243
c7 66 -16 118 -61 161c-22 22 -30 58 -9 81c22 22 59 30 89 1v0z" />
    <glyph glyph-name="ampersand" unicode="&#x26;" 
d="M101 197c-3 0 -6 0 -9 -1v-98c2 -1 6 -1 9 -1c26 0 31 19 31 50c0 32 -5 50 -31 50v0zM253 161v-24h-40v-38h47v-24h-76v145h76v-25h-47v-34h40zM99 73c-8 0 -23 0 -36 2v143c13 2 27 4 37 4c45 0 61 -25 61 -75c0 -51 -17 -74 -62 -74v0zM286 220h39l19 -80l19 80h40
c2 -35 4 -98 6 -145h-29c0 34 -1 70 -3 104l-20 -82h-27l-20 82h-1c-1 -34 -2 -70 -2 -104h-28c1 47 4 110 7 145v0zM482 73c-40 0 -53 23 -53 74s13 75 53 75s54 -24 54 -75s-14 -74 -54 -74v0zM482 197c-20 0 -24 -17 -24 -50c0 -32 4 -50 24 -50c21 0 25 18 25 50
c0 33 -4 50 -25 50zM472 496c52 0 62 -42 62 -63c0 -31 -31 -49 -52 -52c-72 -8 -124 -31 -166 -72c0 0 73 187 156 187v0zM139 444c94 0 156 -187 156 -187c-41 52 -93 72 -156 72c-31 0 -62 21 -62 52c0 32 21 63 62 63v0zM314 593c67 -65 -19 -243 -19 -243
c7 66 -16 118 -61 161c-22 22 -30 58 -9 81c22 22 59 30 89 1v0z" />
    <glyph glyph-name="quotesingle" unicode="'" 
d="M101 197c-3 0 -6 0 -9 -1v-98c2 -1 6 -1 9 -1c26 0 31 19 31 50c0 32 -5 50 -31 50v0zM253 161v-24h-40v-38h47v-24h-76v145h76v-25h-47v-34h40zM99 73c-8 0 -23 0 -36 2v143c13 2 27 4 37 4c45 0 61 -25 61 -75c0 -51 -17 -74 -62 -74v0zM286 220h39l19 -80l19 80h40
c2 -35 4 -98 6 -145h-29c0 34 -1 70 -3 104l-20 -82h-27l-20 82h-1c-1 -34 -2 -70 -2 -104h-28c1 47 4 110 7 145v0zM482 73c-40 0 -53 23 -53 74s13 75 53 75s54 -24 54 -75s-14 -74 -54 -74v0zM482 197c-20 0 -24 -17 -24 -50c0 -32 4 -50 24 -50c21 0 25 18 25 50
c0 33 -4 50 -25 50zM472 496c52 0 62 -42 62 -63c0 -31 -31 -49 -52 -52c-72 -8 -124 -31 -166 -72c0 0 73 187 156 187v0zM139 444c94 0 156 -187 156 -187c-41 52 -93 72 -156 72c-31 0 -62 21 -62 52c0 32 21 63 62 63v0zM314 593c67 -65 -19 -243 -19 -243
c7 66 -16 118 -61 161c-22 22 -30 58 -9 81c22 22 59 30 89 1v0z" />
    <glyph glyph-name="parenleft" unicode="(" 
d="M101 197c-3 0 -6 0 -9 -1v-98c2 -1 6 -1 9 -1c26 0 31 19 31 50c0 32 -5 50 -31 50v0zM253 161v-24h-40v-38h47v-24h-76v145h76v-25h-47v-34h40zM99 73c-8 0 -23 0 -36 2v143c13 2 27 4 37 4c45 0 61 -25 61 -75c0 -51 -17 -74 -62 -74v0zM286 220h39l19 -80l19 80h40
c2 -35 4 -98 6 -145h-29c0 34 -1 70 -3 104l-20 -82h-27l-20 82h-1c-1 -34 -2 -70 -2 -104h-28c1 47 4 110 7 145v0zM482 73c-40 0 -53 23 -53 74s13 75 53 75s54 -24 54 -75s-14 -74 -54 -74v0zM482 197c-20 0 -24 -17 -24 -50c0 -32 4 -50 24 -50c21 0 25 18 25 50
c0 33 -4 50 -25 50zM472 496c52 0 62 -42 62 -63c0 -31 -31 -49 -52 -52c-72 -8 -124 -31 -166 -72c0 0 73 187 156 187v0zM139 444c94 0 156 -187 156 -187c-41 52 -93 72 -156 72c-31 0 -62 21 -62 52c0 32 21 63 62 63v0zM314 593c67 -65 -19 -243 -19 -243
c7 66 -16 118 -61 161c-22 22 -30 58 -9 81c22 22 59 30 89 1v0z" />
    <glyph glyph-name="parenright" unicode=")" 
d="M101 197c-3 0 -6 0 -9 -1v-98c2 -1 6 -1 9 -1c26 0 31 19 31 50c0 32 -5 50 -31 50v0zM253 161v-24h-40v-38h47v-24h-76v145h76v-25h-47v-34h40zM99 73c-8 0 -23 0 -36 2v143c13 2 27 4 37 4c45 0 61 -25 61 -75c0 -51 -17 -74 -62 -74v0zM286 220h39l19 -80l19 80h40
c2 -35 4 -98 6 -145h-29c0 34 -1 70 -3 104l-20 -82h-27l-20 82h-1c-1 -34 -2 -70 -2 -104h-28c1 47 4 110 7 145v0zM482 73c-40 0 -53 23 -53 74s13 75 53 75s54 -24 54 -75s-14 -74 -54 -74v0zM482 197c-20 0 -24 -17 -24 -50c0 -32 4 -50 24 -50c21 0 25 18 25 50
c0 33 -4 50 -25 50zM472 496c52 0 62 -42 62 -63c0 -31 -31 -49 -52 -52c-72 -8 -124 -31 -166 -72c0 0 73 187 156 187v0zM139 444c94 0 156 -187 156 -187c-41 52 -93 72 -156 72c-31 0 -62 21 -62 52c0 32 21 63 62 63v0zM314 593c67 -65 -19 -243 -19 -243
c7 66 -16 118 -61 161c-22 22 -30 58 -9 81c22 22 59 30 89 1v0z" />
    <glyph glyph-name="asterisk" unicode="*" 
d="M101 197c-3 0 -6 0 -9 -1v-98c2 -1 6 -1 9 -1c26 0 31 19 31 50c0 32 -5 50 -31 50v0zM253 161v-24h-40v-38h47v-24h-76v145h76v-25h-47v-34h40zM99 73c-8 0 -23 0 -36 2v143c13 2 27 4 37 4c45 0 61 -25 61 -75c0 -51 -17 -74 -62 -74v0zM286 220h39l19 -80l19 80h40
c2 -35 4 -98 6 -145h-29c0 34 -1 70 -3 104l-20 -82h-27l-20 82h-1c-1 -34 -2 -70 -2 -104h-28c1 47 4 110 7 145v0zM482 73c-40 0 -53 23 -53 74s13 75 53 75s54 -24 54 -75s-14 -74 -54 -74v0zM482 197c-20 0 -24 -17 -24 -50c0 -32 4 -50 24 -50c21 0 25 18 25 50
c0 33 -4 50 -25 50zM472 496c52 0 62 -42 62 -63c0 -31 -31 -49 -52 -52c-72 -8 -124 -31 -166 -72c0 0 73 187 156 187v0zM139 444c94 0 156 -187 156 -187c-41 52 -93 72 -156 72c-31 0 -62 21 -62 52c0 32 21 63 62 63v0zM314 593c67 -65 -19 -243 -19 -243
c7 66 -16 118 -61 161c-22 22 -30 58 -9 81c22 22 59 30 89 1v0z" />
    <glyph glyph-name="plus" unicode="+" 
d="M101 197c-3 0 -6 0 -9 -1v-98c2 -1 6 -1 9 -1c26 0 31 19 31 50c0 32 -5 50 -31 50v0zM253 161v-24h-40v-38h47v-24h-76v145h76v-25h-47v-34h40zM99 73c-8 0 -23 0 -36 2v143c13 2 27 4 37 4c45 0 61 -25 61 -75c0 -51 -17 -74 -62 -74v0zM286 220h39l19 -80l19 80h40
c2 -35 4 -98 6 -145h-29c0 34 -1 70 -3 104l-20 -82h-27l-20 82h-1c-1 -34 -2 -70 -2 -104h-28c1 47 4 110 7 145v0zM482 73c-40 0 -53 23 -53 74s13 75 53 75s54 -24 54 -75s-14 -74 -54 -74v0zM482 197c-20 0 -24 -17 -24 -50c0 -32 4 -50 24 -50c21 0 25 18 25 50
c0 33 -4 50 -25 50zM472 496c52 0 62 -42 62 -63c0 -31 -31 -49 -52 -52c-72 -8 -124 -31 -166 -72c0 0 73 187 156 187v0zM139 444c94 0 156 -187 156 -187c-41 52 -93 72 -156 72c-31 0 -62 21 -62 52c0 32 21 63 62 63v0zM314 593c67 -65 -19 -243 -19 -243
c7 66 -16 118 -61 161c-22 22 -30 58 -9 81c22 22 59 30 89 1v0z" />
    <glyph glyph-name="comma" unicode="," horiz-adv-x="690" 
d="M70 -278l211 542h319l-249 -542h-281z" />
    <glyph glyph-name="hyphen" unicode="-" 
d="M101 197c-3 0 -6 0 -9 -1v-98c2 -1 6 -1 9 -1c26 0 31 19 31 50c0 32 -5 50 -31 50v0zM253 161v-24h-40v-38h47v-24h-76v145h76v-25h-47v-34h40zM99 73c-8 0 -23 0 -36 2v143c13 2 27 4 37 4c45 0 61 -25 61 -75c0 -51 -17 -74 -62 -74v0zM286 220h39l19 -80l19 80h40
c2 -35 4 -98 6 -145h-29c0 34 -1 70 -3 104l-20 -82h-27l-20 82h-1c-1 -34 -2 -70 -2 -104h-28c1 47 4 110 7 145v0zM482 73c-40 0 -53 23 -53 74s13 75 53 75s54 -24 54 -75s-14 -74 -54 -74v0zM482 197c-20 0 -24 -17 -24 -50c0 -32 4 -50 24 -50c21 0 25 18 25 50
c0 33 -4 50 -25 50zM472 496c52 0 62 -42 62 -63c0 -31 -31 -49 -52 -52c-72 -8 -124 -31 -166 -72c0 0 73 187 156 187v0zM139 444c94 0 156 -187 156 -187c-41 52 -93 72 -156 72c-31 0 -62 21 -62 52c0 32 21 63 62 63v0zM314 593c67 -65 -19 -243 -19 -243
c7 66 -16 118 -61 161c-22 22 -30 58 -9 81c22 22 59 30 89 1v0z" />
    <glyph glyph-name="period" unicode="." horiz-adv-x="526" 
d="M90 163c0 95 78 173 173 173s173 -78 173 -173s-78 -173 -173 -173s-173 78 -173 173z" />
    <glyph glyph-name="slash" unicode="/" 
d="M101 197c-3 0 -6 0 -9 -1v-98c2 -1 6 -1 9 -1c26 0 31 19 31 50c0 32 -5 50 -31 50v0zM253 161v-24h-40v-38h47v-24h-76v145h76v-25h-47v-34h40zM99 73c-8 0 -23 0 -36 2v143c13 2 27 4 37 4c45 0 61 -25 61 -75c0 -51 -17 -74 -62 -74v0zM286 220h39l19 -80l19 80h40
c2 -35 4 -98 6 -145h-29c0 34 -1 70 -3 104l-20 -82h-27l-20 82h-1c-1 -34 -2 -70 -2 -104h-28c1 47 4 110 7 145v0zM482 73c-40 0 -53 23 -53 74s13 75 53 75s54 -24 54 -75s-14 -74 -54 -74v0zM482 197c-20 0 -24 -17 -24 -50c0 -32 4 -50 24 -50c21 0 25 18 25 50
c0 33 -4 50 -25 50zM472 496c52 0 62 -42 62 -63c0 -31 -31 -49 -52 -52c-72 -8 -124 -31 -166 -72c0 0 73 187 156 187v0zM139 444c94 0 156 -187 156 -187c-41 52 -93 72 -156 72c-31 0 -62 21 -62 52c0 32 21 63 62 63v0zM314 593c67 -65 -19 -243 -19 -243
c7 66 -16 118 -61 161c-22 22 -30 58 -9 81c22 22 59 30 89 1v0z" />
    <glyph glyph-name="zero" unicode="0" horiz-adv-x="1452" 
d="M726 -40c-446 0 -636 353 -636 757s190 757 636 757s636 -353 636 -757s-190 -757 -636 -757zM726 1186c-255 0 -303 -266 -303 -469s48 -469 303 -469s303 266 303 469s-48 469 -303 469z" />
    <glyph glyph-name="one" unicode="1" horiz-adv-x="867" 
d="M248 829l-208 220l432 385h265v-1434h-333v966z" />
    <glyph glyph-name="two" unicode="2" horiz-adv-x="1302" 
d="M110 1089c81 252 292 385 554 385c292 0 522 -138 522 -454c0 -183 -133 -315 -255 -435l-303 -296h564v-289h-1064v226l590 576c56 55 135 134 135 218c0 114 -83 165 -189 165c-136 0 -206 -81 -257 -196z" />
    <glyph glyph-name="three" unicode="3" horiz-adv-x="1343" 
d="M90 285l297 100c59 -104 172 -136 285 -136c108 0 248 28 248 163c0 190 -295 180 -430 180v279c126 0 390 2 390 182c0 110 -122 132 -208 132c-99 0 -191 -29 -245 -116l-297 100c88 217 322 305 542 305c265 0 541 -116 541 -421c0 -148 -87 -256 -223 -308
c163 -48 263 -157 263 -333c0 -328 -295 -452 -581 -452c-251 0 -487 71 -582 325z" />
    <glyph glyph-name="four" unicode="4" 
d="M101 197c-3 0 -6 0 -9 -1v-98c2 -1 6 -1 9 -1c26 0 31 19 31 50c0 32 -5 50 -31 50v0zM253 161v-24h-40v-38h47v-24h-76v145h76v-25h-47v-34h40zM99 73c-8 0 -23 0 -36 2v143c13 2 27 4 37 4c45 0 61 -25 61 -75c0 -51 -17 -74 -62 -74v0zM286 220h39l19 -80l19 80h40
c2 -35 4 -98 6 -145h-29c0 34 -1 70 -3 104l-20 -82h-27l-20 82h-1c-1 -34 -2 -70 -2 -104h-28c1 47 4 110 7 145v0zM482 73c-40 0 -53 23 -53 74s13 75 53 75s54 -24 54 -75s-14 -74 -54 -74v0zM482 197c-20 0 -24 -17 -24 -50c0 -32 4 -50 24 -50c21 0 25 18 25 50
c0 33 -4 50 -25 50zM472 496c52 0 62 -42 62 -63c0 -31 -31 -49 -52 -52c-72 -8 -124 -31 -166 -72c0 0 73 187 156 187v0zM139 444c94 0 156 -187 156 -187c-41 52 -93 72 -156 72c-31 0 -62 21 -62 52c0 32 21 63 62 63v0zM314 593c67 -65 -19 -243 -19 -243
c7 66 -16 118 -61 161c-22 22 -30 58 -9 81c22 22 59 30 89 1v0z" />
    <glyph glyph-name="five" unicode="5" horiz-adv-x="1390" 
d="M130 144l212 219c102 -82 220 -114 350 -114c135 0 255 48 255 202c0 157 -117 201 -255 201c-168 0 -356 -38 -511 -104l54 886h939v-289h-623l-13 -227c50 9 103 13 154 13c330 0 588 -114 588 -480c0 -353 -267 -491 -588 -491c-208 0 -407 36 -562 184z" />
    <glyph glyph-name="six" unicode="6" horiz-adv-x="1403" 
d="M701 -40c-445 0 -591 299 -591 686c0 440 208 820 689 820c122 0 244 -26 358 -71l-123 -244c-71 24 -146 39 -221 39c-173 0 -328 -90 -352 -273c60 50 165 69 240 69c320 0 592 -167 592 -513s-272 -513 -592 -513zM701 697c-144 0 -259 -68 -259 -224
c0 -157 115 -224 259 -224s259 67 259 224s-115 224 -259 224z" />
    <glyph glyph-name="seven" unicode="7" horiz-adv-x="1211" 
d="M90 1145v289h1031v-235l-557 -1199h-353l540 1145h-661z" />
    <glyph glyph-name="eight" unicode="8" horiz-adv-x="1354" 
d="M677 -40c-299 0 -587 121 -587 463c0 147 68 261 198 328c-98 55 -165 163 -165 276c0 318 270 447 554 447s554 -129 554 -447c0 -113 -67 -221 -165 -276c130 -67 198 -181 198 -328c0 -342 -288 -463 -587 -463zM677 597c-116 0 -254 -32 -254 -174s138 -174 254 -174
s254 32 254 174s-138 174 -254 174zM456 1027c0 -128 114 -158 221 -158s221 30 221 158s-114 158 -221 158s-221 -30 -221 -158z" />
    <glyph glyph-name="nine" unicode="9" horiz-adv-x="1403" 
d="M702 448c-320 0 -592 167 -592 513s272 513 592 513c445 0 591 -299 591 -686c0 -439 -208 -820 -689 -820c-122 0 -244 26 -358 71l123 244c71 -24 146 -39 221 -39c173 0 328 90 352 273c-60 -50 -165 -69 -240 -69zM443 961c0 -157 115 -224 259 -224s259 68 259 224
c0 157 -115 224 -259 224s-259 -67 -259 -224z" />
    <glyph glyph-name="colon" unicode=":" horiz-adv-x="526" 
d="M90 163c0 95 78 173 173 173s173 -78 173 -173s-78 -173 -173 -173s-173 78 -173 173zM90 867c0 95 78 173 173 173s173 -78 173 -173s-78 -173 -173 -173s-173 78 -173 173z" />
    <glyph glyph-name="semicolon" unicode=";" horiz-adv-x="620" 
d="M271 -278h-281l211 542h319zM184 867c0 95 78 173 173 173s173 -78 173 -173s-78 -173 -173 -173s-173 78 -173 173z" />
    <glyph glyph-name="less" unicode="&#x3c;" 
d="M101 197c-3 0 -6 0 -9 -1v-98c2 -1 6 -1 9 -1c26 0 31 19 31 50c0 32 -5 50 -31 50v0zM253 161v-24h-40v-38h47v-24h-76v145h76v-25h-47v-34h40zM99 73c-8 0 -23 0 -36 2v143c13 2 27 4 37 4c45 0 61 -25 61 -75c0 -51 -17 -74 -62 -74v0zM286 220h39l19 -80l19 80h40
c2 -35 4 -98 6 -145h-29c0 34 -1 70 -3 104l-20 -82h-27l-20 82h-1c-1 -34 -2 -70 -2 -104h-28c1 47 4 110 7 145v0zM482 73c-40 0 -53 23 -53 74s13 75 53 75s54 -24 54 -75s-14 -74 -54 -74v0zM482 197c-20 0 -24 -17 -24 -50c0 -32 4 -50 24 -50c21 0 25 18 25 50
c0 33 -4 50 -25 50zM472 496c52 0 62 -42 62 -63c0 -31 -31 -49 -52 -52c-72 -8 -124 -31 -166 -72c0 0 73 187 156 187v0zM139 444c94 0 156 -187 156 -187c-41 52 -93 72 -156 72c-31 0 -62 21 -62 52c0 32 21 63 62 63v0zM314 593c67 -65 -19 -243 -19 -243
c7 66 -16 118 -61 161c-22 22 -30 58 -9 81c22 22 59 30 89 1v0z" />
    <glyph glyph-name="equal" unicode="=" 
d="M101 197c-3 0 -6 0 -9 -1v-98c2 -1 6 -1 9 -1c26 0 31 19 31 50c0 32 -5 50 -31 50v0zM253 161v-24h-40v-38h47v-24h-76v145h76v-25h-47v-34h40zM99 73c-8 0 -23 0 -36 2v143c13 2 27 4 37 4c45 0 61 -25 61 -75c0 -51 -17 -74 -62 -74v0zM286 220h39l19 -80l19 80h40
c2 -35 4 -98 6 -145h-29c0 34 -1 70 -3 104l-20 -82h-27l-20 82h-1c-1 -34 -2 -70 -2 -104h-28c1 47 4 110 7 145v0zM482 73c-40 0 -53 23 -53 74s13 75 53 75s54 -24 54 -75s-14 -74 -54 -74v0zM482 197c-20 0 -24 -17 -24 -50c0 -32 4 -50 24 -50c21 0 25 18 25 50
c0 33 -4 50 -25 50zM472 496c52 0 62 -42 62 -63c0 -31 -31 -49 -52 -52c-72 -8 -124 -31 -166 -72c0 0 73 187 156 187v0zM139 444c94 0 156 -187 156 -187c-41 52 -93 72 -156 72c-31 0 -62 21 -62 52c0 32 21 63 62 63v0zM314 593c67 -65 -19 -243 -19 -243
c7 66 -16 118 -61 161c-22 22 -30 58 -9 81c22 22 59 30 89 1v0z" />
    <glyph glyph-name="greater" unicode="&#x3e;" 
d="M101 197c-3 0 -6 0 -9 -1v-98c2 -1 6 -1 9 -1c26 0 31 19 31 50c0 32 -5 50 -31 50v0zM253 161v-24h-40v-38h47v-24h-76v145h76v-25h-47v-34h40zM99 73c-8 0 -23 0 -36 2v143c13 2 27 4 37 4c45 0 61 -25 61 -75c0 -51 -17 -74 -62 -74v0zM286 220h39l19 -80l19 80h40
c2 -35 4 -98 6 -145h-29c0 34 -1 70 -3 104l-20 -82h-27l-20 82h-1c-1 -34 -2 -70 -2 -104h-28c1 47 4 110 7 145v0zM482 73c-40 0 -53 23 -53 74s13 75 53 75s54 -24 54 -75s-14 -74 -54 -74v0zM482 197c-20 0 -24 -17 -24 -50c0 -32 4 -50 24 -50c21 0 25 18 25 50
c0 33 -4 50 -25 50zM472 496c52 0 62 -42 62 -63c0 -31 -31 -49 -52 -52c-72 -8 -124 -31 -166 -72c0 0 73 187 156 187v0zM139 444c94 0 156 -187 156 -187c-41 52 -93 72 -156 72c-31 0 -62 21 -62 52c0 32 21 63 62 63v0zM314 593c67 -65 -19 -243 -19 -243
c7 66 -16 118 -61 161c-22 22 -30 58 -9 81c22 22 59 30 89 1v0z" />
    <glyph glyph-name="question" unicode="?" horiz-adv-x="1218" 
d="M337 1038l-267 145c106 203 311 291 533 291c277 0 545 -124 545 -436c0 -241 -177 -368 -401 -399v-217h-333v412c125 2 401 28 401 204c0 124 -110 147 -212 147c-122 0 -198 -50 -266 -147zM407 163c0 95 78 173 173 173s173 -78 173 -173s-78 -173 -173 -173
s-173 78 -173 173z" />
    <glyph glyph-name="at" unicode="@" 
d="M101 197c-3 0 -6 0 -9 -1v-98c2 -1 6 -1 9 -1c26 0 31 19 31 50c0 32 -5 50 -31 50v0zM253 161v-24h-40v-38h47v-24h-76v145h76v-25h-47v-34h40zM99 73c-8 0 -23 0 -36 2v143c13 2 27 4 37 4c45 0 61 -25 61 -75c0 -51 -17 -74 -62 -74v0zM286 220h39l19 -80l19 80h40
c2 -35 4 -98 6 -145h-29c0 34 -1 70 -3 104l-20 -82h-27l-20 82h-1c-1 -34 -2 -70 -2 -104h-28c1 47 4 110 7 145v0zM482 73c-40 0 -53 23 -53 74s13 75 53 75s54 -24 54 -75s-14 -74 -54 -74v0zM482 197c-20 0 -24 -17 -24 -50c0 -32 4 -50 24 -50c21 0 25 18 25 50
c0 33 -4 50 -25 50zM472 496c52 0 62 -42 62 -63c0 -31 -31 -49 -52 -52c-72 -8 -124 -31 -166 -72c0 0 73 187 156 187v0zM139 444c94 0 156 -187 156 -187c-41 52 -93 72 -156 72c-31 0 -62 21 -62 52c0 32 21 63 62 63v0zM314 593c67 -65 -19 -243 -19 -243
c7 66 -16 118 -61 161c-22 22 -30 58 -9 81c22 22 59 30 89 1v0z" />
    <glyph glyph-name="A" unicode="A" horiz-adv-x="1596" 
d="M40 0l593 1434h330l593 -1434h-359l-110 281h-578l-110 -281h-359zM798 1014l-179 -454h358z" />
    <glyph glyph-name="B" unicode="B" horiz-adv-x="1492" 
d="M823 0h-693v1434h677c267 0 544 -66 544 -383c0 -145 -104 -263 -245 -292c171 -36 296 -146 296 -329c0 -330 -295 -430 -579 -430zM463 602v-324h352c122 0 247 13 247 162c0 150 -125 162 -247 162h-352zM463 871h352c100 0 200 23 200 142s-100 142 -200 142h-352
v-284z" />
    <glyph glyph-name="C" unicode="C" horiz-adv-x="1517" 
d="M866 -40c-469 0 -776 284 -776 757s307 757 776 757c221 0 409 -37 581 -183l-165 -226c-130 89 -258 120 -416 120c-290 0 -433 -191 -433 -468s143 -468 433 -468c158 0 286 31 416 120l165 -226c-172 -146 -360 -183 -581 -183z" />
    <glyph glyph-name="D" unicode="D" horiz-adv-x="1543" 
d="M737 0h-607v1434h607c450 0 716 -269 716 -717s-266 -717 -716 -717zM737 1145h-274v-856h274c262 0 373 187 373 428s-111 428 -373 428z" />
    <glyph glyph-name="E" unicode="E" horiz-adv-x="1316" 
d="M130 1434h1066v-289h-733v-269h690v-289h-690v-298h743v-289h-1076v1434z" />
    <glyph glyph-name="F" unicode="F" horiz-adv-x="1306" 
d="M130 1434h1066v-289h-733v-289h690v-289h-690v-567h-333v1434z" />
    <glyph glyph-name="G" unicode="G" horiz-adv-x="1567" 
d="M90 717c0 473 307 757 776 757c218 0 417 -45 591 -183l-170 -222c-126 85 -271 116 -421 116c-290 0 -433 -191 -433 -468s143 -468 433 -468c94 0 189 12 273 55v263h-277v279h586v-716c-159 -135 -379 -170 -582 -170c-469 0 -776 284 -776 757z" />
    <glyph glyph-name="H" unicode="H" horiz-adv-x="1551" 
d="M463 0h-333v1434h333v-558h625v558h333v-1434h-333v587h-625v-587z" />
    <glyph glyph-name="I" unicode="I" horiz-adv-x="613" 
d="M140 0v1434h333v-1434h-333z" />
    <glyph glyph-name="J" unicode="J" horiz-adv-x="1254" 
d="M70 318l308 85c44 -102 108 -154 222 -154c153 0 191 94 191 231v954h333v-954c0 -350 -177 -520 -524 -520c-266 0 -452 95 -530 358z" />
    <glyph glyph-name="K" unicode="K" horiz-adv-x="1501" 
d="M463 0h-333v1434h333v-582l571 582h407l-610 -621l630 -813h-395l-454 587l-149 -153v-434z" />
    <glyph glyph-name="L" unicode="L" horiz-adv-x="1251" 
d="M463 1434v-1145h698v-289h-1031v1434h333z" />
    <glyph glyph-name="M" unicode="M" horiz-adv-x="1902" 
d="M130 0v1434h457l364 -908l364 908h457v-1434h-333v900l-359 -900h-258l-359 900v-900h-333z" />
    <glyph glyph-name="N" unicode="N" horiz-adv-x="1573" 
d="M463 0h-333v1434h422l558 -956v956h333v-1434h-422l-558 956v-956z" />
    <glyph glyph-name="O" unicode="O" horiz-adv-x="1732" 
d="M866 -40c-469 0 -776 284 -776 757s307 757 776 757s776 -284 776 -757s-307 -757 -776 -757zM433 717c0 -277 143 -468 433 -468s433 191 433 468s-143 468 -433 468s-433 -191 -433 -468z" />
    <glyph glyph-name="P" unicode="P" horiz-adv-x="1458" 
d="M130 0v1434h642c321 0 576 -155 576 -502s-255 -502 -576 -502h-309v-430h-333zM463 719h309c142 0 239 62 239 213s-97 213 -239 213h-309v-426z" />
    <glyph glyph-name="Q" unicode="Q" horiz-adv-x="1732" 
d="M866 -40c-469 0 -776 284 -776 757s307 757 776 757s776 -284 776 -757c0 -216 -69 -432 -235 -578l209 -227h-361l-82 94c-99 -33 -203 -46 -307 -46zM866 1185c-290 0 -433 -191 -433 -468s143 -468 433 -468c30 0 60 2 89 7l-190 218h333l90 -98
c83 92 111 220 111 341c0 277 -143 468 -433 468z" />
    <glyph glyph-name="R" unicode="R" horiz-adv-x="1440" 
d="M463 0h-333v1434h642c308 0 564 -152 564 -485c0 -197 -108 -337 -286 -412l300 -537h-357l-276 494h-254v-494zM463 1145v-392h309c131 0 227 55 227 196s-96 196 -227 196h-309z" />
    <glyph glyph-name="S" unicode="S" horiz-adv-x="1356" 
d="M70 132l162 235c131 -82 287 -118 440 -118c102 0 277 10 277 149c0 126 -201 154 -292 174c-256 56 -541 166 -541 474c0 320 276 428 556 428c192 0 394 -36 556 -144l-162 -235c-129 64 -251 90 -394 90c-92 0 -219 -22 -219 -139c0 -126 173 -157 267 -178
c262 -59 566 -146 566 -470c0 -349 -323 -438 -614 -438c-217 0 -427 37 -602 172z" />
    <glyph glyph-name="T" unicode="T" horiz-adv-x="1425" 
d="M546 1145h-476v289h1285v-289h-476v-1145h-333v1145z" />
    <glyph glyph-name="U" unicode="U" horiz-adv-x="1537" 
d="M769 -40c-451 0 -639 262 -639 691v783h333v-783c0 -226 42 -402 306 -402c263 0 305 177 305 402v783h333v-783c0 -428 -188 -691 -638 -691z" />
    <glyph glyph-name="V" unicode="V" horiz-adv-x="1556" 
d="M40 1434h359l379 -1014l379 1014h359l-573 -1434h-330z" />
    <glyph glyph-name="W" unicode="W" horiz-adv-x="2088" 
d="M477 0l-437 1434h358l251 -884l253 884h284l253 -884l251 884h358l-437 -1434h-323l-244 838l-244 -838h-323z" />
    <glyph glyph-name="X" unicode="X" horiz-adv-x="1580" 
d="M433 0h-393l533 738l-501 696h393l325 -454l325 454h393l-502 -696l534 -738h-393l-357 496z" />
    <glyph glyph-name="Y" unicode="Y" horiz-adv-x="1524" 
d="M595 576l-555 858h382l340 -542l340 542h382l-555 -858v-576h-334v576z" />
    <glyph glyph-name="Z" unicode="Z" horiz-adv-x="1371" 
d="M1261 0h-1151v176l677 969h-637v289h1111v-176l-676 -969h676v-289z" />
    <glyph glyph-name="bracketleft" unicode="[" 
d="M101 197c-3 0 -6 0 -9 -1v-98c2 -1 6 -1 9 -1c26 0 31 19 31 50c0 32 -5 50 -31 50v0zM253 161v-24h-40v-38h47v-24h-76v145h76v-25h-47v-34h40zM99 73c-8 0 -23 0 -36 2v143c13 2 27 4 37 4c45 0 61 -25 61 -75c0 -51 -17 -74 -62 -74v0zM286 220h39l19 -80l19 80h40
c2 -35 4 -98 6 -145h-29c0 34 -1 70 -3 104l-20 -82h-27l-20 82h-1c-1 -34 -2 -70 -2 -104h-28c1 47 4 110 7 145v0zM482 73c-40 0 -53 23 -53 74s13 75 53 75s54 -24 54 -75s-14 -74 -54 -74v0zM482 197c-20 0 -24 -17 -24 -50c0 -32 4 -50 24 -50c21 0 25 18 25 50
c0 33 -4 50 -25 50zM472 496c52 0 62 -42 62 -63c0 -31 -31 -49 -52 -52c-72 -8 -124 -31 -166 -72c0 0 73 187 156 187v0zM139 444c94 0 156 -187 156 -187c-41 52 -93 72 -156 72c-31 0 -62 21 -62 52c0 32 21 63 62 63v0zM314 593c67 -65 -19 -243 -19 -243
c7 66 -16 118 -61 161c-22 22 -30 58 -9 81c22 22 59 30 89 1v0z" />
    <glyph glyph-name="backslash" unicode="\" 
d="M101 197c-3 0 -6 0 -9 -1v-98c2 -1 6 -1 9 -1c26 0 31 19 31 50c0 32 -5 50 -31 50v0zM253 161v-24h-40v-38h47v-24h-76v145h76v-25h-47v-34h40zM99 73c-8 0 -23 0 -36 2v143c13 2 27 4 37 4c45 0 61 -25 61 -75c0 -51 -17 -74 -62 -74v0zM286 220h39l19 -80l19 80h40
c2 -35 4 -98 6 -145h-29c0 34 -1 70 -3 104l-20 -82h-27l-20 82h-1c-1 -34 -2 -70 -2 -104h-28c1 47 4 110 7 145v0zM482 73c-40 0 -53 23 -53 74s13 75 53 75s54 -24 54 -75s-14 -74 -54 -74v0zM482 197c-20 0 -24 -17 -24 -50c0 -32 4 -50 24 -50c21 0 25 18 25 50
c0 33 -4 50 -25 50zM472 496c52 0 62 -42 62 -63c0 -31 -31 -49 -52 -52c-72 -8 -124 -31 -166 -72c0 0 73 187 156 187v0zM139 444c94 0 156 -187 156 -187c-41 52 -93 72 -156 72c-31 0 -62 21 -62 52c0 32 21 63 62 63v0zM314 593c67 -65 -19 -243 -19 -243
c7 66 -16 118 -61 161c-22 22 -30 58 -9 81c22 22 59 30 89 1v0z" />
    <glyph glyph-name="bracketright" unicode="]" 
d="M101 197c-3 0 -6 0 -9 -1v-98c2 -1 6 -1 9 -1c26 0 31 19 31 50c0 32 -5 50 -31 50v0zM253 161v-24h-40v-38h47v-24h-76v145h76v-25h-47v-34h40zM99 73c-8 0 -23 0 -36 2v143c13 2 27 4 37 4c45 0 61 -25 61 -75c0 -51 -17 -74 -62 -74v0zM286 220h39l19 -80l19 80h40
c2 -35 4 -98 6 -145h-29c0 34 -1 70 -3 104l-20 -82h-27l-20 82h-1c-1 -34 -2 -70 -2 -104h-28c1 47 4 110 7 145v0zM482 73c-40 0 -53 23 -53 74s13 75 53 75s54 -24 54 -75s-14 -74 -54 -74v0zM482 197c-20 0 -24 -17 -24 -50c0 -32 4 -50 24 -50c21 0 25 18 25 50
c0 33 -4 50 -25 50zM472 496c52 0 62 -42 62 -63c0 -31 -31 -49 -52 -52c-72 -8 -124 -31 -166 -72c0 0 73 187 156 187v0zM139 444c94 0 156 -187 156 -187c-41 52 -93 72 -156 72c-31 0 -62 21 -62 52c0 32 21 63 62 63v0zM314 593c67 -65 -19 -243 -19 -243
c7 66 -16 118 -61 161c-22 22 -30 58 -9 81c22 22 59 30 89 1v0z" />
    <glyph glyph-name="asciicircum" unicode="^" 
d="M101 197c-3 0 -6 0 -9 -1v-98c2 -1 6 -1 9 -1c26 0 31 19 31 50c0 32 -5 50 -31 50v0zM253 161v-24h-40v-38h47v-24h-76v145h76v-25h-47v-34h40zM99 73c-8 0 -23 0 -36 2v143c13 2 27 4 37 4c45 0 61 -25 61 -75c0 -51 -17 -74 -62 -74v0zM286 220h39l19 -80l19 80h40
c2 -35 4 -98 6 -145h-29c0 34 -1 70 -3 104l-20 -82h-27l-20 82h-1c-1 -34 -2 -70 -2 -104h-28c1 47 4 110 7 145v0zM482 73c-40 0 -53 23 -53 74s13 75 53 75s54 -24 54 -75s-14 -74 -54 -74v0zM482 197c-20 0 -24 -17 -24 -50c0 -32 4 -50 24 -50c21 0 25 18 25 50
c0 33 -4 50 -25 50zM472 496c52 0 62 -42 62 -63c0 -31 -31 -49 -52 -52c-72 -8 -124 -31 -166 -72c0 0 73 187 156 187v0zM139 444c94 0 156 -187 156 -187c-41 52 -93 72 -156 72c-31 0 -62 21 -62 52c0 32 21 63 62 63v0zM314 593c67 -65 -19 -243 -19 -243
c7 66 -16 118 -61 161c-22 22 -30 58 -9 81c22 22 59 30 89 1v0z" />
    <glyph glyph-name="underscore" unicode="_" 
d="M101 197c-3 0 -6 0 -9 -1v-98c2 -1 6 -1 9 -1c26 0 31 19 31 50c0 32 -5 50 -31 50v0zM253 161v-24h-40v-38h47v-24h-76v145h76v-25h-47v-34h40zM99 73c-8 0 -23 0 -36 2v143c13 2 27 4 37 4c45 0 61 -25 61 -75c0 -51 -17 -74 -62 -74v0zM286 220h39l19 -80l19 80h40
c2 -35 4 -98 6 -145h-29c0 34 -1 70 -3 104l-20 -82h-27l-20 82h-1c-1 -34 -2 -70 -2 -104h-28c1 47 4 110 7 145v0zM482 73c-40 0 -53 23 -53 74s13 75 53 75s54 -24 54 -75s-14 -74 -54 -74v0zM482 197c-20 0 -24 -17 -24 -50c0 -32 4 -50 24 -50c21 0 25 18 25 50
c0 33 -4 50 -25 50zM472 496c52 0 62 -42 62 -63c0 -31 -31 -49 -52 -52c-72 -8 -124 -31 -166 -72c0 0 73 187 156 187v0zM139 444c94 0 156 -187 156 -187c-41 52 -93 72 -156 72c-31 0 -62 21 -62 52c0 32 21 63 62 63v0zM314 593c67 -65 -19 -243 -19 -243
c7 66 -16 118 -61 161c-22 22 -30 58 -9 81c22 22 59 30 89 1v0z" />
    <glyph glyph-name="grave" unicode="`" 
d="M101 197c-3 0 -6 0 -9 -1v-98c2 -1 6 -1 9 -1c26 0 31 19 31 50c0 32 -5 50 -31 50v0zM253 161v-24h-40v-38h47v-24h-76v145h76v-25h-47v-34h40zM99 73c-8 0 -23 0 -36 2v143c13 2 27 4 37 4c45 0 61 -25 61 -75c0 -51 -17 -74 -62 -74v0zM286 220h39l19 -80l19 80h40
c2 -35 4 -98 6 -145h-29c0 34 -1 70 -3 104l-20 -82h-27l-20 82h-1c-1 -34 -2 -70 -2 -104h-28c1 47 4 110 7 145v0zM482 73c-40 0 -53 23 -53 74s13 75 53 75s54 -24 54 -75s-14 -74 -54 -74v0zM482 197c-20 0 -24 -17 -24 -50c0 -32 4 -50 24 -50c21 0 25 18 25 50
c0 33 -4 50 -25 50zM472 496c52 0 62 -42 62 -63c0 -31 -31 -49 -52 -52c-72 -8 -124 -31 -166 -72c0 0 73 187 156 187v0zM139 444c94 0 156 -187 156 -187c-41 52 -93 72 -156 72c-31 0 -62 21 -62 52c0 32 21 63 62 63v0zM314 593c67 -65 -19 -243 -19 -243
c7 66 -16 118 -61 161c-22 22 -30 58 -9 81c22 22 59 30 89 1v0z" />
    <glyph glyph-name="a" unicode="a" horiz-adv-x="1214" 
d="M465 -24c-217 0 -395 108 -395 343c0 300 319 358 556 358c50 0 100 -2 150 -7c2 127 -67 148 -183 148s-221 -20 -328 -65l-109 210c132 68 309 97 457 97c318 0 491 -87 491 -425v-635h-329v135c-56 -127 -183 -159 -310 -159zM398 349c0 -89 67 -121 147 -121
c103 0 230 50 230 171v89c-27 2 -54 3 -81 3c-92 0 -296 -13 -296 -142z" />
    <glyph glyph-name="b" unicode="b" horiz-adv-x="1372" 
d="M110 0v1516h328v-622c76 115 204 166 338 166c327 0 526 -224 526 -545s-199 -545 -526 -545c-134 0 -262 51 -338 166v-136h-328zM706 808c-175 0 -268 -127 -268 -293s93 -293 268 -293s268 127 268 293s-93 293 -268 293z" />
    <glyph glyph-name="c" unicode="c" horiz-adv-x="1173" 
d="M676 -30c-333 0 -606 192 -606 545s273 545 606 545c165 0 331 -38 447 -164l-157 -191c-83 69 -182 103 -290 103c-178 0 -278 -120 -278 -293s100 -293 278 -293c108 0 207 34 290 103l157 -191c-116 -126 -282 -164 -447 -164z" />
    <glyph glyph-name="d" unicode="d" horiz-adv-x="1372" 
d="M70 515c0 321 199 545 526 545c134 0 262 -51 338 -166v622h328v-1516h-328v136c-76 -115 -204 -166 -338 -166c-327 0 -526 224 -526 545zM666 808c-175 0 -268 -127 -268 -293s93 -293 268 -293s268 127 268 293s-93 293 -268 293z" />
    <glyph glyph-name="e" unicode="e" horiz-adv-x="1265" 
d="M70 515c0 346 231 545 570 545c358 0 555 -209 555 -564c0 -34 -2 -68 -5 -102h-779c-1 -134 110 -182 229 -182c118 0 231 27 329 94l162 -184c-138 -112 -316 -152 -491 -152c-345 0 -570 194 -570 545zM640 818c-132 0 -228 -75 -228 -212h456c0 137 -96 212 -228 212
z" />
    <glyph glyph-name="f" unicode="f" horiz-adv-x="941" 
d="M238 778h-188v252h188c6 306 74 516 426 516c83 0 179 -14 257 -44l-85 -229c-43 13 -87 21 -132 21c-158 0 -138 -150 -138 -264h284v-252h-284v-778h-328v778z" />
    <glyph glyph-name="g" unicode="g" horiz-adv-x="1372" 
d="M70 515c0 321 199 545 526 545c134 0 262 -51 338 -166v136h328v-1030c0 -394 -284 -532 -637 -532c-169 0 -340 32 -489 116l125 228c119 -63 230 -92 364 -92c182 0 309 86 309 280v136c-76 -115 -204 -166 -338 -166c-327 0 -526 224 -526 545zM666 808
c-175 0 -268 -127 -268 -293s93 -293 268 -293s268 127 268 293s-93 293 -268 293z" />
    <glyph glyph-name="h" unicode="h" horiz-adv-x="1296" 
d="M110 0v1516h328v-595c65 98 160 139 275 139c344 0 473 -203 473 -526v-534h-328v534c0 149 -37 274 -210 274s-210 -125 -210 -274v-534h-328z" />
    <glyph glyph-name="i" unicode="i" horiz-adv-x="564" 
d="M118 0v1030h328v-1030h-328zM110 1334c0 95 77 172 172 172s172 -77 172 -172s-77 -172 -172 -172s-172 77 -172 172z" />
    <glyph glyph-name="j" unicode="j" horiz-adv-x="580" 
d="M-190 -488l82 229c37 -13 80 -21 119 -21c123 0 123 130 123 220v1090h328v-1090c0 -305 -108 -472 -431 -472c-73 0 -156 10 -221 44zM298 1162c-95 0 -172 77 -172 172s77 172 172 172s172 -77 172 -172s-77 -172 -172 -172z" />
    <glyph glyph-name="k" unicode="k" horiz-adv-x="1264" 
d="M110 1516h328v-839l391 353h415l-481 -434l481 -596h-385l-318 394l-103 -92v-302h-328v1516z" />
    <glyph glyph-name="l" unicode="l" horiz-adv-x="627" 
d="M110 390v1126h328v-1096c0 -61 -7 -168 80 -168h39v-252h-106c-272 0 -341 150 -341 390z" />
    <glyph glyph-name="m" unicode="m" horiz-adv-x="1856" 
d="M110 0v1030h328v-106c48 104 134 136 242 136c148 0 276 -52 349 -186c59 127 167 186 305 186c294 0 412 -205 412 -476v-584h-328v584c0 110 -32 224 -163 224s-163 -114 -163 -224v-584h-328v584c0 110 -32 224 -163 224s-163 -114 -163 -224v-584h-328z" />
    <glyph glyph-name="n" unicode="n" horiz-adv-x="1296" 
d="M110 0v1030h328v-109c65 98 160 139 275 139c344 0 473 -203 473 -526v-534h-328v534c0 149 -37 274 -210 274s-210 -125 -210 -274v-534h-328z" />
    <glyph glyph-name="o" unicode="o" horiz-adv-x="1352" 
d="M70 515c0 353 273 545 606 545s606 -192 606 -545s-273 -545 -606 -545s-606 192 -606 545zM676 808c-179 0 -278 -120 -278 -293s99 -293 278 -293s278 120 278 293s-99 293 -278 293z" />
    <glyph glyph-name="p" unicode="p" horiz-adv-x="1372" 
d="M110 -532v1562h328v-136c76 115 204 166 338 166c327 0 526 -224 526 -545s-199 -545 -526 -545c-134 0 -262 51 -338 166v-668h-328zM706 808c-175 0 -268 -127 -268 -293s93 -293 268 -293s268 127 268 293s-93 293 -268 293z" />
    <glyph glyph-name="q" unicode="q" horiz-adv-x="1372" 
d="M70 515c0 321 199 545 526 545c134 0 262 -51 338 -166v136h328v-1562h-328v668c-76 -115 -204 -166 -338 -166c-327 0 -526 224 -526 545zM666 808c-175 0 -268 -127 -268 -293s93 -293 268 -293s268 127 268 293s-93 293 -268 293z" />
    <glyph glyph-name="r" unicode="r" horiz-adv-x="978" 
d="M110 0v1030h328v-109c65 98 159 139 275 139c83 0 169 -12 245 -48l-144 -248c-47 30 -111 44 -166 44c-173 0 -210 -125 -210 -274v-534h-328z" />
    <glyph glyph-name="s" unicode="s" horiz-adv-x="1084" 
d="M50 105l124 211c111 -63 246 -94 373 -94c51 0 159 0 159 74c0 78 -121 88 -176 99c-185 37 -437 109 -437 341c0 254 242 324 454 324c151 0 305 -29 436 -107l-124 -211c-93 42 -210 66 -312 66c-47 0 -126 -9 -126 -72c0 -64 118 -80 163 -89
c201 -40 450 -99 450 -351c0 -262 -276 -326 -487 -326c-169 0 -362 26 -497 135z" />
    <glyph glyph-name="t" unicode="t" horiz-adv-x="961" 
d="M50 778v252h194v299h328v-299h290v-252h-290v-350c0 -91 7 -206 126 -206c50 0 96 10 143 25l70 -234c-68 -27 -160 -43 -233 -43c-327 0 -434 144 -434 458v350h-194z" />
    <glyph glyph-name="u" unicode="u" horiz-adv-x="1296" 
d="M583 -30c-344 0 -473 203 -473 526v534h328v-534c0 -149 37 -274 210 -274s210 125 210 274v534h328v-1030h-328v109c-65 -98 -160 -139 -275 -139z" />
    <glyph glyph-name="v" unicode="v" horiz-adv-x="1216" 
d="M20 1030h342l246 -672l246 672h342l-431 -1030h-314z" />
    <glyph glyph-name="w" unicode="w" horiz-adv-x="1664" 
d="M359 0l-339 1030h318l176 -635l201 635h234l201 -635l176 635h318l-339 -1030h-288l-185 583l-185 -583h-288z" />
    <glyph glyph-name="x" unicode="x" horiz-adv-x="1228" 
d="M389 0h-369l383 539l-347 491h369l189 -279l189 279h369l-347 -491l383 -539h-369l-225 326z" />
    <glyph glyph-name="y" unicode="y" horiz-adv-x="1216" 
d="M461 0l-441 1030h342l246 -672l246 672h342l-564 -1319c-69 -162 -163 -243 -346 -243c-76 0 -170 15 -237 50l101 223c36 -13 74 -21 112 -21c68 0 102 59 126 114z" />
    <glyph glyph-name="z" unicode="z" horiz-adv-x="1105" 
d="M90 149l496 629h-467v252h896v-150l-496 -628h496v-252h-925v149z" />
    <glyph glyph-name="braceleft" unicode="{" 
d="M101 197c-3 0 -6 0 -9 -1v-98c2 -1 6 -1 9 -1c26 0 31 19 31 50c0 32 -5 50 -31 50v0zM253 161v-24h-40v-38h47v-24h-76v145h76v-25h-47v-34h40zM99 73c-8 0 -23 0 -36 2v143c13 2 27 4 37 4c45 0 61 -25 61 -75c0 -51 -17 -74 -62 -74v0zM286 220h39l19 -80l19 80h40
c2 -35 4 -98 6 -145h-29c0 34 -1 70 -3 104l-20 -82h-27l-20 82h-1c-1 -34 -2 -70 -2 -104h-28c1 47 4 110 7 145v0zM482 73c-40 0 -53 23 -53 74s13 75 53 75s54 -24 54 -75s-14 -74 -54 -74v0zM482 197c-20 0 -24 -17 -24 -50c0 -32 4 -50 24 -50c21 0 25 18 25 50
c0 33 -4 50 -25 50zM472 496c52 0 62 -42 62 -63c0 -31 -31 -49 -52 -52c-72 -8 -124 -31 -166 -72c0 0 73 187 156 187v0zM139 444c94 0 156 -187 156 -187c-41 52 -93 72 -156 72c-31 0 -62 21 -62 52c0 32 21 63 62 63v0zM314 593c67 -65 -19 -243 -19 -243
c7 66 -16 118 -61 161c-22 22 -30 58 -9 81c22 22 59 30 89 1v0z" />
    <glyph glyph-name="bar" unicode="|" 
d="M101 197c-3 0 -6 0 -9 -1v-98c2 -1 6 -1 9 -1c26 0 31 19 31 50c0 32 -5 50 -31 50v0zM253 161v-24h-40v-38h47v-24h-76v145h76v-25h-47v-34h40zM99 73c-8 0 -23 0 -36 2v143c13 2 27 4 37 4c45 0 61 -25 61 -75c0 -51 -17 -74 -62 -74v0zM286 220h39l19 -80l19 80h40
c2 -35 4 -98 6 -145h-29c0 34 -1 70 -3 104l-20 -82h-27l-20 82h-1c-1 -34 -2 -70 -2 -104h-28c1 47 4 110 7 145v0zM482 73c-40 0 -53 23 -53 74s13 75 53 75s54 -24 54 -75s-14 -74 -54 -74v0zM482 197c-20 0 -24 -17 -24 -50c0 -32 4 -50 24 -50c21 0 25 18 25 50
c0 33 -4 50 -25 50zM472 496c52 0 62 -42 62 -63c0 -31 -31 -49 -52 -52c-72 -8 -124 -31 -166 -72c0 0 73 187 156 187v0zM139 444c94 0 156 -187 156 -187c-41 52 -93 72 -156 72c-31 0 -62 21 -62 52c0 32 21 63 62 63v0zM314 593c67 -65 -19 -243 -19 -243
c7 66 -16 118 -61 161c-22 22 -30 58 -9 81c22 22 59 30 89 1v0z" />
    <glyph glyph-name="braceright" unicode="}" 
d="M101 197c-3 0 -6 0 -9 -1v-98c2 -1 6 -1 9 -1c26 0 31 19 31 50c0 32 -5 50 -31 50v0zM253 161v-24h-40v-38h47v-24h-76v145h76v-25h-47v-34h40zM99 73c-8 0 -23 0 -36 2v143c13 2 27 4 37 4c45 0 61 -25 61 -75c0 -51 -17 -74 -62 -74v0zM286 220h39l19 -80l19 80h40
c2 -35 4 -98 6 -145h-29c0 34 -1 70 -3 104l-20 -82h-27l-20 82h-1c-1 -34 -2 -70 -2 -104h-28c1 47 4 110 7 145v0zM482 73c-40 0 -53 23 -53 74s13 75 53 75s54 -24 54 -75s-14 -74 -54 -74v0zM482 197c-20 0 -24 -17 -24 -50c0 -32 4 -50 24 -50c21 0 25 18 25 50
c0 33 -4 50 -25 50zM472 496c52 0 62 -42 62 -63c0 -31 -31 -49 -52 -52c-72 -8 -124 -31 -166 -72c0 0 73 187 156 187v0zM139 444c94 0 156 -187 156 -187c-41 52 -93 72 -156 72c-31 0 -62 21 -62 52c0 32 21 63 62 63v0zM314 593c67 -65 -19 -243 -19 -243
c7 66 -16 118 -61 161c-22 22 -30 58 -9 81c22 22 59 30 89 1v0z" />
    <glyph glyph-name="asciitilde" unicode="~" 
d="M101 197c-3 0 -6 0 -9 -1v-98c2 -1 6 -1 9 -1c26 0 31 19 31 50c0 32 -5 50 -31 50v0zM253 161v-24h-40v-38h47v-24h-76v145h76v-25h-47v-34h40zM99 73c-8 0 -23 0 -36 2v143c13 2 27 4 37 4c45 0 61 -25 61 -75c0 -51 -17 -74 -62 -74v0zM286 220h39l19 -80l19 80h40
c2 -35 4 -98 6 -145h-29c0 34 -1 70 -3 104l-20 -82h-27l-20 82h-1c-1 -34 -2 -70 -2 -104h-28c1 47 4 110 7 145v0zM482 73c-40 0 -53 23 -53 74s13 75 53 75s54 -24 54 -75s-14 -74 -54 -74v0zM482 197c-20 0 -24 -17 -24 -50c0 -32 4 -50 24 -50c21 0 25 18 25 50
c0 33 -4 50 -25 50zM472 496c52 0 62 -42 62 -63c0 -31 -31 -49 -52 -52c-72 -8 -124 -31 -166 -72c0 0 73 187 156 187v0zM139 444c94 0 156 -187 156 -187c-41 52 -93 72 -156 72c-31 0 -62 21 -62 52c0 32 21 63 62 63v0zM314 593c67 -65 -19 -243 -19 -243
c7 66 -16 118 -61 161c-22 22 -30 58 -9 81c22 22 59 30 89 1v0z" />
    </font>
</defs>
</svg>
