<svg width="1440" height="496" viewBox="0 0 1440 496" fill="none" xmlns="http://www.w3.org/2000/svg">
<rect width="1440" height="496" rx="24" fill="white"/>
<g clip-path="url(#clip0_1_7)">
<path d="M344.945 322.043C372.618 348.951 422.304 359.601 464.683 338.901C501.787 320.787 531.144 273.852 524.734 242.466C515.815 242.466 506.787 242.612 497.758 242.393C494.223 242.302 492.978 243.158 492.666 246.944C487.813 304.711 424.593 336.207 376.097 305.112C373.149 303.218 370.347 301.07 367.71 299.195C360.091 306.841 352.637 314.324 344.963 322.043H344.945ZM395.95 173.994C395.913 158.374 383.423 146.031 367.856 146.213C352.289 146.395 339.854 158.993 340 174.395C340.147 189.688 352.545 201.794 368.039 201.794C383.899 201.794 395.986 189.76 395.95 173.994Z" fill="#CD2D45"/>
<path d="M344.945 322.042C352.619 314.341 360.072 306.859 367.691 299.194C370.328 301.069 373.13 303.218 376.079 305.111C424.575 336.206 487.795 304.711 492.648 246.944C492.959 243.157 494.205 242.302 497.739 242.393C506.768 242.611 515.797 242.465 524.716 242.465C531.126 273.852 501.768 320.786 464.664 338.901C422.285 359.601 372.599 348.95 344.927 322.042H344.945Z" fill="#CD2D45"/>
<path d="M395.95 173.994C395.986 189.76 383.899 201.794 368.039 201.794C352.545 201.794 340.147 189.688 340 174.395C339.854 158.993 352.289 146.395 367.856 146.213C383.423 146.031 395.913 158.374 395.95 173.994Z" fill="#CD2D45"/>
<path d="M460.03 187.612H509.204C516.405 187.612 522.243 181.808 522.243 174.649V173.339C522.243 166.18 516.405 160.376 509.204 160.376H460.03C452.829 160.376 446.991 166.18 446.991 173.339V174.649C446.991 181.808 452.829 187.612 460.03 187.612Z" fill="#CD2D45"/>
</g>
<path d="M650.465 196.939H606.801V271.487H619.048V241.242H649.4V229.527H619.048V208.654H650.465V196.939ZM712.614 249.762C712.934 247.738 713.04 246.141 713.04 244.969C713.04 237.195 710.484 230.486 705.479 225.054C700.473 219.623 694.084 216.854 686.309 216.854C678.109 216.854 671.293 219.516 666.075 224.948C660.857 230.273 658.194 236.875 658.194 244.863C658.194 252.957 660.857 259.666 666.181 264.991C671.506 270.209 678.535 272.872 687.161 272.872C697.492 272.872 705.266 269.038 710.484 261.263L701.006 255.725C697.918 260.092 693.338 262.328 687.268 262.328C678.429 262.328 671.932 257.855 670.228 249.762H712.614ZM670.122 240.39C671.719 232.296 677.683 227.291 686.203 227.291C693.764 227.291 699.835 231.764 701.432 240.39H670.122ZM734.662 271.487V193.744H723.161V271.487H734.662ZM758.88 208.121C761.862 205.139 761.862 200.666 758.986 197.791C756.111 194.809 751.425 194.809 748.55 197.791C745.674 200.666 745.674 205.139 748.55 208.121C751.531 210.997 756.004 210.997 758.88 208.121ZM759.519 271.487V218.238H748.017V271.487H759.519ZM800.563 244.224L819.519 218.238H806.1L793.853 235.065L781.606 218.238H768.294L787.25 244.117L767.229 271.487H780.648L793.96 253.276L807.165 271.487H820.478L800.563 244.224ZM898.703 196.939H856.637V271.487H864.091V238.473H897.106V231.444H864.091V203.968H898.703V196.939ZM955.003 264.778C960.434 259.346 963.203 252.744 963.203 244.863C963.203 236.982 960.434 230.379 955.003 225.054C949.571 219.623 942.968 216.96 935.194 216.96C927.42 216.96 920.711 219.623 915.279 225.054C909.848 230.379 907.185 236.982 907.185 244.863C907.185 252.744 909.848 259.346 915.279 264.778C920.711 270.103 927.42 272.765 935.194 272.765C942.968 272.765 949.571 270.103 955.003 264.778ZM920.285 259.879C916.238 255.725 914.214 250.72 914.214 244.863C914.214 239.005 916.238 234 920.285 229.953C924.331 225.8 929.337 223.776 935.194 223.776C941.052 223.776 946.057 225.8 950.104 229.953C954.151 234 956.174 239.005 956.174 244.863C956.174 250.72 954.151 255.725 950.104 259.879C946.057 263.926 941.052 265.949 935.194 265.949C929.337 265.949 924.331 263.926 920.285 259.879ZM1019.59 264.778C1025.02 259.346 1027.79 252.744 1027.79 244.863C1027.79 236.982 1025.02 230.379 1019.59 225.054C1014.16 219.623 1007.55 216.96 999.779 216.96C992.005 216.96 985.295 219.623 979.864 225.054C974.433 230.379 971.77 236.982 971.77 244.863C971.77 252.744 974.433 259.346 979.864 264.778C985.295 270.103 992.005 272.765 999.779 272.765C1007.55 272.765 1014.16 270.103 1019.59 264.778ZM984.869 259.879C980.822 255.725 978.799 250.72 978.799 244.863C978.799 239.005 980.822 234 984.869 229.953C988.916 225.8 993.922 223.776 999.779 223.776C1005.64 223.776 1010.64 225.8 1014.69 229.953C1018.74 234 1020.76 239.005 1020.76 244.863C1020.76 250.72 1018.74 255.725 1014.69 259.879C1010.64 263.926 1005.64 265.949 999.779 265.949C993.922 265.949 988.916 263.926 984.869 259.879ZM1085.34 228.675C1080.44 220.901 1073.31 216.96 1063.83 216.96C1056.27 216.96 1049.77 219.623 1044.34 225.054C1039.02 230.486 1036.35 237.088 1036.35 244.863C1036.35 252.637 1039.02 259.24 1044.34 264.671C1049.77 270.103 1056.27 272.765 1063.83 272.765C1073.31 272.765 1080.44 268.825 1085.34 261.05V271.487H1092.37V196.939H1085.34V228.675ZM1049.45 259.879C1045.41 255.725 1043.38 250.72 1043.38 244.863C1043.38 239.005 1045.41 234 1049.45 229.953C1053.5 225.8 1058.51 223.776 1064.36 223.776C1070.22 223.776 1075.23 225.8 1079.27 229.953C1083.32 234 1085.34 239.005 1085.34 244.863C1085.34 250.72 1083.32 255.725 1079.27 259.879C1075.23 263.926 1070.22 265.949 1064.36 265.949C1058.51 265.949 1053.5 263.926 1049.45 259.879Z" fill="#CD2D45"/>
<defs>
<clipPath id="clip0_1_7">
<rect width="185.613" height="203.576" fill="white" transform="translate(340 146.212)"/>
</clipPath>
</defs>
</svg>
