<svg width="30" height="17" viewBox="0 0 30 17" fill="none" xmlns="http://www.w3.org/2000/svg">
<path d="M8.492 16L13.838 0.599999H11.088L6.974 12.942L2.882 0.599999H0.11L5.456 16H8.492ZM22.0993 8.036V10.302H27.2473C26.7853 12.436 25.0033 13.822 22.2753 13.822C20.5813 13.822 19.1953 13.294 18.1393 12.26C17.1053 11.226 16.5773 9.906 16.5773 8.322C16.5773 6.738 17.1053 5.418 18.1393 4.362C19.1733 3.306 20.5153 2.778 22.1213 2.778C24.1233 2.778 25.8393 3.746 26.6533 5.22L28.8313 3.966C27.5113 1.744 25.0033 0.313999 22.1213 0.313999C19.8333 0.313999 17.9193 1.084 16.3573 2.646C14.8173 4.186 14.0473 6.078 14.0473 8.3C14.0473 10.544 14.8173 12.436 16.3573 13.976C17.9193 15.516 19.8773 16.286 22.2533 16.286C24.4973 16.286 26.3233 15.626 27.7093 14.284C29.0953 12.942 29.7993 11.204 29.7993 9.092V8.036H22.0993Z" fill="#CD2D45"/>
</svg>
