<svg width="23" height="22" viewBox="0 0 23 22" fill="none" xmlns="http://www.w3.org/2000/svg">
<path d="M12.1157 0.382301L15.2281 6.70926C15.2687 6.79742 15.3566 6.85845 15.4514 6.87201L22.4136 7.88921C22.9752 7.97059 23.1985 8.66228 22.7925 9.06238L17.9007 13.8364C17.7383 13.9924 17.6639 14.223 17.7045 14.4467L18.8614 21.1941C18.9562 21.757 18.3675 22.1842 17.8668 21.9197L11.6353 18.6376C11.5474 18.5901 11.4459 18.5901 11.3579 18.6376L5.1264 21.9197C4.62571 22.1842 4.03707 21.757 4.13179 21.1941L5.32938 14.2433C5.34291 14.1484 5.31585 14.0466 5.24142 13.9788L0.20749 9.0556C-0.198472 8.6555 0.0248069 7.9638 0.586388 7.88243L7.54864 6.86523C7.64336 6.85167 7.73132 6.79064 7.77192 6.70248L10.8843 0.375519C11.1346 -0.126298 11.8654 -0.126298 12.1157 0.382301Z" fill="#CD2D45"/>
</svg>
