<svg width="28" height="22" viewBox="0 0 28 22" fill="none" xmlns="http://www.w3.org/2000/svg">
<path d="M0 0.364785C0.273739 -0.0624918 0.678038 -0.0236006 1.12348 0.0368383C3.37428 0.343237 5.56529 0.866166 7.67839 1.67027C9.09372 2.20844 10.4465 2.86433 11.666 3.74832C13.0385 4.74372 13.8252 6.10123 14.269 7.66213C14.7128 9.22198 14.7605 10.8113 14.6244 12.4121C14.6124 12.5572 14.6009 12.7017 14.5849 12.8919C12.6754 10.6095 10.4701 8.76317 7.59995 7.76987C11.457 10.0434 14.0764 13.2304 15.4095 17.4154C15.5049 17.1526 15.5883 16.8988 15.6892 16.6512C16.7013 14.1774 18.4288 12.2576 20.69 10.7561C21.0993 10.4844 21.5524 10.2799 21.9967 10.0644C22.0258 10.0529 22.0549 10.0408 22.084 10.0292C22.045 9.97248 22.0022 10.0077 21.9605 10.0245C21.0471 10.2342 20.2281 10.6462 19.4404 11.1177C18.3674 11.7588 17.4167 12.5419 16.5735 13.4448C16.5143 13.5084 16.4523 13.5704 16.3245 13.6277C16.3245 13.4159 16.3223 13.2046 16.3245 12.9928C16.3437 11.5076 16.5324 10.0566 17.2439 8.70694C17.8237 7.60642 18.7239 6.8307 19.8589 6.27256C21.5573 5.4385 23.3572 4.91558 25.2311 4.60602C25.8779 4.49933 26.5291 4.42891 27.1802 4.35901C27.4731 4.32748 27.726 4.37793 27.8972 4.62862C28.0645 4.873 28.0113 5.10951 27.8544 5.33707C27.1078 6.41972 26.6179 7.60064 26.3853 8.87827C26.2416 9.66713 26.201 10.4718 25.9816 11.2501C25.5383 12.821 24.5322 13.931 23.0028 14.6236C21.6802 15.2223 20.2687 15.4419 18.8282 15.546C18.6466 15.5591 18.4612 15.5823 18.2823 15.5628C17.8791 15.5197 17.6581 15.7289 17.454 16.0216C16.68 17.1332 16.2592 18.3787 15.9152 19.6548C15.7331 20.3296 15.5993 21.0144 15.461 21.6982C15.4287 21.859 15.4095 22.0471 15.1483 21.9893C15.0666 21.8879 15.0529 21.7675 15.0381 21.6451C14.9333 20.7868 14.7484 19.9465 14.4593 19.1261C14.0095 17.8495 13.3133 16.6859 12.6688 15.4987C12.5777 15.3316 12.4702 15.2554 12.2765 15.2443C11.6396 15.2091 11.0082 15.1271 10.3796 15.0262C8.74811 14.765 7.16657 14.3582 5.71779 13.5625C4.46156 12.8725 3.47796 11.9354 2.85313 10.6709C2.33418 9.62088 2.13779 8.50197 2.078 7.35468C1.99297 5.72598 1.7302 4.13407 1.04449 2.62678C0.753193 1.98402 0.440505 1.35073 0 0.783653V0.364785Z" fill="#CD2D45"/>
</svg>
