<svg width="23" height="22" viewBox="0 0 23 22" fill="none" xmlns="http://www.w3.org/2000/svg">
<path d="M22.9996 1.85235C22.8278 2.41714 22.4103 2.77242 21.9541 3.10222C21.6253 3.33976 21.3149 3.60329 20.9892 3.84541C20.8699 3.93411 20.8475 3.98406 20.9555 4.11404C21.3582 4.59931 21.5315 5.16512 21.4974 5.87365C20.8454 4.91178 20.0548 4.20936 19.069 3.73633C18.0817 3.26228 17.0357 3.09865 15.8745 3.18836C16.5739 2.55935 17.313 2.34781 18.15 2.53335C18.3957 2.5879 18.5471 2.54559 18.7158 2.3575C19.2469 1.76518 19.801 1.19428 20.3423 0.611145C20.7629 0.1585 21.2685 -0.0362185 21.8746 0.12027C22.4669 0.2737 22.8329 0.661099 22.9619 1.26513C22.9644 1.27635 22.9863 1.28349 22.9991 1.29266V1.85184L22.9996 1.85235Z" fill="#CD2D45"/>
<path d="M7.11241 21.2178C4.97713 21.2045 2.86937 20.3691 0.974181 18.9367C0.798832 18.8042 0.626541 18.6665 0.457309 18.5264C0.22538 18.3342 0.168799 18.1527 0.281961 17.957C0.411433 17.7337 0.612778 17.7205 0.835533 17.7821C1.61543 17.9967 2.41316 18.0987 3.21905 18.1048C6.76987 18.1339 9.35014 16.4247 10.7478 13.1339C11.4156 11.5624 11.7658 9.91235 11.9141 8.22105C12.1022 6.07252 13.4015 4.50712 15.4919 4.07589C18.2899 3.49887 21.0215 5.32474 21.4594 8.06762C21.6526 9.27875 21.3753 10.4211 20.8911 11.5231C20.3935 12.6542 19.6871 13.6528 18.9189 14.6136C17.8092 16.0011 16.6042 17.2887 15.1652 18.3449C13.3934 19.6457 11.4768 20.6275 9.29662 21.0373C8.66302 21.1566 8.0233 21.2188 7.11241 21.2173V21.2178Z" fill="#CD2D45"/>
</svg>
