<svg width="24" height="25" viewBox="0 0 24 25" fill="none" xmlns="http://www.w3.org/2000/svg">
<path d="M0.107404 11C0.391989 8.96752 2.86435 2.50511 9.52128 1.14304C16.0338 -0.189808 22.3539 3.88434 23.7618 10.3314C24.5789 14.072 23.2961 18.9506 19.8774 21.7504C18.128 23.183 16.1241 24.0463 13.878 24.372C11.6681 24.6921 9.5114 24.4819 7.43182 23.6743C4.04126 22.3572 1.78528 19.9699 0.637532 16.5633C0.21136 15.2982 0.0772995 14.2163 0.0293199 13.6044C0.0293199 13.6044 -0.0736951 12.2869 0.106464 11H0.107404ZM12.0219 23.2089C14.4585 23.1505 16.468 22.5525 18.1901 21.2275C21.447 18.721 22.9071 15.4072 22.5078 11.3446C22.3093 9.3252 21.4499 7.56416 20.1224 6.0193C19.9931 5.86853 19.9282 5.89451 19.8063 6.01745C19.2814 6.54678 18.7479 7.06823 18.2155 7.59014C17.8806 7.91859 17.4501 7.94365 17.1547 7.65602C16.8603 7.36885 16.8847 6.93972 17.2173 6.61034C17.7531 6.08054 18.2851 5.54657 18.8307 5.02698C18.97 4.89476 18.9417 4.84141 18.8072 4.73749C18.1661 4.24249 17.4948 3.79434 16.7695 3.42738C14.3437 2.19985 11.8144 1.88531 9.18496 2.65217C6.41625 3.45985 4.30327 5.12811 2.82531 7.5572C1.5689 9.62211 1.09334 11.8619 1.47059 14.2571C1.78152 16.2325 2.65879 17.9532 3.91237 19.5041C4.00598 19.6196 4.05067 19.5964 4.13957 19.5078C4.68899 18.959 5.24498 18.4162 5.79675 17.8692C5.96609 17.7013 6.16365 17.6053 6.40543 17.6322C6.69472 17.6642 6.90545 17.8168 6.99765 18.0896C7.09173 18.3679 7.02682 18.6222 6.81279 18.8328C6.26526 19.3728 5.72243 19.9174 5.1669 20.4496C5.03002 20.5804 5.04037 20.6407 5.18336 20.7567C7.24461 22.4333 9.61442 23.2317 12.0209 23.2085L12.0219 23.2089Z" fill="#CD2D45"/>
<path d="M7.52233 12.5853C7.17189 11.9127 6.96492 11.2228 6.85344 10.5037C6.80828 10.2138 6.77582 9.9229 6.77347 9.62924C6.76971 9.16346 7.08252 8.86284 7.55714 8.88186C8.20816 8.90784 8.84553 9.01872 9.47021 9.19918C9.537 9.21821 9.59909 9.25439 9.67906 9.23583C9.61179 7.5968 10.3512 6.28298 11.4106 5.10369C11.7784 4.69405 12.2083 4.69591 12.5767 5.10045C13.4309 6.03989 14.0692 7.09159 14.271 8.36181C14.3171 8.65129 14.3086 8.94356 14.3049 9.25486C14.6934 9.15743 15.0659 9.04748 15.4498 8.98485C15.7823 8.93057 16.1159 8.89439 16.4517 8.88233C16.9113 8.86609 17.226 9.17135 17.2128 9.62646C17.1846 10.5919 16.9795 11.5179 16.5599 12.3947C16.5307 12.455 16.4766 12.5097 16.495 12.5867C17.0336 12.6726 17.2396 12.9087 17.209 13.4496C17.1399 14.6683 16.8614 15.8286 16.1253 16.8372C15.3501 17.8991 14.2757 18.4164 12.9572 18.4377C12.746 18.4409 12.683 18.4915 12.6924 18.7026C12.7107 19.1108 12.7004 19.52 12.6971 19.9287C12.6933 20.3825 12.4097 20.6747 11.9826 20.6701C11.5663 20.6654 11.2934 20.3773 11.2901 19.9306C11.2868 19.4908 11.2878 19.051 11.2906 18.6117C11.2916 18.5096 11.2916 18.4409 11.149 18.4423C9.08026 18.4637 7.59195 17.1823 7.02137 15.0242C6.88307 14.5013 6.78993 13.9706 6.77488 13.4287C6.76077 12.9078 6.96492 12.667 7.52092 12.5849L7.52233 12.5853ZM15.7348 10.3488C15.0518 10.4606 14.4295 10.6475 13.8707 11.0024C13.0668 11.5123 12.7004 12.2555 12.699 13.1866C12.699 13.2724 12.6839 13.3503 12.8231 13.348C13.6256 13.3332 14.3307 13.1026 14.8566 12.4712C15.3623 11.8635 15.5914 11.1421 15.7358 10.3492L15.7348 10.3488ZM8.25708 10.3488C8.35492 10.9421 8.51861 11.477 8.79285 11.9762C9.29334 12.8878 10.0784 13.3271 11.1213 13.3466C11.2525 13.349 11.2948 13.3197 11.2934 13.1852C11.2831 12.2754 10.9397 11.5392 10.156 11.028C9.58686 10.6568 8.95184 10.4657 8.25755 10.3488H8.25708ZM12.8946 8.74547C12.8866 8.09598 12.5456 7.37319 12.0747 6.69494C11.984 6.56412 11.9473 6.65272 11.8974 6.72324C11.6415 7.08417 11.4275 7.46691 11.2845 7.88536C10.9237 8.94217 11.038 9.90202 11.88 10.7143C11.9595 10.7909 12.0042 10.8187 12.1006 10.7255C12.6091 10.2328 12.8993 9.65104 12.8946 8.74593V8.74547ZM11.022 17.0571C11.0973 17.0005 11.2934 17.1782 11.2916 16.9202C11.2864 16.1357 11.0432 15.4528 10.4176 14.9388C9.83899 14.4633 9.14752 14.2378 8.42218 14.0917C8.25755 14.0588 8.26319 14.1362 8.28671 14.2508C8.40995 14.8497 8.59764 15.4241 8.9429 15.9386C9.43211 16.6678 10.1311 17.0209 11.022 17.0575V17.0571ZM12.9182 17.0585C13.7324 17.0297 14.3895 16.7634 14.8811 16.1585C15.3416 15.592 15.5636 14.9254 15.7071 14.2253C15.7438 14.0467 15.6417 14.0764 15.541 14.0973C14.9742 14.2142 14.4272 14.3835 13.929 14.6846C13.1251 15.1708 12.7347 15.8857 12.6966 16.807C12.6881 17.0162 12.7314 17.1183 12.9186 17.058L12.9182 17.0585Z" fill="#CD2D45"/>
</svg>
