<svg version="1.2" xmlns="http://www.w3.org/2000/svg" viewBox="0 0 1684 600" width="1684" height="600">
	<title>koku life-pdf</title>
	<defs>
		<clipPath clipPathUnits="userSpaceOnUse" id="cp1">
			<path d="m0-296h1684v1191h-1684z"/>
		</clipPath>
	</defs>
	<style>
		.s0 { fill: #b0d455 } 
		.s1 { fill: #2c2e35 } 
		.s2 { fill: #ffffff } 
	</style>
	<g id="Page 1" clip-path="url(#cp1)">
		<path id="Path 1" class="s0" d="m925.3 272.8q1.1 0.4 1.7-1.1c6.4-16.7 20.6-30.1 37.8-34.3 28-7 49.4 14.7 44.2 42.4-3.3 17.5-19.6 29.3-36.1 32.5-1 0.2-1.7 1.4-1.2 2.4 7 13.7 13.8 29.6 23.3 41.4 8.5 10.5 17.6-8.1 25.2 0.1 1.2 1.3 1.3 3.2 0.3 4.7q-11.1 16.1-31.4 15.6c-9.8-0.2-16.6-8.3-21.6-17.3q-11-19.8-21.5-40-4.5-8.8-10.5-12.4-1-0.6-1.2-1.7-0.4-2.2 0.2-4.5c0.2-0.7 0.8-1.2 1.5-1.2q5.9 0.2 15.6 1.2c20.2 2.1 39-12.7 32.7-33.9-3-10-10.8-12.6-20.6-11.2-35.2 4.8-41.7 59.2-38.8 85.6q1.5 13.1 8.7 24.7 1 1.8 1.3 3.3c0.3 1.8-1.1 3.3-2.9 3.3h-43.3q-3.7 0-4.4-3.5c-1.1-5.1 6.5-7.3 9.8-8.5 1.7-0.6 3.1-1.9 3.9-3.5q2.5-5.6 2.5-12.6c-0.1-50.2 0.1-100.3-0.5-150.5-0.1-9.9-10.4-6.5-16.4-8-2.6-0.7-3.6-3.9-1.9-6q5.1-6 10.9-8.7c9.6-4.5 31.3-18.4 32.7 3.4 0.6 8.9-0.8 18.7-0.7 26.4q0.1 35.4 0 70.9c0 0.4 0.3 0.8 0.7 1z"/>
		<path id="Path 2" class="s1" d="m1199.1 186.6l-12.1-0.6q-1.1 0-1.9-0.7-5-3.8-0.6-7.6 14.9-12.6 31.2-14.1c10.6-1 10.2 6.9 10.2 15.2q-0.2 84.6-0.3 169.2 0 4.1 1.4 7.9 0.4 1.2 1.6 1.5 8.7 2.9 16-2.6c1.2-0.9 2.9-0.8 4 0.2q1.7 1.8 2.3 4.2 0.2 0.9-0.4 1.7c-10.5 12.7-34.3 24.8-45.7 6.3q-2.5-4.2-2.6-18.7-0.5-77.9-0.6-159.2c0-1.4-1.1-2.6-2.5-2.7zm194.8 70.2q-1.9 0-1.9 2 0.1 67.4-0.2 128.2c-0.1 12.6-7.1 31.9-18.6 40.8-16 12.6-50.3 13.9-59.9-8-8.3-18.8 8.3-35.8 27.2-33.7 1.4 0.2 2.2 1.8 1.5 3-4.9 7.9-8.7 13-6.7 24 2.5 14.2 20.5 16.2 27.9 5.2 5.8-8.6 5.5-20.5 5.5-32.8q-0.1-63.5-0.1-127.4c0-0.7-0.6-1.2-1.3-1.2l-20.3-0.1q-1.5 0-1.9-1.3c-1.3-5.3 0.4-8.9 5.7-10.6q8-2.6 15.2-3.6c1.5-0.2 2.6-1.5 2.6-3.1 0.1-18.1 2.3-36.4 11.1-52.3 11.3-20.5 33.6-26.7 55.3-19.8 17.6 5.6 28.4 22 19.5 39.9q-7 14.2-25.7 13.1c-1.4-0.1-2.3-1.5-1.7-2.8 4.6-10.5 10.3-24.9 1.4-35.2-6-7.1-18.1-7.7-25.1-1.9-13.6 11.2-11.6 44.5-11.3 60.2 0 0.4 0.4 0.8 0.8 0.8h33.3q4.2 0 3.2 4.1l-2.3 8.2q-1.1 4.3-5.6 4.3z"/>
		<path id="Path 3" class="s0" d="m555.4 186.7c-0.7-4.5 1.5-6.7 6.1-6.6q27.7 0.5 55.5-0.1c1 0 1.8 0.9 1.7 1.9-0.5 2.7-1 5.4-2.6 7.9-8.8 13.9-11.3 25.7-11.4 42.5q-0.4 65.5 0.1 112c0 4.4 0.8 8.4 4.6 11.2q7.5 5.7 16.3 7.6c1.6 0.4 2.4 2.2 1.6 3.6-5 8.3-19.7 6.4-27.8 6.2-12.4-0.4-26.2 1.5-39.1-1.7q-5.7-1.4-4.1-7.1c0.2-0.6 0.7-1.1 1.3-1.3 10.7-4 20.5-5.9 20.6-20.1q0.1-60.9 0.2-121.8c0-22.1-3.3-24.5-21.9-32.7-0.6-0.3-1.1-0.8-1.1-1.5z"/>
		<path id="Path 4" class="s1" d="m1310.7 188.1c4.8 5 4.6 12.9-0.4 17.7l-4.2 4c-4.9 4.8-12.9 4.6-17.7-0.4l-4-4.2c-4.7-5-4.6-12.9 0.4-17.7l4.2-4c5-4.8 12.9-4.6 17.7 0.4z"/>
		<path id="Path 5" fill-rule="evenodd" class="s0" d="m643 275.8q10.5 6.7 17 18.1 8.3 14.5 16.8 29c5.7 9.5 11.1 22.4 18 32.9 4.5 6.9 10.7 5.4 16.8 3.4 1.9-0.6 4.1 0.4 4.8 2.3q0.9 2.4 0.4 4.7c-0.2 0.6-0.5 1.1-1 1.5-22.6 18-44.7 5.9-57.5-15.9-12.1-20.7-24-47.1-34.3-63.2q-2.7-4.1-9.5-8.3c-3.2-2-4.9-4.8-1.8-7.7 3.3-3.1 9.5-1.5 12.2-5.5q15.9-23.6 31.8-46.9 4.7-6.9 7.2-14.7c2.1-6.8-2.2-14.2-3.8-20.6-0.5-2.1 1-4.1 3.2-4.2q23-1 46.1-0.2 3.9 0.1 5 4.4c0.5 2.1-0.7 4.2-2.7 4.8-12.3 3.7-19.7 10.3-27.3 21.5q-18.3 27.1-37.1 53.8-2.7 3.9-5 8.1c-0.6 0.9-0.3 2.1 0.7 2.7zm210.8-1.8c13.8 37.1 4.1 87.5-38.6 99.6-24.9 7-53.6 1.5-70.5-18.9-20.7-25-20.6-72.7 0.3-97.8 19.4-23.2 58.5-26.8 84.1-12.1q17.6 10.1 24.7 29.2zm-85.1-9.5c-11.1 16.2-12.2 34.8-10.7 54.8 1.6 23.1 16.7 47.6 43.9 40.9q8.9-2.2 13.7-7.2c19-20.2 19.5-54.7 9.6-79.2q-4-10.1-8.9-15c-13.7-13.7-36.6-10.1-47.6 5.7zm371.9 90.3q-1.2-2.9-2.8-0.2c-16.9 28.6-67.7 30.8-80.2-2.8q-5.4-14.2-4.1-35.1 1.5-26.8 0.8-53.3c0-2.2-1.9-4-4.1-4.1q-4.2 0-8.9-0.3c-6.7-0.4-8-5.4-3.4-9.4 7-5.9 40.3-25.1 41-3.5q0.5 15.4 0.2 30.7c-0.2 15.2 0.5 31.4 0 47.2-0.3 9.1 1.8 25.8 11.7 30.5 22.2 10.6 42.2-4.2 47.9-25.8 6.6-24.8 6-61.3-8.4-83.3-1.5-2.3-0.1-5.3 2.6-5.7l28.1-3.3q3.9-0.5 3.9 3.5 0.2 52.5-0.1 104.4 0 6.4 2.5 11.6c0.7 1.3 2.1 1.9 3.4 1.6l13.7-3.8q2.8-0.7 4 1.9c1.3 3.1 1.1 4.9-1.2 7.4-12.9 13.7-39.8 23-46-2.7-0.4-1.6-0.2-4.4-0.6-5.5z"/>
		<path id="Path 6" class="s1" d="m1478.6 372.1c-21.1-7.2-34.9-30.4-37.2-51.8-3.9-35.3 8.7-68.1 43.5-80.3 23.8-8.3 59.7-4 68.1 24.3 6.2 21-6.4 43.4-26.3 51.5q-23.7 9.7-48.1-1.8-3.9-1.8-3.6-6.1l0.1-2.6q0.3-4.2 4.3-2.8 15.6 5.6 29.4 1c16.6-5.6 25.9-23.9 18.1-40.2-6.8-14.3-23.7-17.1-36.8-10.6-18.3 9.3-21.9 33.5-22.2 51.6-0.2 15.2 1.2 28.8 10 40.9 12.5 17.1 38 15.9 55.3 7.8q4.3-2.1 13.5-9.5c1.8-1.5 4.6-1.2 6.1 0.7l0.7 1q3.8 4.9-0.7 9.2-33.1 31.7-74.2 17.7zm-196.7-112.7l-12.1-0.5q-1.1 0-1.8-0.9-3.8-4.5 0.8-8.1c8.4-6.6 24.9-15.3 35.1-12.9 5.3 1.2 5.4 6.6 5.4 11.5q0.1 50.3-0.3 100.5c-0.1 13.1 12.8 9 19.8 5.1 0.7-0.3 1.4-0.4 2-0.1 3.8 1.6 4.5 5.1 1.6 8.2-15.5 16.6-46.2 22.8-46.5-9.6q-0.4-44.2-0.5-89.6 0.1-3.5-3.5-3.6z"/>
		<path id="Path 7" class="s0" d="m365.9 115l3.9 7.7 6 21.1c0.3 1.1 1.7 1.4 2.5 0.6 15.4-16.5 40.5-36.4 63.8-22.2q3.8 3 7.2 8.4l2.8 7.8 1.6 9q1 18.8-5 37.5c-0.3 1.2 0.7 2.2 1.9 1.8q25.8-9.2 51.3-1.9l7.7 4.8q12.2 12.2 6.8 31.6l-4 9.3q-9.1 15.3-22 26.9c-0.6 0.6-0.4 1.7 0.5 1.8q15.2 2.8 30.3 10.9l8.8 6.1c23.8 21.2 9.9 45.4-14.1 56.1l-7.3 3.2-17.7 5c-0.7 0.2-0.9 1.1-0.4 1.6l12.9 13.1 5.2 7.2c29.3 53.3-19.1 63.2-57.1 50.6q-3.3-1.2-2.4 2.3c4.8 16.5 8.7 42.1-2.6 57-19.5 25.6-52.9-2-68.3-17.3-0.8-0.8-2.2-0.4-2.3 0.7-2.9 17.3-15.1 46.2-34.8 50.3-28.9 5.9-41.1-30.7-46.3-50.8-0.2-0.8-1.2-1.1-1.8-0.5-13.3 14.8-41.9 38-62.6 23.3-19.3-13.7-12.9-44.2-8.4-63.4 0.3-1.2-0.9-2.2-2-1.8-16.8 5.5-42.7 9.6-58-3.1-14.6-12.1-8.7-31.3-0.2-45.9l5.8-8.6 12.9-12.8c0.8-0.9 0.4-2.3-0.7-2.6l-17-4.3-8.7-4.2c-23.2-10.7-36.9-33.6-13.3-54.9l9-6.2q14.1-7.6 30.4-11.3c0.7-0.1 0.9-0.9 0.4-1.3q-12.9-11.7-22-27.7l-3.6-8.5q-6.5-19.2 7.3-32.5l7.9-4.8q25.3-6.6 51 3c0.9 0.3 1.8-0.5 1.5-1.4q-6.1-19.6-5.2-37.5l1.7-9.8 2.6-7.6q1.9-4.6 7.4-8.2c20-16.4 48 5.7 62 19.6q1 1.8 2.5 2.6 0.9 0.6 1.2-0.5l7.3-22.8c14.1-32.2 44.3-41.2 63.7-6.5z"/>
		<path id="Path 8" fill-rule="evenodd" class="s1" d="m364.4 124l3.7 7.4 5.7 20c0.4 1.1 1.7 1.4 2.4 0.6 14.6-15.8 38.5-34.6 60.7-21.1q3.6 2.8 6.8 7.9l2.7 7.5 1.5 8.5q1 17.9-4.7 35.7c-0.3 1.1 0.7 2.1 1.7 1.7q24.6-8.7 48.9-1.8l7.3 4.6q11.6 11.6 6.5 30l-3.9 8.9q-8.6 14.5-20.8 25.6c-0.7 0.5-0.4 1.6 0.4 1.7q14.5 2.7 28.9 10.3l8.4 5.8c22.5 20.2 9.3 43.2-13.5 53.4l-7 3.1-16.8 4.7c-0.6 0.2-0.8 1-0.4 1.5l12.3 12.5 5 6.8c27.9 50.7-18.2 60.1-54.3 48.2q-3.2-1.1-2.3 2.2c4.5 15.7 8.3 40-2.6 54.2-18.5 24.3-50.2-1.9-64.9-16.5-0.8-0.7-2.1-0.3-2.2 0.7-2.7 16.5-14.3 43.9-33.1 47.8-27.4 5.7-39.1-29.2-44-48.3-0.2-0.8-1.2-1-1.7-0.4-12.7 14-39.9 36.1-59.5 22.1-18.4-13-12.4-42.1-8.1-60.3 0.3-1.1-0.8-2.1-1.9-1.7-15.9 5.2-40.6 9.1-55.2-3-13.8-11.4-8.3-29.7-0.1-43.6l5.5-8.2 12.2-12.2c0.9-0.8 0.5-2.2-0.6-2.4l-16.2-4.1-8.3-4c-22-10.2-35.1-32-12.6-52.3l8.5-5.9q13.4-7.2 29-10.7c0.6-0.2 0.8-0.9 0.3-1.3q-12.3-11.1-20.9-26.3l-3.4-8.1q-6.2-18.2 6.9-30.9l7.6-4.5q24-6.4 48.5 2.8c0.8 0.3 1.7-0.5 1.4-1.4q-5.8-18.6-5-35.6l1.7-9.4 2.4-7.1q1.8-4.5 7.1-7.9c19-15.6 45.6 5.4 58.9 18.7q1 1.7 2.4 2.5 0.9 0.5 1.2-0.5l6.9-21.7c13.4-30.6 42.2-39.2 60.6-6.2zm-59.3 37.8c-0.9 14-2.3 24.4-0.7 40.7q1.9 16.1 7.8 30.5 0.3 0.7 1.1 0.6l24.5-3.9q0.8-0.1 1-0.9 2.8-16 9.2-32.8l3.4-6.8 14-23.8c0.6-1.1 0.8-2.3 0.5-3.4l-4-16q0.1-5-4.5-13.2c-7.7-21.9-28.2-28.4-41-5.3q-9.1 16.4-11.3 34.3zm-68.3-18.9q-4.6 9.3-4 19.3c1 27.7 16.5 57.2 34.7 78.1q2.6 3.9 8.1 7.4 2.9 3.8 6.6 5.7c1 0.5 2.1 0.2 2.8-0.5q7.2-7.9 16.4-13.2c1.1-0.7 1.6-1.9 1.3-3.1l-7-25-1.7-11.7q-0.7-13.7 0.1-27.2c0.3-5.6-1-7.6-4.3-11.6-9-10.8-41-38.9-53-18.2zm124.5 48.7l-3.7 7.5q-6.4 15.7-9.4 30.7c-0.1 0.5 0.2 0.9 0.6 1.1l22.7 9.1c0.7 0.3 1.5 0.1 2-0.4l14.4-14.7 6.6-5.7q16.6-12.9 34.6-21.3c0.6-0.3 1.1-0.7 1.3-1.3q7.6-18.2 7.6-37.8-0.4-7.6-3.3-14.4-3.6-8.1-12.3-8.4c-25-1-52 35.8-61.1 55.6zm-175.4 6.4l-8 3.6c-6.5 3-7 11.5-5.7 17.5q1.3 5.9 4 9.8c14.3 25.6 47.3 47.8 76.1 54.9l13.1 2.7c1.5 0.4 3-0.6 3.3-2.1q2.3-10.8 7.9-20.3c0.4-0.7 0.3-1.7-0.4-2.2l-8.9-7.5-3-3.4-11.2-12.4q-11.5-15.3-17.5-30.1c-0.7-1.5-1.8-2.8-3.3-3.5q-20.8-10.1-46.4-7zm232.4 16.6q-14.5 8.7-26.5 20.4l-10.2 11.2c-0.5 0.5-0.5 1.4 0 2l12.7 14.7q0.6 2.3 2.3 3.9 0.8 0.7 1.8 0.4l18.3-6.2q24.4-4.4 49-2.8c8.8 0.5 25.3-22.2 29.4-29q2.5-4 3.2-8.6 3.4-11.9-4.1-17.9-4.3-3.6-7.5-3.8c-22-6.5-48.2 4.8-68.4 15.7zm-137.7 62.5l-3.8 14.9q-2 14.8 3.4 27.6 0.7 4.2 3.2 8.9 10.9 18.8 31.3 26.8l7.8 2.4q24.3 5 44.5-7.7l8.5-6.2q19.5-18.5 18.9-44.2 0.9-9.9-3.7-21.9c-21.3-50.5-88.5-48.8-110.1-0.6zm161-9q-9.8-0.1-21.7 3.1l-16.3 4.3c-1.5 0.4-2.3 1.9-1.9 3.4q3 10.4 2.7 21.2c0 1.5 1.1 2.9 2.6 3.1q33.9 5.3 61.9 26.2 1.8 1.4 4.1 1 10.7-1.6 21.9-5.4l9.4-4.1c9.9-4.3 22.8-15.6 16.7-27.4q-3.9-7.5-10.9-10.9l-8.2-5.3q-29-11.8-60.3-9.2zm-272.1 9.3l-10.9 5.6q-23.9 21.2 8.9 38.1l8.6 3.6q6.5 2.8 13.6 4.1c26.4 5 54.4 4.5 79.6-5.7q1.1-0.4 0.8-1.5-3.6-11.7-4.1-24 0-1.2-1.2-1.4l-17.1-3.2-19.2-6.9-26.7-16q-1.7-1-3.7-0.8-14 1.7-28.6 8.1zm234.4 36.1c-0.7 0.5-1.2 1.1-1.3 2q-2.1 10.7-7.9 19.4c-0.6 1-0.4 2.3 0.5 3q26.7 21.7 40.7 53.2 0.3 0.8 0.9 1.4 0.6 0.5 1 1.2 3.4 2.4 9.7 3.6 15.1 6.8 32.2 4.9c26.2-2.9 21.5-21.8 11.4-38.5l-5.7-7.6c-18-18.2-42-34.3-66.5-40.2q-5.9-2.5-13.6-2.9-1.1-0.1-1.4 0.5zm-153.4 25.6q-24.3 3.5-46.4 2.2c-0.7 0-1.4 0.1-2 0.5q-9.6 5.9-16.6 15.3-2.8 2.1-5.8 7.7-5.2 6.7-6.6 11.5c-10 33 33.3 27.9 50.6 21.2l9-3.2c20.8-8.3 43.8-22.7 56.7-41.2 0.4-0.6 0.4-1.3 0-1.8l-13.1-15.7q-0.8-1.8-1.7-2.8-0.7-0.8-1.8-0.5zm126.4 16.3l-7.7 4.8c-1.2 0.7-1.6 2.2-1 3.4q1.1 2.5 2.1 5.7 5.4 18 6.9 34 0.4 14.3-0.2 26.3c-0.5 8.8 18.8 23.1 25.7 27.4 32.2 20.1 39.1-9.7 33.8-33.3l-2.7-10.6c-6.2-23-24.2-52.8-44-66.6-1.1-0.8-2.6-0.7-3.5 0.2zm-139.6 58.7q-1.9 3.7-2.9 10.7-2.7 9.5-1.4 19.6c3 23.3 20.8 22.9 36.7 11.9q20.9-14.5 33.2-36.7l6.4-10.5q10.1-19.9 13.1-39.6 0.4-2.7-3.6-2.7l-9.1-2.3-10.7-5.8c-0.5-0.2-1.1-0.1-1.4 0.3-15.8 20-33.5 30.6-56 42.8q-3.5 1.9-4.3 12.3zm75.1 9.6l-7.5 9.3q1.5 26.2 15 45.2c5.4 7.6 15.1 11.1 23.7 5.9 17.3-10.4 23.4-42.6 23.8-61.9q1.1-12.4-1.1-24.5-1.4-16.5-7.2-30.9c-0.4-0.9-1.4-1.4-2.4-1.1q-11.2 3.2-22.8 3.4c-0.9 0-1.8 0.7-1.9 1.6q-4.1 28.5-19.6 53zm794 25.7c0.6 1.3-0.1 3-1.6 3.8-1.6 0.7-3.4 0.2-4-1.2-0.6-1.3 0.1-3 1.6-3.7 1.6-0.8 3.4-0.3 4 1.1zm-359.8 31q-0.7 4-0.2 11.5c0.1 1-0.7 1.7-1.6 1.7h-0.8q-2.3-0.1-2.3-2.4v-41.8q0-1 1-1l2.6-0.1q1 0 1 1v21.6q0 1.6 1.4 1 0.7-0.2 1.3-1.1 3.3-4.4 7.7-9.5c0.8-1 2.2-1.5 3.4-1.3l0.9 0.2c0.9 0.2 1.3 1.3 0.7 2l-7.6 9.1c-1.1 1.3-1.2 3.1-0.3 4.5l10.2 15.9c0.5 0.7 0 1.7-0.8 1.9l-0.8 0.2c-1.2 0.3-2.4-0.2-3.1-1.2l-8.6-13q-3.1-4.7-4.1 0.8z"/>
		<path id="Path 9" fill-rule="evenodd" class="s1" d="m1009.5 460.3l-0.5-10.3c-0.1-0.9 0.6-1.6 1.5-1.7l0.8-0.1q2.2-0.2 2.2 2l0.3 41.4q0 0.9-0.9 0.8-4.8-0.3-9.6 0.1c-12.9 1.2-12.2-11.5-11.8-21.3q0.5-10.3 10.1-10.7c1.9-0.1 4.3 0.9 6.7 1 0.7 0.1 1.3-0.5 1.2-1.2zm-13 23.5c0 2.8 2.2 5 5 5h2.6c2.7 0 5-2.2 5-5v-14.1c0-2.8-2.3-5-5-5h-2.6c-2.8 0-5 2.2-5 5zm235.3-20.7c7-6.5 15-2.1 15.4 7.1q0.4 10.3 0.5 20.8c0.1 1.3-1 2.5-2.3 2.5h-0.6c-1.1 0.1-2-0.8-2-1.8l-0.1-22.6c0-2.6-2.2-4.5-4.7-4.3l-1.3 0.1q-6.1 0.6-6.1 6.7l-0.2 20.4c0 0.9-0.7 1.7-1.6 1.7h-0.8q-1.9 0-1.9-1.9l-0.1-42.5q0-1.3 1.3-1.1l2.1 0.3q1.5 0.3 1.5 1.8l-0.5 12.1c0 0.8 0.8 1.2 1.4 0.7zm-594.9 4.4c0 0.8 1 1.1 1.5 0.5l11-16.5c0.7-1.1 1.9-1.6 3.1-1.6l1.6 0.1q2.4 0.2 1 2.2l-11.2 15.3c-0.6 0.9-0.7 2.2-0.1 3.1l13.2 20.4c0.6 1 0 2.2-1.1 2.4l-0.5 0.1q-2.5 0.4-3.9-1.8l-10.3-16.7c-0.7-1.2-2.4-1.1-3.1 0-2.1 3.7-1.3 12.1-1 16 0.1 1.3-0.9 2.5-2.2 2.7l-0.9 0.1c-1.1 0.2-2-0.6-2-1.7l-0.1-40.1q0-2 2-1.9h0.9q2.1 0.1 2.1 2.3zm219.9 13.2q1 2.9 1.8-0.1l5.4-19q0.5-2.2 2.8-2.2h0.6c0.9 0 1.6 0.8 1.3 1.7q-4.8 17-9.6 33.6c-1.4 4.8-4.2 12.2-10.6 9.7q-3.9-1.5 0-3c7.7-3 7.3-10.7 4.9-17.8q-3.8-10.9-7.5-22.2c-0.3-1 0.6-2 1.6-1.7l0.9 0.2q1.8 0.4 2.4 2.2zm-47.5 10.3c-2.2 0.5-4.3 1.7-6.3 1.9-12.9 1.6-10.6-21-10.2-30.9q0.1-1.8 1.9-1.9l1.1-0.1q1.8-0.1 1.8 1.7l0.3 22.5c0.1 2.5 2.3 4.6 4.9 4.4l1.4-0.1q6-0.4 6-6.4l-0.2-20.5c0-0.8 0.8-1.5 1.7-1.5l1.3 0.1q1.8 0.2 1.8 2v30q0 1.2-1.1 0.8-1.3-0.6-2.5-1.5-0.8-0.7-1.9-0.5zm685.5-10.9q0.9 2.8 1.8 0l5.2-17.9q0.7-2.3 3.1-2.2h0.6q1.9 0 1.4 1.9-5.4 18.3-10.8 36.4-2.4 7.8-9.1 6.2-4.9-1.3-0.2-3.3c7.9-3.3 6.8-11.5 4.2-18.7q-3.7-10.6-7.4-20.8c-0.3-0.8 0.2-1.6 1-1.8l0.7-0.1q2.4-0.5 3.2 1.8z"/>
		<path id="Path 10" fill-rule="evenodd" class="s1" d="m686.3 470.5c0-5.5 4.5-10 10-10h2.3c5.6 0 10 4.5 10 10v12.5c0 5.5-4.4 10-10 10h-2.3c-5.5 0-10-4.5-10-10zm4.5 12.4c0 3.3 2.7 6 6 6h1.3c3.3 0 6-2.7 6-6v-12.4c0-3.3-2.7-6-6-6h-1.3c-3.3 0-6 2.7-6 6zm221.9-9.5c2.6-0.1 3.9-3.2 2.2-5.1-6.1-7-8.7-2.2-13.9 0.8-0.5 0.3-1.2 0.2-1.7-0.1q-1.9-1-0.7-3c4.8-8.4 19.7-7.8 20.6 4.3q0.4 4.9 0 22.2 0 1.2-1 0.7l-2.2-1q-1-0.5-2-0.3-6 1.2-7.7 1.2c-11.3-0.1-12.9-17.5-0.4-19.1q4.2-0.5 6.8-0.6zm-0.7 4.3l-8.2 1c-1.3 0.2-2.3 1.4-2.1 2.7l0.3 2.6c0.4 3.1 3.1 5.4 6.1 5l2.2-0.2c3-0.4 5.1-3.3 4.8-6.4l-0.4-2.6c-0.1-1.3-1.3-2.2-2.7-2.1zm151.5-7.3c-2.2-7.8-8.8-6.9-13.6-2.2q-2.5 2.6-3.1-1-0.4-2.8 4-5.1c9-4.8 16.8 0.3 17 10.2q0.1 10.1 0 20.2-0.1 1.2-1.2 0.8l-3.3-1.1q-1-0.3-2-0.2c-9 1.6-17.8 0.6-15.2-11.9 1.2-6 10.6-6.9 15.1-6.7 1.6 0.1 2.8-1.4 2.3-3zm-0.3 11.1c-0.1-2.2-2-3.9-4.2-3.8l-5.1 0.3c-2.1 0.1-3.8 2-3.7 4.2l0.2 2.9c0.1 2.2 1.9 3.8 4.1 3.7l5.1-0.3c2.2-0.1 3.9-1.9 3.7-4.1zm38.3-20c0-0.6 0.5-1 1-1h2.4c0.6 0 1 0.4 1 1v31c0 0.5-0.4 1-1 1h-2.4c-0.5 0-1-0.5-1-1zm43.6 5.5l-1.2 25.5c0 0.3-0.2 0.6-0.6 0.7l-2.2 0.3c-0.4 0.1-0.8-0.2-0.9-0.7l-0.8-31.7c0-0.5 0.6-0.8 1.1-0.6l3 1.3q0.2 0 0.4 0l12-1.4c0.4-0.1 0.8 0.2 0.8 0.6l0.1 2.2c0 0.4-0.3 0.7-0.6 0.8l-10.5 2.3c-0.3 0.1-0.6 0.3-0.6 0.7zm143.4 11q-4.2 0-3.6 4.2 1.2 8.9 9.7 5.8 0.9-0.3 1.4-1.1 1.4-2.5 3.6-4.3c0.5-0.3 1.2-0.3 1.7 0q1.8 1.5 0.8 3.7c-4.7 10.1-21.4 9.4-22.1-3.6-0.3-6.7-2.3-19.6 7.9-22.1 10.1-2.5 16.5 6.4 13.8 16.1-0.2 0.7-0.9 1.3-1.7 1.3zm-2.5-4.4l10.3 0.3c1 0.1 1.7-0.7 1.8-1.6v-0.4c0.1-3.9-2.8-7.2-6.4-7.3h-0.5c-3.7-0.2-6.7 2.9-6.9 6.8v0.4c0 1 0.7 1.8 1.7 1.8zm55-6.8c-0.6 0.3-1 0.9-1 1.5l-0.5 23.7c0 1.2-1 2.2-2.3 2.1h-0.5c-0.9 0-1.6-0.7-1.6-1.6l-0.4-31.1q0-1.9 1.5-0.8l2 1.5q1 0.7 2.1 0.3 4.2-1.8 8.7-2.1c1.1 0 2.2 0.8 2.4 1.9l0.1 0.7q0.3 1.7-1.3 1.6-5-0.1-9.2 2.3zm46.9-1.8q-5.9 5.7 0.8 8.2c4.4 1.7 10.4 3.7 12.2 8.2 2 5-0.9 9.4-5.8 11.1q-8 2.7-14.4-4.4-1.6-1.7-0.8-3.8l0.3-0.7c0.5-1.2 2.1-1.5 2.9-0.4l3.3 4.4c0.4 0.5 0.9 0.9 1.5 1q4 1 7.7-1.3c2.6-1.6 2.3-5.4-0.4-6.7-3.9-1.8-10.9-3.8-13.6-6.9-8.1-9.8 12-20.9 19.1-6.5q0.7 1.6-0.6 2.6l-0.7 0.5c-0.6 0.4-1.5 0.3-1.8-0.4q-2.6-4.4-7.3-5.6c-0.9-0.2-1.8 0-2.4 0.7zm48.8 14c-0.6 5.1 1.9 11.7 8.1 9.7 2.8-1 4.7-3.7 6.5-6.1 0.6-0.8 1.7-0.9 2.5-0.3q0.4 0.3 0.2 1.4c-1.8 13.6-21.2 12.4-22-1.5-0.4-6.8-1.4-17.9 6.5-21.1 10.4-4.1 17 4.6 15.7 15q-0.2 1.8-2 1.8l-14.5 0.1q-0.9 0-1 1zm1.4-5.1h10.1c1-0.1 1.8-0.9 1.8-1.9v-0.2c0-4.1-2.9-7.3-6.6-7.3h-0.6c-3.6 0-6.5 3.3-6.5 7.4v0.2c0 1 0.8 1.8 1.8 1.8z"/>
		<path id="Path 11" class="s2" d="m316.3 424l-6.3 7.8q1.3 21.9 12.5 37.8c4.5 6.3 12.7 9.2 19.8 4.9 14.5-8.7 19.5-35.6 19.9-51.7q0.9-10.4-0.9-20.5-1.2-13.8-6.1-25.8c-0.3-0.7-1.1-1.2-1.9-0.9q-9.4 2.7-19.1 2.8c-0.8 0-1.5 0.6-1.6 1.4q-3.4 23.7-16.3 44.2zm-72.5-10.4q-1.6 3.1-2.3 8.9-2.3 7.9-1.2 16.4c2.5 19.4 17.3 19.1 30.6 9.9q17.5-12.1 27.8-30.7l5.3-8.7q8.4-16.6 10.9-33.1 0.4-2.3-3-2.3l-7.6-1.8-8.9-4.9c-0.4-0.2-0.9-0.1-1.2 0.2-13.2 16.8-27.9 25.6-46.8 35.8q-2.9 1.5-3.6 10.3zm137.3-50.1l-6.5 4c-1 0.6-1.3 1.8-0.8 2.9q1 2 1.8 4.7 4.4 15.1 5.7 28.4 0.4 12-0.2 22c-0.4 7.4 15.7 19.3 21.5 22.9 27 16.8 32.7-8.2 28.3-27.8l-2.3-8.9c-5.1-19.2-20.2-44.1-36.8-55.7-0.9-0.6-2.1-0.5-2.9 0.3zm-134-19.8q-20.3 2.8-38.7 1.7c-0.6 0-1.2 0.2-1.7 0.5q-8 4.9-13.9 12.8-2.3 1.7-4.8 6.4-4.4 5.6-5.6 9.6c-8.3 27.6 27.9 23.3 42.3 17.7l7.5-2.7c17.5-6.9 36.7-18.9 47.4-34.4 0.4-0.5 0.3-1.1 0-1.5l-10.9-13.1q-0.7-1.5-1.4-2.4-0.7-0.6-1.5-0.4zm163.7-22.9c-0.6 0.4-1 0.8-1.2 1.6q-1.7 9-6.5 16.3c-0.5 0.8-0.4 1.8 0.4 2.4q22.3 18.2 34 44.5 0.2 0.6 0.8 1.1 0.4 0.4 0.7 1.1 2.9 2 8.2 3 12.6 5.6 26.9 4c21.8-2.4 17.9-18.2 9.5-32.1l-4.7-6.4c-15.1-15.2-35.2-28.7-55.6-33.6q-4.9-2-11.4-2.4-0.9-0.1-1.1 0.5zm-235-39.6l-9 4.7q-20 17.7 7.4 31.8l7.2 3q5.4 2.3 11.3 3.4c22.1 4.2 45.5 3.8 66.5-4.7q1-0.4 0.7-1.3-3-9.8-3.4-20 0-1-1-1.2l-14.3-2.7-16.1-5.8-22.2-13.3q-1.5-0.9-3.1-0.7-11.7 1.4-24 6.8zm269-8q-8.2-0.1-18.1 2.6l-13.7 3.5c-1.2 0.4-1.9 1.6-1.6 2.8q2.5 8.7 2.3 17.8c0 1.3 0.9 2.4 2.2 2.6q28.3 4.4 51.7 21.9 1.5 1.1 3.4 0.8 9-1.4 18.3-4.5l7.9-3.5c8.2-3.5 19-13 13.9-22.8q-3.2-6.3-9.1-9.1l-6.8-4.5q-24.3-9.8-50.4-7.6zm-23.1-55.8q-12.1 7.3-22.1 17.1l-8.5 9.3c-0.5 0.5-0.5 1.2 0 1.7l10.6 12.3q0.5 1.9 1.9 3.2 0.6 0.6 1.5 0.4l15.3-5.2q20.4-3.6 41-2.4c7.3 0.5 21.1-18.5 24.4-24.2q2.2-3.3 2.8-7.1 2.8-10-3.5-15-3.5-3-6.2-3.2c-18.5-5.4-40.3 4.1-57.2 13.1zm-229.7-12.2l-6.6 3c-5.5 2.5-6 9.6-4.8 14.6q1 4.9 3.3 8.2c11.9 21.4 39.5 39.9 63.6 45.9l10.9 2.3c1.3 0.2 2.5-0.6 2.8-1.8q1.9-9 6.6-16.9c0.4-0.7 0.2-1.5-0.3-1.9l-7.5-6.3-2.5-2.8-9.3-10.4q-9.7-12.8-14.7-25.2c-0.5-1.2-1.5-2.3-2.7-2.8q-17.4-8.5-38.8-5.9zm174.3-14.2l-3 6.3q-5.4 13-7.9 25.6c-0.1 0.4 0.2 0.8 0.5 0.9l18.9 7.6c0.6 0.2 1.3 0.1 1.8-0.4l11.9-12.2 5.6-4.8q13.9-10.8 28.9-17.7c0.5-0.3 0.9-0.7 1.1-1.2q6.3-15.2 6.3-31.5-0.3-6.4-2.8-12-2.9-6.8-10.2-7.1c-20.9-0.8-43.5 30-51.1 46.5zm-124.6-39.6q-3.8 7.7-3.4 16.1c0.9 23.1 13.8 47.8 29 65.2q2.3 3.3 6.8 6.2 2.4 3.2 5.6 4.8c0.7 0.4 1.7 0.2 2.3-0.5q6-6.6 13.7-11c0.9-0.5 1.3-1.6 1.1-2.6l-5.9-20.9-1.4-9.7q-0.6-11.5 0.1-22.7c0.2-4.7-0.9-6.4-3.6-9.7-7.6-9-34.3-32.5-44.3-15.2zm68.1 12.3c-0.8 11.6-1.9 20.3-0.6 33.9q1.6 13.5 6.5 25.5 0.3 0.6 0.9 0.5l20.6-3.2q0.6-0.1 0.7-0.8 2.4-13.4 7.7-27.4l2.8-5.6 11.8-20c0.5-0.8 0.6-1.8 0.4-2.8l-3.3-13.3q0.1-4.2-3.8-11c-6.4-18.4-23.6-23.8-34.2-4.5q-7.6 13.7-9.5 28.7z"/>
	</g>
</svg>