<svg width="38" height="38" viewBox="0 0 38 38" fill="none" xmlns="http://www.w3.org/2000/svg">
<path d="M35.15 38H2.85C1.2787 38 0 36.7213 0 35.15V2.85C0 1.2787 1.2787 0 2.85 0H35.15C36.7213 0 38 1.2787 38 2.85V35.15C38 36.7213 36.7213 38 35.15 38ZM2.85 1.9C2.3256 1.9 1.9 2.3256 1.9 2.85V35.15C1.9 35.6744 2.3256 36.1 2.85 36.1H35.15C35.6744 36.1 36.1 35.6744 36.1 35.15V2.85C36.1 2.3256 35.6744 1.9 35.15 1.9H2.85Z" fill="white"/>
<path d="M24.6984 17.1C22.6027 17.1 20.8984 15.3957 20.8984 13.3C20.8984 11.2043 22.6027 9.5 24.6984 9.5C26.7941 9.5 28.4984 11.2043 28.4984 13.3C28.4984 15.3957 26.7941 17.1 24.6984 17.1ZM24.6984 11.4C23.6515 11.4 22.7984 12.2531 22.7984 13.3C22.7984 14.3469 23.6515 15.2 24.6984 15.2C25.7453 15.2 26.5984 14.3469 26.5984 13.3C26.5984 12.2531 25.7453 11.4 24.6984 11.4Z" fill="white"/>
<path d="M33.2493 3.79993H4.74932C4.22492 3.79993 3.79932 4.22553 3.79932 4.74993V27.5499C3.79932 28.0743 4.22492 28.4999 4.74932 28.4999H33.2493C33.7737 28.4999 34.1993 28.0743 34.1993 27.5499V4.74993C34.1993 4.22553 33.7737 3.79993 33.2493 3.79993ZM5.69932 22.2109L11.7964 15.35C11.9522 15.1752 12.1555 15.0764 12.3702 15.0745C12.5849 15.0726 12.7901 15.1657 12.9497 15.3367L23.4624 26.5999H5.69932V22.2109ZM32.2993 26.5999H26.0616L14.3405 14.0409C13.8104 13.4728 13.1036 13.165 12.3474 13.1745C11.5912 13.184 10.892 13.5089 10.3771 14.0884L5.69932 19.3514V5.69993H32.2993V26.5999Z" fill="white"/>
</svg>
