<svg width="19" height="19" viewBox="0 0 19 19" fill="none" xmlns="http://www.w3.org/2000/svg">
<path d="M17.3883 18.729H2.18699C1.4475 18.729 0.845703 18.1272 0.845703 17.3877V2.18638C0.845703 1.44688 1.4475 0.845093 2.18699 0.845093H17.3883C18.1278 0.845093 18.7296 1.44688 18.7296 2.18638V17.3877C18.7296 18.1272 18.1278 18.729 17.3883 18.729ZM2.18699 1.73929C1.9402 1.73929 1.7399 1.93959 1.7399 2.18638V17.3877C1.7399 17.6345 1.9402 17.8348 2.18699 17.8348H17.3883C17.6351 17.8348 17.8354 17.6345 17.8354 17.3877V2.18638C17.8354 1.93959 17.6351 1.73929 17.3883 1.73929H2.18699Z" fill="#CD2D45"/>
<path d="M12.47 8.89281C11.4837 8.89281 10.6816 8.09072 10.6816 7.10443C10.6816 6.11813 11.4837 5.31604 12.47 5.31604C13.4563 5.31604 14.2584 6.11813 14.2584 7.10443C14.2584 8.09072 13.4563 8.89281 12.47 8.89281ZM12.47 6.21023C11.9773 6.21023 11.5758 6.61173 11.5758 7.10443C11.5758 7.59713 11.9773 7.99862 12.47 7.99862C12.9627 7.99862 13.3642 7.59713 13.3642 7.10443C13.3642 6.61173 12.9627 6.21023 12.47 6.21023Z" fill="#CD2D45"/>
<path d="M16.4938 2.63342H3.08089C2.83409 2.63342 2.63379 2.83372 2.63379 3.08052V13.8108C2.63379 14.0576 2.83409 14.2579 3.08089 14.2579H16.4938C16.7406 14.2579 16.9409 14.0576 16.9409 13.8108V3.08052C16.9409 2.83372 16.7406 2.63342 16.4938 2.63342ZM3.52798 11.2982L6.39745 8.06923C6.47077 7.98696 6.56645 7.94046 6.6675 7.93957C6.76854 7.93867 6.86511 7.98249 6.94023 8.06297L11.8878 13.3637H3.52798V11.2982ZM16.0467 13.3637H13.1111L7.59477 7.45313C7.34529 7.18576 7.01265 7.0409 6.65677 7.04537C6.30088 7.04985 5.97181 7.20275 5.72949 7.47548L3.52798 9.9524V3.52762H16.0467V13.3637Z" fill="#CD2D45"/>
</svg>
