<svg width="55" height="54" viewBox="0 0 55 54" fill="none" xmlns="http://www.w3.org/2000/svg">
<rect x="0.5" y="0.5" width="54" height="53" rx="12.5" fill="white" stroke="#9178FB"/>
<path d="M41.005 20.1347C40.9314 20.1472 40.9363 20.2173 40.9113 20.2645C40.6543 20.7534 40.1884 20.9908 39.7204 20.8707C39.2246 20.7429 38.9246 20.3478 38.9232 19.7993C38.9198 18.5778 38.9232 17.3557 38.9218 16.1343C38.9218 15.3934 38.6156 15.0879 37.8747 15.0872C36.6644 15.0865 35.4541 15.0885 34.2444 15.0858C33.5716 15.0844 33.1112 14.6587 33.1133 14.049C33.1154 13.4463 33.5834 13.013 34.2507 13.0109C35.4839 13.0068 36.7172 13.0068 37.9504 13.0109C39.4544 13.0151 40.5238 13.838 40.9286 15.2962C40.9432 15.3476 40.9265 15.4156 41.0057 15.4281V20.1347H41.005Z" fill="#9178FB"/>
<path d="M16.4275 40.0047C16.3595 39.8853 16.2268 39.911 16.1248 39.8811C14.9082 39.5221 14.0451 38.4521 14.0194 37.1834C13.9923 35.846 14.0048 34.5079 14.0138 33.1698C14.018 32.5623 14.4846 32.1074 15.061 32.1116C15.6442 32.1158 16.0817 32.5664 16.0852 33.1872C16.0914 34.4211 16.0866 35.6551 16.0873 36.8897C16.088 37.6091 16.3983 37.9208 17.1163 37.9215C18.3155 37.9229 19.5154 37.9215 20.7147 37.9215C21.3577 37.9215 21.7792 38.2299 21.884 38.7715C21.9826 39.2798 21.6924 39.7263 21.1132 39.9575C21.0945 39.9651 21.0813 39.988 21.0653 40.0033H16.4275V40.0047Z" fill="#9178FB"/>
<path d="M33.9437 40.0046C33.9062 39.9824 33.8701 39.9546 33.8299 39.9387C33.3167 39.7345 33.0313 39.2658 33.1237 38.7749C33.2195 38.268 33.6375 37.9249 34.1854 37.9229C35.4172 37.9187 36.6498 37.9229 37.8816 37.9208C38.617 37.9201 38.9211 37.6118 38.9211 36.8674C38.9218 35.7272 38.9211 34.587 38.9211 33.4468C38.9211 32.6684 39.1857 32.249 39.7544 32.1261C40.2717 32.0143 40.6918 32.2886 41.0043 32.9413V37.5798C40.8848 37.6465 40.9126 37.7791 40.8807 37.8805C40.5494 38.9394 39.8433 39.6026 38.785 39.913C38.6711 39.9463 38.5281 39.8713 38.4427 40.0032H33.9423L33.9437 40.0046Z" fill="#9178FB"/>
<path d="M22.3028 28.0944C22.9486 28.0944 23.5944 28.0882 24.2402 28.0958C25.1915 28.1069 25.906 28.8104 25.9123 29.7561C25.9213 31.0706 25.9213 32.3858 25.9123 33.7002C25.9053 34.6272 25.1943 35.3487 24.2707 35.3577C22.9444 35.3702 21.6182 35.3709 20.2926 35.3577C19.3878 35.3487 18.6642 34.6349 18.6531 33.7301C18.6365 32.3927 18.6365 31.0546 18.6531 29.7172C18.6649 28.8104 19.3892 28.1104 20.2967 28.0972C20.9654 28.0875 21.6341 28.0951 22.3035 28.0951L22.3028 28.0944ZM23.8381 31.7011C23.8381 31.2747 23.8305 30.8491 23.8416 30.4234C23.8465 30.2422 23.8159 30.1623 23.6048 30.1658C22.7181 30.1783 21.832 30.1762 20.9453 30.1665C20.7571 30.1644 20.7189 30.2297 20.7203 30.4026C20.728 31.2775 20.7321 32.1531 20.7182 33.0274C20.7148 33.2531 20.7925 33.2899 20.9939 33.2878C21.857 33.2774 22.7208 33.2746 23.5847 33.2892C23.8124 33.2933 23.8485 33.2121 23.8423 33.0135C23.8291 32.576 23.8381 32.1386 23.8381 31.7011Z" fill="#9178FB"/>
<path d="M32.7368 24.9133C32.0793 24.9133 31.4224 24.9195 30.7648 24.9119C29.8156 24.9001 29.1031 24.1925 29.0976 23.2468C29.0892 21.9323 29.0892 20.6171 29.0976 19.3026C29.1038 18.3798 29.8204 17.6576 30.7433 17.65C32.0577 17.6389 33.3722 17.6403 34.6867 17.6493C35.6297 17.6555 36.3491 18.3694 36.3581 19.3165C36.3706 20.6192 36.3692 21.9226 36.3588 23.2259C36.3511 24.1953 35.6387 24.9022 34.6735 24.9126C34.0277 24.9195 33.3819 24.914 32.7362 24.914L32.7368 24.9133ZM32.732 22.8371C33.1694 22.8371 33.6076 22.8267 34.0444 22.8419C34.2437 22.8489 34.2923 22.7822 34.2902 22.5906C34.2805 21.7156 34.2798 20.8407 34.2902 19.9658C34.293 19.7637 34.2249 19.7186 34.036 19.7207C33.1611 19.7297 32.2862 19.7283 31.4113 19.7214C31.2467 19.72 31.1654 19.7408 31.1675 19.9394C31.1779 20.8372 31.1766 21.7358 31.1675 22.6336C31.1661 22.8065 31.2252 22.8433 31.3842 22.8405C31.8328 22.8308 32.282 22.8371 32.7313 22.8371H32.732Z" fill="#9178FB"/>
<path d="M29.0951 31.7101C29.0951 31.0761 29.0916 30.4414 29.0958 29.8075C29.1027 28.8131 29.8006 28.1013 30.7873 28.0958C32.0789 28.0888 33.3705 28.0888 34.662 28.0958C35.648 28.1013 36.3549 28.811 36.3605 29.804C36.3681 31.0837 36.3681 32.3642 36.3605 33.6439C36.3542 34.6487 35.6383 35.3563 34.6308 35.3598C33.3621 35.3639 32.0942 35.3639 30.8255 35.3598C29.8006 35.3563 29.1 34.6466 29.0958 33.6127C29.093 32.9787 29.0958 32.3441 29.0958 31.7101H29.0951ZM34.2857 31.7031C34.2857 31.2657 34.2808 30.8282 34.2884 30.3907C34.2912 30.2387 34.2676 30.1651 34.0871 30.1664C33.1774 30.1755 32.2678 30.1741 31.3581 30.1664C31.2005 30.1651 31.1679 30.2206 31.1685 30.365C31.1741 31.2747 31.1748 32.1843 31.1685 33.094C31.1672 33.2488 31.2206 33.2863 31.3678 33.2856C32.2657 33.2801 33.1642 33.2773 34.0621 33.287C34.2509 33.2891 34.2933 33.2238 34.2891 33.0495C34.2787 32.601 34.2857 32.1517 34.2857 31.7024V31.7031Z" fill="#9178FB"/>
<path d="M25.9155 21.311C25.9155 21.945 25.9196 22.5796 25.9141 23.2136C25.9057 24.2024 25.2016 24.9072 24.2087 24.9121C22.9289 24.9183 21.6485 24.9183 20.3687 24.9121C19.3598 24.9079 18.6536 24.2003 18.6487 23.19C18.6431 21.9214 18.6431 20.6527 18.6487 19.3841C18.6529 18.3571 19.3646 17.6502 20.3923 17.6474C21.661 17.6439 22.9296 17.6432 24.1976 17.6474C25.2037 17.6509 25.9071 18.3598 25.9141 19.3723C25.9182 20.018 25.9148 20.6638 25.9148 21.3096L25.9155 21.311ZM22.2505 22.8373C22.7109 22.8373 23.1719 22.8296 23.6323 22.8414C23.8018 22.8456 23.8434 22.7907 23.842 22.6276C23.8344 21.7297 23.8344 20.8312 23.842 19.9333C23.8434 19.7667 23.792 19.7201 23.6275 19.7215C22.7296 19.7292 21.8311 19.7292 20.9332 19.7215C20.7645 19.7201 20.7201 19.7764 20.7214 19.9382C20.7284 20.836 20.7291 21.7346 20.7208 22.6324C20.7194 22.8053 20.7791 22.8442 20.9381 22.8407C21.3756 22.8317 21.813 22.8373 22.2505 22.8373Z" fill="#9178FB"/>
<path d="M14.0105 17.648C14.0438 17.0168 13.939 16.2412 14.0605 15.4746C14.2806 14.081 15.4118 13.054 16.811 13.0199C18.1595 12.9873 19.5087 13.0019 20.8579 13.0137C21.4634 13.0192 21.9113 13.4998 21.8974 14.0775C21.8835 14.6483 21.4398 15.0802 20.8391 15.0837C19.5941 15.0899 18.349 15.0843 17.104 15.0864C16.4055 15.0871 16.0895 15.4017 16.0881 16.0961C16.086 17.3064 16.0888 18.5174 16.0874 19.7277C16.086 20.4339 15.6729 20.8978 15.0514 20.8964C14.4383 20.895 14.014 20.4193 14.0112 19.7249C14.0091 19.0792 14.0112 18.4334 14.0112 17.6487L14.0105 17.648Z" fill="#9178FB"/>
</svg>
